999
"DXF R12 Output" (www.mydxf.blogspot.com)
 0 
SECTION
 2 
HEADER
 9 
$ACADVER
 1 
AC1009
 9 
$EXTMIN
 10 
 0 
 20 
 0 
 9 
$EXTMAX
 10 
 8.5 
 20 
 11 
 0 
ENDSEC
 0 
SECTION
 2 
ENTITIES
0
LINE
8
Layer 1
10
139.269000
20
89.831500
11
179.438000
21
89.831500
0
LINE
8
Layer 1
10
179.437000
20
91.999200
11
179.438411
21
89.831460
0
LINE
8
Layer 1
10
179.437000
20
91.999200
11
179.264581
21
92.416237
0
LINE
8
Layer 1
10
179.264581
20
92.416237
11
178.847754
21
92.589163
0
LINE
8
Layer 1
10
178.847000
20
92.588500
11
139.859000
21
92.588500
0
LINE
8
Layer 1
10
139.269000
20
91.999200
11
139.269000
21
89.831500
0
LINE
8
Layer 1
10
139.859000
20
92.589200
11
139.442178
21
92.416269
0
LINE
8
Layer 1
10
139.442178
20
92.416269
11
139.269754
21
91.999237
0
LINE
8
Layer 1
10
30.227700
20
59.052400
11
30.227700
21
60.610100
0
LINE
8
Layer 1
10
67.556600
20
58.671000
11
30.484300
21
58.673900
0
LINE
8
Layer 1
10
34.667100
20
80.176300
11
34.667100
21
83.820100
0
LINE
8
Layer 1
10
67.562300
20
80.176300
11
35.606900
21
80.176300
0
LINE
8
Layer 1
10
28.913000
20
60.610100
11
28.913000
21
55.509700
0
LINE
8
Layer 1
10
69.625400
20
54.920800
11
70.042262
21
55.093472
0
LINE
8
Layer 1
10
70.042262
20
55.093472
11
70.214934
21
55.510334
0
LINE
8
Layer 1
10
69.625400
20
54.920500
11
29.502200
21
54.920500
0
LINE
8
Layer 1
10
67.861300
20
79.759100
11
67.562300
21
80.176300
0
LINE
8
Layer 1
10
35.606900
20
80.176300
11
34.667100
21
80.176300
0
LINE
8
Layer 1
10
67.861300
20
79.759100
11
67.861300
21
59.038000
0
LINE
8
Layer 1
10
69.625400
20
83.820100
11
34.667100
21
83.820100
0
LINE
8
Layer 1
10
70.215300
20
83.230800
11
70.042522
21
83.647534
0
LINE
8
Layer 1
10
70.042522
20
83.647534
11
69.625700
21
83.820100
0
LINE
8
Layer 1
10
70.214700
20
83.230800
11
70.214700
21
55.509700
0
LINE
8
Layer 1
10
28.913000
20
60.610100
11
30.227700
21
60.610100
0
LINE
8
Layer 1
10
30.484300
20
58.673900
11
30.227670
21
59.052394
0
LINE
8
Layer 1
10
28.912400
20
55.510400
11
29.085071
21
55.093539
0
LINE
8
Layer 1
10
29.085071
20
55.093539
11
29.501931
21
54.920866
0
LINE
8
Layer 1
10
67.861300
20
59.038000
11
67.556641
21
58.670976
0
LINE
8
Layer 1
10
29.751000
20
17.475400
11
29.751000
21
19.033100
0
LINE
8
Layer 1
10
34.189700
20
38.599400
11
34.189700
21
41.678900
0
LINE
8
Layer 1
10
67.084900
20
38.599400
11
35.129500
21
38.599400
0
LINE
8
Layer 1
10
28.435600
20
19.033100
11
28.435600
21
14.497700
0
LINE
8
Layer 1
10
68.575900
20
13.908600
11
68.992762
21
14.081275
0
LINE
8
Layer 1
10
68.992762
20
14.081275
11
69.165431
21
14.498139
0
LINE
8
Layer 1
10
35.129500
20
38.599400
11
34.189700
21
38.599400
0
LINE
8
Layer 1
10
67.079200
20
17.094100
11
30.007600
21
17.096979
0
LINE
8
Layer 1
10
67.384600
20
38.182200
11
67.384600
21
17.461100
0
LINE
8
Layer 1
10
68.575200
20
41.678200
11
34.189600
21
41.679047
0
LINE
8
Layer 1
10
69.165400
20
41.089100
11
68.992728
21
41.505959
0
LINE
8
Layer 1
10
68.992728
20
41.505959
11
68.575869
21
41.678631
0
LINE
8
Layer 1
10
69.165200
20
41.089000
11
69.165200
21
14.497700
0
LINE
8
Layer 1
10
68.575200
20
13.908400
11
29.025500
21
13.908400
0
LINE
8
Layer 1
10
67.384600
20
38.182200
11
67.084959
21
38.599403
0
LINE
8
Layer 1
10
28.435600
20
19.033100
11
29.751000
21
19.033100
0
LINE
8
Layer 1
10
30.007600
20
17.096900
11
29.750970
21
17.475394
0
LINE
8
Layer 1
10
28.435400
20
14.498200
11
28.608071
21
14.081335
0
LINE
8
Layer 1
10
28.608071
20
14.081335
11
29.024934
21
13.908661
0
LINE
8
Layer 1
10
67.384600
20
17.461100
11
67.079225
21
17.094076
0
LINE
8
Layer 1
10
126.953000
20
58.964900
11
89.879800
21
58.967800
0
LINE
8
Layer 1
10
86.996000
20
60.903300
11
86.996000
21
63.633000
0
LINE
8
Layer 1
10
94.062600
20
80.470200
11
94.062600
21
84.113200
0
LINE
8
Layer 1
10
126.959000
20
80.470200
11
95.002400
21
80.470200
0
LINE
8
Layer 1
10
88.308500
20
60.903300
11
88.308500
21
55.803600
0
LINE
8
Layer 1
10
129.022000
20
55.214300
11
129.439186
21
55.386831
0
LINE
8
Layer 1
10
129.439186
20
55.386831
11
129.612000
21
55.803900
0
LINE
8
Layer 1
10
129.022000
20
55.213700
11
88.897800
21
55.213700
0
LINE
8
Layer 1
10
127.258000
20
80.052300
11
126.959076
21
80.470220
0
LINE
8
Layer 1
10
95.002400
20
80.470200
11
94.062600
21
80.470200
0
LINE
8
Layer 1
10
127.258000
20
80.052300
11
127.258000
21
59.331900
0
LINE
8
Layer 1
10
129.022000
20
84.113200
11
94.062600
21
84.113200
0
LINE
8
Layer 1
10
129.612000
20
83.524000
11
129.439328
21
83.941328
0
LINE
8
Layer 1
10
129.439328
20
83.941328
11
129.022000
21
84.114000
0
LINE
8
Layer 1
10
129.612000
20
83.524000
11
129.611153
21
55.803600
0
LINE
8
Layer 1
10
89.623200
20
63.633000
11
86.996000
21
63.633000
0
LINE
8
Layer 1
10
88.308500
20
60.903300
11
86.996000
21
60.903300
0
LINE
8
Layer 1
10
89.879800
20
58.967800
11
89.623200
21
59.345600
0
LINE
8
Layer 1
10
89.623200
20
59.345600
11
89.623200
21
63.633000
0
LINE
8
Layer 1
10
88.308800
20
55.803900
11
88.481498
21
55.387015
0
LINE
8
Layer 1
10
88.481498
20
55.387015
11
88.898404
21
55.214369
0
LINE
8
Layer 1
10
127.258000
20
59.331900
11
126.953341
21
58.964876
0
LINE
8
Layer 1
10
126.476000
20
17.388000
11
89.403100
21
17.390800
0
LINE
8
Layer 1
10
86.518600
20
19.326300
11
86.518600
21
22.056100
0
LINE
8
Layer 1
10
93.585900
20
38.893300
11
93.585900
21
41.972100
0
LINE
8
Layer 1
10
126.481000
20
38.893300
11
94.525700
21
38.893300
0
LINE
8
Layer 1
10
87.831800
20
19.326300
11
87.831800
21
14.791600
0
LINE
8
Layer 1
10
127.972000
20
14.202200
11
128.389141
21
14.374722
0
LINE
8
Layer 1
10
128.389141
20
14.374722
11
128.561963
21
14.791739
0
LINE
8
Layer 1
10
127.972000
20
14.201600
11
88.421100
21
14.201600
0
LINE
8
Layer 1
10
126.781000
20
38.475400
11
126.481359
21
38.893320
0
LINE
8
Layer 1
10
94.525700
20
38.893300
11
93.585900
21
38.893300
0
LINE
8
Layer 1
10
126.781000
20
38.475400
11
126.781000
21
17.755000
0
LINE
8
Layer 1
10
127.972000
20
41.972100
11
93.585900
21
41.972100
0
LINE
8
Layer 1
10
128.562000
20
41.382700
11
128.389175
21
41.799712
0
LINE
8
Layer 1
10
128.389175
20
41.799712
11
127.972037
21
41.972231
0
LINE
8
Layer 1
10
128.561000
20
41.382200
11
128.561000
21
14.791600
0
LINE
8
Layer 1
10
89.146500
20
22.056100
11
86.518600
21
22.056100
0
LINE
8
Layer 1
10
87.831800
20
19.326300
11
86.518600
21
19.326300
0
LINE
8
Layer 1
10
89.403100
20
17.390800
11
89.146470
21
17.768577
0
LINE
8
Layer 1
10
89.146500
20
17.768600
11
89.146500
21
22.056100
0
LINE
8
Layer 1
10
87.831900
20
14.791700
11
88.004571
21
14.374835
0
LINE
8
Layer 1
10
88.004571
20
14.374835
11
88.421434
21
14.202161
0
LINE
8
Layer 1
10
126.781000
20
17.755000
11
126.476341
21
17.387976
0
LINE
8
Layer 1
10
139.859000
20
97.144000
11
139.442431
21
96.971323
0
LINE
8
Layer 1
10
139.442431
20
96.971323
11
139.269754
21
96.554754
0
LINE
8
Layer 1
10
139.269000
20
96.554100
11
139.269000
21
94.386300
0
LINE
8
Layer 1
10
178.847000
20
97.144000
11
139.859000
21
97.144000
0
LINE
8
Layer 1
10
179.437000
20
96.554800
11
179.264328
21
96.971374
0
LINE
8
Layer 1
10
179.264328
20
96.971374
11
178.847754
21
97.144046
0
LINE
8
Layer 1
10
179.437000
20
96.554100
11
179.438411
21
94.386360
0
LINE
8
Layer 1
10
139.269000
20
94.386300
11
179.438000
21
94.386300
0
LINE
8
Layer 1
10
139.729000
20
41.303300
11
141.659460
21
41.300421
0
LINE
8
Layer 1
10
178.717000
20
14.661100
11
139.729000
21
14.661100
0
LINE
8
Layer 1
10
178.717000
20
41.303300
11
144.891000
21
41.303300
0
LINE
8
Layer 1
10
179.307000
20
25.030300
11
179.307000
21
15.250300
0
LINE
8
Layer 1
10
179.307000
20
40.714100
11
179.134430
21
41.130860
0
LINE
8
Layer 1
10
179.134430
20
41.130860
11
178.717754
21
41.303634
0
LINE
8
Layer 1
10
179.307000
20
40.714100
11
179.307000
21
25.030300
0
LINE
8
Layer 1
10
178.718000
20
14.661400
11
179.134688
21
14.834187
0
LINE
8
Layer 1
10
179.134688
20
14.834187
11
179.307246
21
15.250970
0
LINE
8
Layer 1
10
139.729000
20
41.303600
11
139.312329
21
41.130821
0
LINE
8
Layer 1
10
139.312329
20
41.130821
11
139.139754
21
40.714066
0
LINE
8
Layer 1
10
139.139000
20
40.714100
11
139.139000
21
15.250300
0
LINE
8
Layer 1
10
139.140000
20
15.250600
11
139.312581
21
14.833859
0
LINE
8
Layer 1
10
139.312581
20
14.833859
11
139.729246
21
14.661095
0
LINE
8
Layer 1
10
141.660000
20
35.043800
11
141.660000
21
41.300500
0
LINE
8
Layer 1
10
141.660000
20
35.043800
11
144.891530
21
35.040921
0
LINE
8
Layer 1
10
144.891000
20
35.041000
11
144.891000
21
41.303300
0
LINE
8
Layer 1
10
138.992000
20
73.688200
11
138.992000
21
74.777800
0
LINE
8
Layer 1
10
139.498000
20
73.688200
11
138.992000
21
73.688200
0
LINE
8
Layer 1
10
139.498000
20
74.777800
11
139.498000
21
73.688200
0
LINE
8
Layer 1
10
138.992000
20
74.777800
11
139.498000
21
74.777800
0
LINE
8
Layer 1
10
138.575000
20
57.524100
11
138.575000
21
65.029400
0
LINE
8
Layer 1
10
142.636000
20
65.029400
11
138.575000
21
65.029400
0
LINE
8
Layer 1
10
142.636000
20
67.354900
11
142.636000
21
65.029400
0
LINE
8
Layer 1
10
138.575000
20
67.354900
11
142.636000
21
67.354900
0
LINE
8
Layer 1
10
151.356000
20
76.400700
11
155.308000
21
76.400700
0
LINE
8
Layer 1
10
145.980000
20
76.400700
11
149.931000
21
76.400700
0
LINE
8
Layer 1
10
156.733000
20
76.400700
11
160.684000
21
76.400700
0
LINE
8
Layer 1
10
160.684000
20
80.351200
11
156.733000
21
80.351200
0
LINE
8
Layer 1
10
162.109000
20
69.598600
11
162.109000
21
65.648100
0
LINE
8
Layer 1
10
166.060000
20
69.598600
11
162.109000
21
69.598600
0
LINE
8
Layer 1
10
155.308000
20
80.351200
11
151.356000
21
80.351200
0
LINE
8
Layer 1
10
176.813000
20
74.974900
11
172.862000
21
74.974900
0
LINE
8
Layer 1
10
145.980000
20
69.598600
11
145.980000
21
65.648100
0
LINE
8
Layer 1
10
155.308000
20
64.222300
11
151.356000
21
64.222300
0
LINE
8
Layer 1
10
151.356000
20
80.351200
11
151.356000
21
76.400700
0
LINE
8
Layer 1
10
167.485000
20
64.222300
11
167.485000
21
60.271700
0
LINE
8
Layer 1
10
149.931000
20
65.648100
11
149.931000
21
69.598600
0
LINE
8
Layer 1
10
171.437000
20
60.271700
11
171.437000
21
64.222300
0
LINE
8
Layer 1
10
166.060000
20
65.648100
11
166.060000
21
69.598600
0
LINE
8
Layer 1
10
162.109000
20
76.400700
11
166.060000
21
76.400700
0
LINE
8
Layer 1
10
144.555000
20
60.271700
11
144.555000
21
64.222300
0
LINE
8
Layer 1
10
171.437000
20
64.222300
11
167.485000
21
64.222300
0
LINE
8
Layer 1
10
160.684000
20
64.222300
11
156.733000
21
64.222300
0
LINE
8
Layer 1
10
167.485000
20
60.271700
11
171.437000
21
60.271700
0
LINE
8
Layer 1
10
171.437000
20
71.024400
11
171.437000
21
74.974900
0
LINE
8
Layer 1
10
144.555000
20
64.222300
11
140.604000
21
64.222300
0
LINE
8
Layer 1
10
140.604000
20
60.271700
11
144.555000
21
60.271700
0
LINE
8
Layer 1
10
162.109000
20
80.351200
11
162.109000
21
76.400700
0
LINE
8
Layer 1
10
155.308000
20
71.024400
11
155.308000
21
74.974900
0
LINE
8
Layer 1
10
155.308000
20
74.974900
11
151.356000
21
74.974900
0
LINE
8
Layer 1
10
160.684000
20
65.648100
11
160.684000
21
69.598600
0
LINE
8
Layer 1
10
149.931000
20
71.024400
11
149.931000
21
74.974900
0
LINE
8
Layer 1
10
149.931000
20
74.974900
11
145.980000
21
74.974900
0
LINE
8
Layer 1
10
145.980000
20
74.974900
11
145.980000
21
71.024400
0
LINE
8
Layer 1
10
145.980000
20
71.024400
11
149.931000
21
71.024400
0
LINE
8
Layer 1
10
156.733000
20
69.598600
11
156.733000
21
65.648100
0
LINE
8
Layer 1
10
172.862000
20
69.598600
11
172.862000
21
65.648100
0
LINE
8
Layer 1
10
151.356000
20
65.648100
11
155.308000
21
65.648100
0
LINE
8
Layer 1
10
156.733000
20
80.351200
11
156.733000
21
76.400700
0
LINE
8
Layer 1
10
155.308000
20
69.598600
11
151.356000
21
69.598600
0
LINE
8
Layer 1
10
160.684000
20
69.598600
11
156.733000
21
69.598600
0
LINE
8
Layer 1
10
145.980000
20
80.351200
11
145.980000
21
76.400700
0
LINE
8
Layer 1
10
162.109000
20
64.222300
11
162.109000
21
60.271700
0
LINE
8
Layer 1
10
166.060000
20
64.222300
11
162.109000
21
64.222300
0
LINE
8
Layer 1
10
160.684000
20
76.400700
11
160.684000
21
80.351200
0
LINE
8
Layer 1
10
151.356000
20
69.598600
11
151.356000
21
65.648100
0
LINE
8
Layer 1
10
156.733000
20
65.648100
11
160.684000
21
65.648100
0
LINE
8
Layer 1
10
149.931000
20
80.351200
11
145.980000
21
80.351200
0
LINE
8
Layer 1
10
151.356000
20
74.974900
11
151.356000
21
71.024400
0
LINE
8
Layer 1
10
176.813000
20
60.271700
11
176.813000
21
64.222300
0
LINE
8
Layer 1
10
176.813000
20
69.598600
11
172.862000
21
69.598600
0
LINE
8
Layer 1
10
176.813000
20
64.222300
11
172.862000
21
64.222300
0
LINE
8
Layer 1
10
167.485000
20
69.598600
11
167.485000
21
65.648100
0
LINE
8
Layer 1
10
171.437000
20
69.598600
11
167.485000
21
69.598600
0
LINE
8
Layer 1
10
166.060000
20
60.271700
11
166.060000
21
64.222300
0
LINE
8
Layer 1
10
167.485000
20
65.648100
11
171.437000
21
65.648100
0
LINE
8
Layer 1
10
176.813000
20
65.648100
11
176.813000
21
69.598600
0
LINE
8
Layer 1
10
171.437000
20
65.648100
11
171.437000
21
69.598600
0
LINE
8
Layer 1
10
151.356000
20
71.024400
11
155.308000
21
71.024400
0
LINE
8
Layer 1
10
160.684000
20
71.024400
11
160.684000
21
74.974900
0
LINE
8
Layer 1
10
160.684000
20
74.974900
11
156.733000
21
74.974900
0
LINE
8
Layer 1
10
156.733000
20
71.024400
11
160.684000
21
71.024400
0
LINE
8
Layer 1
10
156.733000
20
74.974900
11
156.733000
21
71.024400
0
LINE
8
Layer 1
10
155.308000
20
65.648100
11
155.308000
21
69.598600
0
LINE
8
Layer 1
10
172.862000
20
65.648100
11
176.813000
21
65.648100
0
LINE
8
Layer 1
10
149.931000
20
64.222300
11
145.980000
21
64.222300
0
LINE
8
Layer 1
10
145.980000
20
60.271700
11
149.931000
21
60.271700
0
LINE
8
Layer 1
10
149.931000
20
60.271700
11
149.931000
21
64.222300
0
LINE
8
Layer 1
10
145.980000
20
64.222300
11
145.980000
21
60.271700
0
LINE
8
Layer 1
10
172.862000
20
64.222300
11
172.862000
21
60.271700
0
LINE
8
Layer 1
10
162.109000
20
60.271700
11
166.060000
21
60.271700
0
LINE
8
Layer 1
10
172.862000
20
60.271700
11
176.813000
21
60.271700
0
LINE
8
Layer 1
10
162.109000
20
65.648100
11
166.060000
21
65.648100
0
LINE
8
Layer 1
10
145.980000
20
65.648100
11
149.931000
21
65.648100
0
LINE
8
Layer 1
10
140.604000
20
64.222300
11
140.604000
21
60.271700
0
LINE
8
Layer 1
10
156.733000
20
60.271700
11
160.684000
21
60.271700
0
LINE
8
Layer 1
10
171.437000
20
74.974900
11
167.485000
21
74.974900
0
LINE
8
Layer 1
10
167.485000
20
74.974900
11
167.485000
21
71.024400
0
LINE
8
Layer 1
10
166.060000
20
71.024400
11
166.060000
21
74.974900
0
LINE
8
Layer 1
10
160.684000
20
60.271700
11
160.684000
21
64.222300
0
LINE
8
Layer 1
10
166.060000
20
74.974900
11
162.109000
21
74.974900
0
LINE
8
Layer 1
10
162.109000
20
71.024400
11
166.060000
21
71.024400
0
LINE
8
Layer 1
10
176.813000
20
80.351200
11
172.862000
21
80.351200
0
LINE
8
Layer 1
10
167.485000
20
76.400700
11
171.437000
21
76.400700
0
LINE
8
Layer 1
10
176.813000
20
76.400700
11
176.813000
21
80.351200
0
LINE
8
Layer 1
10
162.109000
20
74.974900
11
162.109000
21
71.024400
0
LINE
8
Layer 1
10
172.862000
20
71.024400
11
176.813000
21
71.024400
0
LINE
8
Layer 1
10
167.485000
20
71.024400
11
171.437000
21
71.024400
0
LINE
8
Layer 1
10
172.862000
20
80.351200
11
172.862000
21
76.400700
0
LINE
8
Layer 1
10
151.356000
20
60.271700
11
155.308000
21
60.271700
0
LINE
8
Layer 1
10
155.308000
20
60.271700
11
155.308000
21
64.222300
0
LINE
8
Layer 1
10
171.437000
20
80.351200
11
167.485000
21
80.351200
0
LINE
8
Layer 1
10
151.356000
20
64.222300
11
151.356000
21
60.271700
0
LINE
8
Layer 1
10
166.060000
20
76.400700
11
166.060000
21
80.351200
0
LINE
8
Layer 1
10
172.862000
20
76.400700
11
176.813000
21
76.400700
0
LINE
8
Layer 1
10
149.931000
20
69.598600
11
145.980000
21
69.598600
0
LINE
8
Layer 1
10
176.813000
20
71.024400
11
176.813000
21
74.974900
0
LINE
8
Layer 1
10
172.862000
20
74.974900
11
172.862000
21
71.024400
0
LINE
8
Layer 1
10
155.308000
20
76.400700
11
155.308000
21
80.351200
0
LINE
8
Layer 1
10
156.733000
20
64.222300
11
156.733000
21
60.271700
0
LINE
8
Layer 1
10
167.485000
20
80.351200
11
167.485000
21
76.400700
0
LINE
8
Layer 1
10
171.437000
20
76.400700
11
171.437000
21
80.351200
0
LINE
8
Layer 1
10
166.060000
20
80.351200
11
162.109000
21
80.351200
0
LINE
8
Layer 1
10
139.164000
20
83.577000
11
141.094460
21
83.574133
0
LINE
8
Layer 1
10
178.153000
20
56.934800
11
139.164000
21
56.934800
0
LINE
8
Layer 1
10
178.153000
20
83.577000
11
141.095000
21
83.574200
0
LINE
8
Layer 1
10
178.742000
20
67.304000
11
178.742000
21
57.524800
0
LINE
8
Layer 1
10
178.743000
20
82.987800
11
178.570328
21
83.405128
0
LINE
8
Layer 1
10
178.570328
20
83.405128
11
178.153000
21
83.577800
0
LINE
8
Layer 1
10
178.742000
20
82.987800
11
178.742000
21
67.304000
0
LINE
8
Layer 1
10
178.153000
20
56.935500
11
178.570138
21
57.108020
0
LINE
8
Layer 1
10
178.570138
20
57.108020
11
178.742963
21
57.525032
0
LINE
8
Layer 1
10
139.165000
20
83.577800
11
138.747714
21
83.405123
0
LINE
8
Layer 1
10
138.747714
20
83.405123
11
138.575037
21
82.987837
0
LINE
8
Layer 1
10
138.575000
20
82.987800
11
138.575000
21
67.354900
0
LINE
8
Layer 1
10
138.575000
20
57.524700
11
138.747825
21
57.107688
0
LINE
8
Layer 1
10
138.747825
20
57.107688
11
139.164963
21
56.935168
0
LINE
8
Layer 1
10
149.931000
20
76.400700
11
149.931000
21
80.351200
0
LINE
8
Layer 1
10
5400.880000
20
-3423.070000
11
5330.890000
21
-3423.070000
0
LINE
8
Layer 1
10
5331.120000
20
-3423.100000
11
5324.892338
21
-3423.341569
0
LINE
8
Layer 1
10
5324.892338
20
-3423.341569
11
5318.749092
21
-3423.889304
0
LINE
8
Layer 1
10
5318.749092
20
-3423.889304
11
5312.697692
21
-3424.735674
0
LINE
8
Layer 1
10
5312.697692
20
-3424.735674
11
5306.745567
21
-3425.873147
0
LINE
8
Layer 1
10
5306.745567
20
-3425.873147
11
5300.900146
21
-3427.294190
0
LINE
8
Layer 1
10
5300.900146
20
-3427.294190
11
5295.168859
21
-3428.991273
0
LINE
8
Layer 1
10
5295.168859
20
-3428.991273
11
5289.559135
21
-3430.956862
0
LINE
8
Layer 1
10
5289.559135
20
-3430.956862
11
5284.078404
21
-3433.183427
0
LINE
8
Layer 1
10
5284.078404
20
-3433.183427
11
5278.734094
21
-3435.663434
0
LINE
8
Layer 1
10
5278.734094
20
-3435.663434
11
5273.533635
21
-3438.389353
0
LINE
8
Layer 1
10
5273.533635
20
-3438.389353
11
5268.484456
21
-3441.353651
0
LINE
8
Layer 1
10
5268.484456
20
-3441.353651
11
5263.593986
21
-3444.548797
0
LINE
8
Layer 1
10
5263.593986
20
-3444.548797
11
5258.869656
21
-3447.967258
0
LINE
8
Layer 1
10
5258.869656
20
-3447.967258
11
5254.318893
21
-3451.601502
0
LINE
8
Layer 1
10
5254.318893
20
-3451.601502
11
5249.949128
21
-3455.443999
0
LINE
8
Layer 1
10
5249.949128
20
-3455.443999
11
5245.767790
21
-3459.487214
0
LINE
8
Layer 1
10
5245.767790
20
-3459.487214
11
5241.782308
21
-3463.723618
0
LINE
8
Layer 1
10
5241.782308
20
-3463.723618
11
5238.000111
21
-3468.145678
0
LINE
8
Layer 1
10
5238.000111
20
-3468.145678
11
5234.428629
21
-3472.745861
0
LINE
8
Layer 1
10
5234.428629
20
-3472.745861
11
5231.075291
21
-3477.516636
0
LINE
8
Layer 1
10
5231.075291
20
-3477.516636
11
5227.947526
21
-3482.450472
0
LINE
8
Layer 1
10
5227.947526
20
-3482.450472
11
5225.052764
21
-3487.539836
0
LINE
8
Layer 1
10
5225.052764
20
-3487.539836
11
5222.398434
21
-3492.777196
0
LINE
8
Layer 1
10
5222.398434
20
-3492.777196
11
5219.991965
21
-3498.155020
0
LINE
8
Layer 1
10
5219.991965
20
-3498.155020
11
5217.840786
21
-3503.665777
0
LINE
8
Layer 1
10
5217.840786
20
-3503.665777
11
5215.952328
21
-3509.301934
0
LINE
8
Layer 1
10
5215.952328
20
-3509.301934
11
5214.334018
21
-3515.055960
0
LINE
8
Layer 1
10
5214.334018
20
-3515.055960
11
5212.993287
21
-3520.920322
0
LINE
8
Layer 1
10
5212.993287
20
-3520.920322
11
5211.937564
21
-3526.887489
0
LINE
8
Layer 1
10
5211.937564
20
-3526.887489
11
5211.174277
21
-3532.949929
0
LINE
8
Layer 1
10
5211.174277
20
-3532.949929
11
5210.710857
21
-3539.100110
0
LINE
8
Layer 1
10
5210.710857
20
-3539.100110
11
5210.554733
21
-3545.330500
0
LINE
8
Layer 1
10
5210.554733
20
-3545.330500
11
5210.710857
21
-3551.560890
0
LINE
8
Layer 1
10
5210.710857
20
-3551.560890
11
5211.174277
21
-3557.711071
0
LINE
8
Layer 1
10
5211.174277
20
-3557.711071
11
5211.937564
21
-3563.773511
0
LINE
8
Layer 1
10
5211.937564
20
-3563.773511
11
5212.993287
21
-3569.740678
0
LINE
8
Layer 1
10
5212.993287
20
-3569.740678
11
5214.334018
21
-3575.605040
0
LINE
8
Layer 1
10
5214.334018
20
-3575.605040
11
5215.952328
21
-3581.359066
0
LINE
8
Layer 1
10
5215.952328
20
-3581.359066
11
5217.840786
21
-3586.995223
0
LINE
8
Layer 1
10
5217.840786
20
-3586.995223
11
5219.991965
21
-3592.505980
0
LINE
8
Layer 1
10
5219.991965
20
-3592.505980
11
5222.398434
21
-3597.883804
0
LINE
8
Layer 1
10
5222.398434
20
-3597.883804
11
5225.052764
21
-3603.121164
0
LINE
8
Layer 1
10
5225.052764
20
-3603.121164
11
5227.947526
21
-3608.210528
0
LINE
8
Layer 1
10
5227.947526
20
-3608.210528
11
5231.075291
21
-3613.144364
0
LINE
8
Layer 1
10
5231.075291
20
-3613.144364
11
5234.428629
21
-3617.915139
0
LINE
8
Layer 1
10
5234.428629
20
-3617.915139
11
5238.000111
21
-3622.515322
0
LINE
8
Layer 1
10
5238.000111
20
-3622.515322
11
5241.782308
21
-3626.937382
0
LINE
8
Layer 1
10
5241.782308
20
-3626.937382
11
5245.767790
21
-3631.173786
0
LINE
8
Layer 1
10
5245.767790
20
-3631.173786
11
5249.949128
21
-3635.217001
0
LINE
8
Layer 1
10
5249.949128
20
-3635.217001
11
5254.318893
21
-3639.059498
0
LINE
8
Layer 1
10
5254.318893
20
-3639.059498
11
5258.869656
21
-3642.693742
0
LINE
8
Layer 1
10
5258.869656
20
-3642.693742
11
5263.593986
21
-3646.112203
0
LINE
8
Layer 1
10
5263.593986
20
-3646.112203
11
5268.484456
21
-3649.307349
0
LINE
8
Layer 1
10
5268.484456
20
-3649.307349
11
5273.533635
21
-3652.271647
0
LINE
8
Layer 1
10
5273.533635
20
-3652.271647
11
5278.734094
21
-3654.997566
0
LINE
8
Layer 1
10
5278.734094
20
-3654.997566
11
5284.078404
21
-3657.477573
0
LINE
8
Layer 1
10
5284.078404
20
-3657.477573
11
5289.559135
21
-3659.704138
0
LINE
8
Layer 1
10
5289.559135
20
-3659.704138
11
5295.168859
21
-3661.669727
0
LINE
8
Layer 1
10
5295.168859
20
-3661.669727
11
5300.900146
21
-3663.366810
0
LINE
8
Layer 1
10
5300.900146
20
-3663.366810
11
5306.745567
21
-3664.787853
0
LINE
8
Layer 1
10
5306.745567
20
-3664.787853
11
5312.697692
21
-3665.925326
0
LINE
8
Layer 1
10
5312.697692
20
-3665.925326
11
5318.749092
21
-3666.771696
0
LINE
8
Layer 1
10
5318.749092
20
-3666.771696
11
5324.892338
21
-3667.319431
0
LINE
8
Layer 1
10
5324.892338
20
-3667.319431
11
5331.120000
21
-3667.561000
0
LINE
8
Layer 1
10
5400.880000
20
-3667.470000
11
5330.890000
21
-3667.470000
0
LINE
8
Layer 1
10
5401.110000
20
-3667.560000
11
5407.337662
21
-3667.318431
0
LINE
8
Layer 1
10
5407.337662
20
-3667.318431
11
5413.480908
21
-3666.770696
0
LINE
8
Layer 1
10
5413.480908
20
-3666.770696
11
5419.532308
21
-3665.924326
0
LINE
8
Layer 1
10
5419.532308
20
-3665.924326
11
5425.484433
21
-3664.786853
0
LINE
8
Layer 1
10
5425.484433
20
-3664.786853
11
5431.329854
21
-3663.365810
0
LINE
8
Layer 1
10
5431.329854
20
-3663.365810
11
5437.061141
21
-3661.668727
0
LINE
8
Layer 1
10
5437.061141
20
-3661.668727
11
5442.670865
21
-3659.703138
0
LINE
8
Layer 1
10
5442.670865
20
-3659.703138
11
5448.151596
21
-3657.476573
0
LINE
8
Layer 1
10
5448.151596
20
-3657.476573
11
5453.495906
21
-3654.996566
0
LINE
8
Layer 1
10
5453.495906
20
-3654.996566
11
5458.696365
21
-3652.270647
0
LINE
8
Layer 1
10
5458.696365
20
-3652.270647
11
5463.745544
21
-3649.306349
0
LINE
8
Layer 1
10
5463.745544
20
-3649.306349
11
5468.636014
21
-3646.111203
0
LINE
8
Layer 1
10
5468.636014
20
-3646.111203
11
5473.360344
21
-3642.692742
0
LINE
8
Layer 1
10
5473.360344
20
-3642.692742
11
5477.911107
21
-3639.058498
0
LINE
8
Layer 1
10
5477.911107
20
-3639.058498
11
5482.280872
21
-3635.216001
0
LINE
8
Layer 1
10
5482.280872
20
-3635.216001
11
5486.462210
21
-3631.172786
0
LINE
8
Layer 1
10
5486.462210
20
-3631.172786
11
5490.447692
21
-3626.936382
0
LINE
8
Layer 1
10
5490.447692
20
-3626.936382
11
5494.229889
21
-3622.514322
0
LINE
8
Layer 1
10
5494.229889
20
-3622.514322
11
5497.801371
21
-3617.914139
0
LINE
8
Layer 1
10
5497.801371
20
-3617.914139
11
5501.154709
21
-3613.143364
0
LINE
8
Layer 1
10
5501.154709
20
-3613.143364
11
5504.282474
21
-3608.209528
0
LINE
8
Layer 1
10
5504.282474
20
-3608.209528
11
5507.177236
21
-3603.120164
0
LINE
8
Layer 1
10
5507.177236
20
-3603.120164
11
5509.831566
21
-3597.882804
0
LINE
8
Layer 1
10
5509.831566
20
-3597.882804
11
5512.238035
21
-3592.504980
0
LINE
8
Layer 1
10
5512.238035
20
-3592.504980
11
5514.389214
21
-3586.994223
0
LINE
8
Layer 1
10
5514.389214
20
-3586.994223
11
5516.277672
21
-3581.358066
0
LINE
8
Layer 1
10
5516.277672
20
-3581.358066
11
5517.895982
21
-3575.604040
0
LINE
8
Layer 1
10
5517.895982
20
-3575.604040
11
5519.236713
21
-3569.739678
0
LINE
8
Layer 1
10
5519.236713
20
-3569.739678
11
5520.292436
21
-3563.772511
0
LINE
8
Layer 1
10
5520.292436
20
-3563.772511
11
5521.055723
21
-3557.710071
0
LINE
8
Layer 1
10
5521.055723
20
-3557.710071
11
5521.519143
21
-3551.559890
0
LINE
8
Layer 1
10
5521.519143
20
-3551.559890
11
5521.675267
21
-3545.329500
0
LINE
8
Layer 1
10
5521.675267
20
-3545.329500
11
5521.519143
21
-3539.099110
0
LINE
8
Layer 1
10
5521.519143
20
-3539.099110
11
5521.055723
21
-3532.948929
0
LINE
8
Layer 1
10
5521.055723
20
-3532.948929
11
5520.292436
21
-3526.886489
0
LINE
8
Layer 1
10
5520.292436
20
-3526.886489
11
5519.236713
21
-3520.919322
0
LINE
8
Layer 1
10
5519.236713
20
-3520.919322
11
5517.895982
21
-3515.054960
0
LINE
8
Layer 1
10
5517.895982
20
-3515.054960
11
5516.277672
21
-3509.300934
0
LINE
8
Layer 1
10
5516.277672
20
-3509.300934
11
5514.389214
21
-3503.664777
0
LINE
8
Layer 1
10
5514.389214
20
-3503.664777
11
5512.238035
21
-3498.154020
0
LINE
8
Layer 1
10
5512.238035
20
-3498.154020
11
5509.831566
21
-3492.776196
0
LINE
8
Layer 1
10
5509.831566
20
-3492.776196
11
5507.177236
21
-3487.538836
0
LINE
8
Layer 1
10
5507.177236
20
-3487.538836
11
5504.282474
21
-3482.449472
0
LINE
8
Layer 1
10
5504.282474
20
-3482.449472
11
5501.154709
21
-3477.515636
0
LINE
8
Layer 1
10
5501.154709
20
-3477.515636
11
5497.801371
21
-3472.744861
0
LINE
8
Layer 1
10
5497.801371
20
-3472.744861
11
5494.229889
21
-3468.144678
0
LINE
8
Layer 1
10
5494.229889
20
-3468.144678
11
5490.447692
21
-3463.722618
0
LINE
8
Layer 1
10
5490.447692
20
-3463.722618
11
5486.462210
21
-3459.486214
0
LINE
8
Layer 1
10
5486.462210
20
-3459.486214
11
5482.280872
21
-3455.442999
0
LINE
8
Layer 1
10
5482.280872
20
-3455.442999
11
5477.911107
21
-3451.600502
0
LINE
8
Layer 1
10
5477.911107
20
-3451.600502
11
5473.360344
21
-3447.966258
0
LINE
8
Layer 1
10
5473.360344
20
-3447.966258
11
5468.636014
21
-3444.547797
0
LINE
8
Layer 1
10
5468.636014
20
-3444.547797
11
5463.745544
21
-3441.352651
0
LINE
8
Layer 1
10
5463.745544
20
-3441.352651
11
5458.696365
21
-3438.388353
0
LINE
8
Layer 1
10
5458.696365
20
-3438.388353
11
5453.495906
21
-3435.662434
0
LINE
8
Layer 1
10
5453.495906
20
-3435.662434
11
5448.151596
21
-3433.182427
0
LINE
8
Layer 1
10
5448.151596
20
-3433.182427
11
5442.670865
21
-3430.955862
0
LINE
8
Layer 1
10
5442.670865
20
-3430.955862
11
5437.061141
21
-3428.990273
0
LINE
8
Layer 1
10
5437.061141
20
-3428.990273
11
5431.329854
21
-3427.293190
0
LINE
8
Layer 1
10
5431.329854
20
-3427.293190
11
5425.484433
21
-3425.872147
0
LINE
8
Layer 1
10
5425.484433
20
-3425.872147
11
5419.532308
21
-3424.734674
0
LINE
8
Layer 1
10
5419.532308
20
-3424.734674
11
5413.480908
21
-3423.888304
0
LINE
8
Layer 1
10
5413.480908
20
-3423.888304
11
5407.337662
21
-3423.340569
0
LINE
8
Layer 1
10
5407.337662
20
-3423.340569
11
5401.110000
21
-3423.099000
0
LINE
8
Layer 1
10
3547.530000
20
-3423.070000
11
3477.540000
21
-3423.070000
0
LINE
8
Layer 1
10
3547.530000
20
-3667.470000
11
3477.540000
21
-3667.470000
0
LINE
8
Layer 1
10
3547.780000
20
-3667.560000
11
3554.007662
21
-3667.318431
0
LINE
8
Layer 1
10
3554.007662
20
-3667.318431
11
3560.150908
21
-3666.770696
0
LINE
8
Layer 1
10
3560.150908
20
-3666.770696
11
3566.202308
21
-3665.924326
0
LINE
8
Layer 1
10
3566.202308
20
-3665.924326
11
3572.154433
21
-3664.786853
0
LINE
8
Layer 1
10
3572.154433
20
-3664.786853
11
3577.999854
21
-3663.365810
0
LINE
8
Layer 1
10
3577.999854
20
-3663.365810
11
3583.731141
21
-3661.668727
0
LINE
8
Layer 1
10
3583.731141
20
-3661.668727
11
3589.340865
21
-3659.703138
0
LINE
8
Layer 1
10
3589.340865
20
-3659.703138
11
3594.821596
21
-3657.476573
0
LINE
8
Layer 1
10
3594.821596
20
-3657.476573
11
3600.165906
21
-3654.996566
0
LINE
8
Layer 1
10
3600.165906
20
-3654.996566
11
3605.366365
21
-3652.270647
0
LINE
8
Layer 1
10
3605.366365
20
-3652.270647
11
3610.415544
21
-3649.306349
0
LINE
8
Layer 1
10
3610.415544
20
-3649.306349
11
3615.306014
21
-3646.111203
0
LINE
8
Layer 1
10
3615.306014
20
-3646.111203
11
3620.030344
21
-3642.692742
0
LINE
8
Layer 1
10
3620.030344
20
-3642.692742
11
3624.581107
21
-3639.058498
0
LINE
8
Layer 1
10
3624.581107
20
-3639.058498
11
3628.950872
21
-3635.216001
0
LINE
8
Layer 1
10
3628.950872
20
-3635.216001
11
3633.132210
21
-3631.172786
0
LINE
8
Layer 1
10
3633.132210
20
-3631.172786
11
3637.117692
21
-3626.936382
0
LINE
8
Layer 1
10
3637.117692
20
-3626.936382
11
3640.899889
21
-3622.514322
0
LINE
8
Layer 1
10
3640.899889
20
-3622.514322
11
3644.471371
21
-3617.914139
0
LINE
8
Layer 1
10
3644.471371
20
-3617.914139
11
3647.824709
21
-3613.143364
0
LINE
8
Layer 1
10
3647.824709
20
-3613.143364
11
3650.952474
21
-3608.209528
0
LINE
8
Layer 1
10
3650.952474
20
-3608.209528
11
3653.847236
21
-3603.120164
0
LINE
8
Layer 1
10
3653.847236
20
-3603.120164
11
3656.501566
21
-3597.882804
0
LINE
8
Layer 1
10
3656.501566
20
-3597.882804
11
3658.908035
21
-3592.504980
0
LINE
8
Layer 1
10
3658.908035
20
-3592.504980
11
3661.059214
21
-3586.994223
0
LINE
8
Layer 1
10
3661.059214
20
-3586.994223
11
3662.947672
21
-3581.358066
0
LINE
8
Layer 1
10
3662.947672
20
-3581.358066
11
3664.565982
21
-3575.604040
0
LINE
8
Layer 1
10
3664.565982
20
-3575.604040
11
3665.906713
21
-3569.739678
0
LINE
8
Layer 1
10
3665.906713
20
-3569.739678
11
3666.962436
21
-3563.772511
0
LINE
8
Layer 1
10
3666.962436
20
-3563.772511
11
3667.725723
21
-3557.710071
0
LINE
8
Layer 1
10
3667.725723
20
-3557.710071
11
3668.189143
21
-3551.559890
0
LINE
8
Layer 1
10
3668.189143
20
-3551.559890
11
3668.345267
21
-3545.329500
0
LINE
8
Layer 1
10
3668.345267
20
-3545.329500
11
3668.189143
21
-3539.099110
0
LINE
8
Layer 1
10
3668.189143
20
-3539.099110
11
3667.725723
21
-3532.948929
0
LINE
8
Layer 1
10
3667.725723
20
-3532.948929
11
3666.962436
21
-3526.886489
0
LINE
8
Layer 1
10
3666.962436
20
-3526.886489
11
3665.906713
21
-3520.919322
0
LINE
8
Layer 1
10
3665.906713
20
-3520.919322
11
3664.565982
21
-3515.054960
0
LINE
8
Layer 1
10
3664.565982
20
-3515.054960
11
3662.947672
21
-3509.300934
0
LINE
8
Layer 1
10
3662.947672
20
-3509.300934
11
3661.059214
21
-3503.664777
0
LINE
8
Layer 1
10
3661.059214
20
-3503.664777
11
3658.908035
21
-3498.154020
0
LINE
8
Layer 1
10
3658.908035
20
-3498.154020
11
3656.501566
21
-3492.776196
0
LINE
8
Layer 1
10
3656.501566
20
-3492.776196
11
3653.847236
21
-3487.538836
0
LINE
8
Layer 1
10
3653.847236
20
-3487.538836
11
3650.952474
21
-3482.449472
0
LINE
8
Layer 1
10
3650.952474
20
-3482.449472
11
3647.824709
21
-3477.515636
0
LINE
8
Layer 1
10
3647.824709
20
-3477.515636
11
3644.471371
21
-3472.744861
0
LINE
8
Layer 1
10
3644.471371
20
-3472.744861
11
3640.899889
21
-3468.144678
0
LINE
8
Layer 1
10
3640.899889
20
-3468.144678
11
3637.117692
21
-3463.722618
0
LINE
8
Layer 1
10
3637.117692
20
-3463.722618
11
3633.132210
21
-3459.486214
0
LINE
8
Layer 1
10
3633.132210
20
-3459.486214
11
3628.950872
21
-3455.442999
0
LINE
8
Layer 1
10
3628.950872
20
-3455.442999
11
3624.581107
21
-3451.600502
0
LINE
8
Layer 1
10
3624.581107
20
-3451.600502
11
3620.030344
21
-3447.966258
0
LINE
8
Layer 1
10
3620.030344
20
-3447.966258
11
3615.306014
21
-3444.547797
0
LINE
8
Layer 1
10
3615.306014
20
-3444.547797
11
3610.415544
21
-3441.352651
0
LINE
8
Layer 1
10
3610.415544
20
-3441.352651
11
3605.366365
21
-3438.388353
0
LINE
8
Layer 1
10
3605.366365
20
-3438.388353
11
3600.165906
21
-3435.662434
0
LINE
8
Layer 1
10
3600.165906
20
-3435.662434
11
3594.821596
21
-3433.182427
0
LINE
8
Layer 1
10
3594.821596
20
-3433.182427
11
3589.340865
21
-3430.955862
0
LINE
8
Layer 1
10
3589.340865
20
-3430.955862
11
3583.731141
21
-3428.990273
0
LINE
8
Layer 1
10
3583.731141
20
-3428.990273
11
3577.999854
21
-3427.293190
0
LINE
8
Layer 1
10
3577.999854
20
-3427.293190
11
3572.154433
21
-3425.872147
0
LINE
8
Layer 1
10
3572.154433
20
-3425.872147
11
3566.202308
21
-3424.734674
0
LINE
8
Layer 1
10
3566.202308
20
-3424.734674
11
3560.150908
21
-3423.888304
0
LINE
8
Layer 1
10
3560.150908
20
-3423.888304
11
3554.007662
21
-3423.340569
0
LINE
8
Layer 1
10
3554.007662
20
-3423.340569
11
3547.780000
21
-3423.099000
0
LINE
8
Layer 1
10
3477.770000
20
-3423.100000
11
3471.542338
21
-3423.341569
0
LINE
8
Layer 1
10
3471.542338
20
-3423.341569
11
3465.399092
21
-3423.889304
0
LINE
8
Layer 1
10
3465.399092
20
-3423.889304
11
3459.347692
21
-3424.735674
0
LINE
8
Layer 1
10
3459.347692
20
-3424.735674
11
3453.395567
21
-3425.873147
0
LINE
8
Layer 1
10
3453.395567
20
-3425.873147
11
3447.550146
21
-3427.294190
0
LINE
8
Layer 1
10
3447.550146
20
-3427.294190
11
3441.818859
21
-3428.991273
0
LINE
8
Layer 1
10
3441.818859
20
-3428.991273
11
3436.209135
21
-3430.956862
0
LINE
8
Layer 1
10
3436.209135
20
-3430.956862
11
3430.728404
21
-3433.183427
0
LINE
8
Layer 1
10
3430.728404
20
-3433.183427
11
3425.384094
21
-3435.663434
0
LINE
8
Layer 1
10
3425.384094
20
-3435.663434
11
3420.183635
21
-3438.389353
0
LINE
8
Layer 1
10
3420.183635
20
-3438.389353
11
3415.134456
21
-3441.353651
0
LINE
8
Layer 1
10
3415.134456
20
-3441.353651
11
3410.243986
21
-3444.548797
0
LINE
8
Layer 1
10
3410.243986
20
-3444.548797
11
3405.519656
21
-3447.967258
0
LINE
8
Layer 1
10
3405.519656
20
-3447.967258
11
3400.968893
21
-3451.601502
0
LINE
8
Layer 1
10
3400.968893
20
-3451.601502
11
3396.599128
21
-3455.443999
0
LINE
8
Layer 1
10
3396.599128
20
-3455.443999
11
3392.417790
21
-3459.487214
0
LINE
8
Layer 1
10
3392.417790
20
-3459.487214
11
3388.432308
21
-3463.723618
0
LINE
8
Layer 1
10
3388.432308
20
-3463.723618
11
3384.650111
21
-3468.145678
0
LINE
8
Layer 1
10
3384.650111
20
-3468.145678
11
3381.078629
21
-3472.745861
0
LINE
8
Layer 1
10
3381.078629
20
-3472.745861
11
3377.725291
21
-3477.516636
0
LINE
8
Layer 1
10
3377.725291
20
-3477.516636
11
3374.597526
21
-3482.450472
0
LINE
8
Layer 1
10
3374.597526
20
-3482.450472
11
3371.702764
21
-3487.539836
0
LINE
8
Layer 1
10
3371.702764
20
-3487.539836
11
3369.048434
21
-3492.777196
0
LINE
8
Layer 1
10
3369.048434
20
-3492.777196
11
3366.641965
21
-3498.155020
0
LINE
8
Layer 1
10
3366.641965
20
-3498.155020
11
3364.490786
21
-3503.665777
0
LINE
8
Layer 1
10
3364.490786
20
-3503.665777
11
3362.602328
21
-3509.301934
0
LINE
8
Layer 1
10
3362.602328
20
-3509.301934
11
3360.984018
21
-3515.055960
0
LINE
8
Layer 1
10
3360.984018
20
-3515.055960
11
3359.643287
21
-3520.920322
0
LINE
8
Layer 1
10
3359.643287
20
-3520.920322
11
3358.587564
21
-3526.887489
0
LINE
8
Layer 1
10
3358.587564
20
-3526.887489
11
3357.824277
21
-3532.949929
0
LINE
8
Layer 1
10
3357.824277
20
-3532.949929
11
3357.360857
21
-3539.100110
0
LINE
8
Layer 1
10
3357.360857
20
-3539.100110
11
3357.204733
21
-3545.330500
0
LINE
8
Layer 1
10
3357.204733
20
-3545.330500
11
3357.360857
21
-3551.560890
0
LINE
8
Layer 1
10
3357.360857
20
-3551.560890
11
3357.824277
21
-3557.711071
0
LINE
8
Layer 1
10
3357.824277
20
-3557.711071
11
3358.587564
21
-3563.773511
0
LINE
8
Layer 1
10
3358.587564
20
-3563.773511
11
3359.643287
21
-3569.740678
0
LINE
8
Layer 1
10
3359.643287
20
-3569.740678
11
3360.984018
21
-3575.605040
0
LINE
8
Layer 1
10
3360.984018
20
-3575.605040
11
3362.602328
21
-3581.359066
0
LINE
8
Layer 1
10
3362.602328
20
-3581.359066
11
3364.490786
21
-3586.995223
0
LINE
8
Layer 1
10
3364.490786
20
-3586.995223
11
3366.641965
21
-3592.505980
0
LINE
8
Layer 1
10
3366.641965
20
-3592.505980
11
3369.048434
21
-3597.883804
0
LINE
8
Layer 1
10
3369.048434
20
-3597.883804
11
3371.702764
21
-3603.121164
0
LINE
8
Layer 1
10
3371.702764
20
-3603.121164
11
3374.597526
21
-3608.210528
0
LINE
8
Layer 1
10
3374.597526
20
-3608.210528
11
3377.725291
21
-3613.144364
0
LINE
8
Layer 1
10
3377.725291
20
-3613.144364
11
3381.078629
21
-3617.915139
0
LINE
8
Layer 1
10
3381.078629
20
-3617.915139
11
3384.650111
21
-3622.515322
0
LINE
8
Layer 1
10
3384.650111
20
-3622.515322
11
3388.432308
21
-3626.937382
0
LINE
8
Layer 1
10
3388.432308
20
-3626.937382
11
3392.417790
21
-3631.173786
0
LINE
8
Layer 1
10
3392.417790
20
-3631.173786
11
3396.599128
21
-3635.217001
0
LINE
8
Layer 1
10
3396.599128
20
-3635.217001
11
3400.968893
21
-3639.059498
0
LINE
8
Layer 1
10
3400.968893
20
-3639.059498
11
3405.519656
21
-3642.693742
0
LINE
8
Layer 1
10
3405.519656
20
-3642.693742
11
3410.243986
21
-3646.112203
0
LINE
8
Layer 1
10
3410.243986
20
-3646.112203
11
3415.134456
21
-3649.307349
0
LINE
8
Layer 1
10
3415.134456
20
-3649.307349
11
3420.183635
21
-3652.271647
0
LINE
8
Layer 1
10
3420.183635
20
-3652.271647
11
3425.384094
21
-3654.997566
0
LINE
8
Layer 1
10
3425.384094
20
-3654.997566
11
3430.728404
21
-3657.477573
0
LINE
8
Layer 1
10
3430.728404
20
-3657.477573
11
3436.209135
21
-3659.704138
0
LINE
8
Layer 1
10
3436.209135
20
-3659.704138
11
3441.818859
21
-3661.669727
0
LINE
8
Layer 1
10
3441.818859
20
-3661.669727
11
3447.550146
21
-3663.366810
0
LINE
8
Layer 1
10
3447.550146
20
-3663.366810
11
3453.395567
21
-3664.787853
0
LINE
8
Layer 1
10
3453.395567
20
-3664.787853
11
3459.347692
21
-3665.925326
0
LINE
8
Layer 1
10
3459.347692
20
-3665.925326
11
3465.399092
21
-3666.771696
0
LINE
8
Layer 1
10
3465.399092
20
-3666.771696
11
3471.542338
21
-3667.319431
0
LINE
8
Layer 1
10
3471.542338
20
-3667.319431
11
3477.770000
21
-3667.561000
0
LINE
8
Layer 1
10
9266.480000
20
-3046.300000
11
3130.970000
21
-3046.300000
0
LINE
8
Layer 1
10
9266.480000
20
-3933.050000
11
9266.480000
21
-3046.300000
0
LINE
8
Layer 1
10
3130.970000
20
-3933.050000
11
9266.480000
21
-3933.050000
0
LINE
8
Layer 1
10
3130.970000
20
-3046.300000
11
3130.970000
21
-3933.050000
0
LINE
8
Layer 1
10
5400.880000
20
-3423.070000
11
5330.890000
21
-3423.070000
0
LINE
8
Layer 1
10
5331.120000
20
-3423.100000
11
5324.892338
21
-3423.341569
0
LINE
8
Layer 1
10
5324.892338
20
-3423.341569
11
5318.749092
21
-3423.889304
0
LINE
8
Layer 1
10
5318.749092
20
-3423.889304
11
5312.697692
21
-3424.735674
0
LINE
8
Layer 1
10
5312.697692
20
-3424.735674
11
5306.745567
21
-3425.873147
0
LINE
8
Layer 1
10
5306.745567
20
-3425.873147
11
5300.900146
21
-3427.294190
0
LINE
8
Layer 1
10
5300.900146
20
-3427.294190
11
5295.168859
21
-3428.991273
0
LINE
8
Layer 1
10
5295.168859
20
-3428.991273
11
5289.559135
21
-3430.956862
0
LINE
8
Layer 1
10
5289.559135
20
-3430.956862
11
5284.078404
21
-3433.183427
0
LINE
8
Layer 1
10
5284.078404
20
-3433.183427
11
5278.734094
21
-3435.663434
0
LINE
8
Layer 1
10
5278.734094
20
-3435.663434
11
5273.533635
21
-3438.389353
0
LINE
8
Layer 1
10
5273.533635
20
-3438.389353
11
5268.484456
21
-3441.353651
0
LINE
8
Layer 1
10
5268.484456
20
-3441.353651
11
5263.593986
21
-3444.548797
0
LINE
8
Layer 1
10
5263.593986
20
-3444.548797
11
5258.869656
21
-3447.967258
0
LINE
8
Layer 1
10
5258.869656
20
-3447.967258
11
5254.318893
21
-3451.601502
0
LINE
8
Layer 1
10
5254.318893
20
-3451.601502
11
5249.949128
21
-3455.443999
0
LINE
8
Layer 1
10
5249.949128
20
-3455.443999
11
5245.767790
21
-3459.487214
0
LINE
8
Layer 1
10
5245.767790
20
-3459.487214
11
5241.782308
21
-3463.723618
0
LINE
8
Layer 1
10
5241.782308
20
-3463.723618
11
5238.000111
21
-3468.145678
0
LINE
8
Layer 1
10
5238.000111
20
-3468.145678
11
5234.428629
21
-3472.745861
0
LINE
8
Layer 1
10
5234.428629
20
-3472.745861
11
5231.075291
21
-3477.516636
0
LINE
8
Layer 1
10
5231.075291
20
-3477.516636
11
5227.947526
21
-3482.450472
0
LINE
8
Layer 1
10
5227.947526
20
-3482.450472
11
5225.052764
21
-3487.539836
0
LINE
8
Layer 1
10
5225.052764
20
-3487.539836
11
5222.398434
21
-3492.777196
0
LINE
8
Layer 1
10
5222.398434
20
-3492.777196
11
5219.991965
21
-3498.155020
0
LINE
8
Layer 1
10
5219.991965
20
-3498.155020
11
5217.840786
21
-3503.665777
0
LINE
8
Layer 1
10
5217.840786
20
-3503.665777
11
5215.952328
21
-3509.301934
0
LINE
8
Layer 1
10
5215.952328
20
-3509.301934
11
5214.334018
21
-3515.055960
0
LINE
8
Layer 1
10
5214.334018
20
-3515.055960
11
5212.993287
21
-3520.920322
0
LINE
8
Layer 1
10
5212.993287
20
-3520.920322
11
5211.937564
21
-3526.887489
0
LINE
8
Layer 1
10
5211.937564
20
-3526.887489
11
5211.174277
21
-3532.949929
0
LINE
8
Layer 1
10
5211.174277
20
-3532.949929
11
5210.710857
21
-3539.100110
0
LINE
8
Layer 1
10
5210.710857
20
-3539.100110
11
5210.554733
21
-3545.330500
0
LINE
8
Layer 1
10
5210.554733
20
-3545.330500
11
5210.710857
21
-3551.560890
0
LINE
8
Layer 1
10
5210.710857
20
-3551.560890
11
5211.174277
21
-3557.711071
0
LINE
8
Layer 1
10
5211.174277
20
-3557.711071
11
5211.937564
21
-3563.773511
0
LINE
8
Layer 1
10
5211.937564
20
-3563.773511
11
5212.993287
21
-3569.740678
0
LINE
8
Layer 1
10
5212.993287
20
-3569.740678
11
5214.334018
21
-3575.605040
0
LINE
8
Layer 1
10
5214.334018
20
-3575.605040
11
5215.952328
21
-3581.359066
0
LINE
8
Layer 1
10
5215.952328
20
-3581.359066
11
5217.840786
21
-3586.995223
0
LINE
8
Layer 1
10
5217.840786
20
-3586.995223
11
5219.991965
21
-3592.505980
0
LINE
8
Layer 1
10
5219.991965
20
-3592.505980
11
5222.398434
21
-3597.883804
0
LINE
8
Layer 1
10
5222.398434
20
-3597.883804
11
5225.052764
21
-3603.121164
0
LINE
8
Layer 1
10
5225.052764
20
-3603.121164
11
5227.947526
21
-3608.210528
0
LINE
8
Layer 1
10
5227.947526
20
-3608.210528
11
5231.075291
21
-3613.144364
0
LINE
8
Layer 1
10
5231.075291
20
-3613.144364
11
5234.428629
21
-3617.915139
0
LINE
8
Layer 1
10
5234.428629
20
-3617.915139
11
5238.000111
21
-3622.515322
0
LINE
8
Layer 1
10
5238.000111
20
-3622.515322
11
5241.782308
21
-3626.937382
0
LINE
8
Layer 1
10
5241.782308
20
-3626.937382
11
5245.767790
21
-3631.173786
0
LINE
8
Layer 1
10
5245.767790
20
-3631.173786
11
5249.949128
21
-3635.217001
0
LINE
8
Layer 1
10
5249.949128
20
-3635.217001
11
5254.318893
21
-3639.059498
0
LINE
8
Layer 1
10
5254.318893
20
-3639.059498
11
5258.869656
21
-3642.693742
0
LINE
8
Layer 1
10
5258.869656
20
-3642.693742
11
5263.593986
21
-3646.112203
0
LINE
8
Layer 1
10
5263.593986
20
-3646.112203
11
5268.484456
21
-3649.307349
0
LINE
8
Layer 1
10
5268.484456
20
-3649.307349
11
5273.533635
21
-3652.271647
0
LINE
8
Layer 1
10
5273.533635
20
-3652.271647
11
5278.734094
21
-3654.997566
0
LINE
8
Layer 1
10
5278.734094
20
-3654.997566
11
5284.078404
21
-3657.477573
0
LINE
8
Layer 1
10
5284.078404
20
-3657.477573
11
5289.559135
21
-3659.704138
0
LINE
8
Layer 1
10
5289.559135
20
-3659.704138
11
5295.168859
21
-3661.669727
0
LINE
8
Layer 1
10
5295.168859
20
-3661.669727
11
5300.900146
21
-3663.366810
0
LINE
8
Layer 1
10
5300.900146
20
-3663.366810
11
5306.745567
21
-3664.787853
0
LINE
8
Layer 1
10
5306.745567
20
-3664.787853
11
5312.697692
21
-3665.925326
0
LINE
8
Layer 1
10
5312.697692
20
-3665.925326
11
5318.749092
21
-3666.771696
0
LINE
8
Layer 1
10
5318.749092
20
-3666.771696
11
5324.892338
21
-3667.319431
0
LINE
8
Layer 1
10
5324.892338
20
-3667.319431
11
5331.120000
21
-3667.561000
0
LINE
8
Layer 1
10
5400.880000
20
-3667.470000
11
5330.890000
21
-3667.470000
0
LINE
8
Layer 1
10
5401.110000
20
-3667.560000
11
5407.337662
21
-3667.318431
0
LINE
8
Layer 1
10
5407.337662
20
-3667.318431
11
5413.480908
21
-3666.770696
0
LINE
8
Layer 1
10
5413.480908
20
-3666.770696
11
5419.532308
21
-3665.924326
0
LINE
8
Layer 1
10
5419.532308
20
-3665.924326
11
5425.484433
21
-3664.786853
0
LINE
8
Layer 1
10
5425.484433
20
-3664.786853
11
5431.329854
21
-3663.365810
0
LINE
8
Layer 1
10
5431.329854
20
-3663.365810
11
5437.061141
21
-3661.668727
0
LINE
8
Layer 1
10
5437.061141
20
-3661.668727
11
5442.670865
21
-3659.703138
0
LINE
8
Layer 1
10
5442.670865
20
-3659.703138
11
5448.151596
21
-3657.476573
0
LINE
8
Layer 1
10
5448.151596
20
-3657.476573
11
5453.495906
21
-3654.996566
0
LINE
8
Layer 1
10
5453.495906
20
-3654.996566
11
5458.696365
21
-3652.270647
0
LINE
8
Layer 1
10
5458.696365
20
-3652.270647
11
5463.745544
21
-3649.306349
0
LINE
8
Layer 1
10
5463.745544
20
-3649.306349
11
5468.636014
21
-3646.111203
0
LINE
8
Layer 1
10
5468.636014
20
-3646.111203
11
5473.360344
21
-3642.692742
0
LINE
8
Layer 1
10
5473.360344
20
-3642.692742
11
5477.911107
21
-3639.058498
0
LINE
8
Layer 1
10
5477.911107
20
-3639.058498
11
5482.280872
21
-3635.216001
0
LINE
8
Layer 1
10
5482.280872
20
-3635.216001
11
5486.462210
21
-3631.172786
0
LINE
8
Layer 1
10
5486.462210
20
-3631.172786
11
5490.447692
21
-3626.936382
0
LINE
8
Layer 1
10
5490.447692
20
-3626.936382
11
5494.229889
21
-3622.514322
0
LINE
8
Layer 1
10
5494.229889
20
-3622.514322
11
5497.801371
21
-3617.914139
0
LINE
8
Layer 1
10
5497.801371
20
-3617.914139
11
5501.154709
21
-3613.143364
0
LINE
8
Layer 1
10
5501.154709
20
-3613.143364
11
5504.282474
21
-3608.209528
0
LINE
8
Layer 1
10
5504.282474
20
-3608.209528
11
5507.177236
21
-3603.120164
0
LINE
8
Layer 1
10
5507.177236
20
-3603.120164
11
5509.831566
21
-3597.882804
0
LINE
8
Layer 1
10
5509.831566
20
-3597.882804
11
5512.238035
21
-3592.504980
0
LINE
8
Layer 1
10
5512.238035
20
-3592.504980
11
5514.389214
21
-3586.994223
0
LINE
8
Layer 1
10
5514.389214
20
-3586.994223
11
5516.277672
21
-3581.358066
0
LINE
8
Layer 1
10
5516.277672
20
-3581.358066
11
5517.895982
21
-3575.604040
0
LINE
8
Layer 1
10
5517.895982
20
-3575.604040
11
5519.236713
21
-3569.739678
0
LINE
8
Layer 1
10
5519.236713
20
-3569.739678
11
5520.292436
21
-3563.772511
0
LINE
8
Layer 1
10
5520.292436
20
-3563.772511
11
5521.055723
21
-3557.710071
0
LINE
8
Layer 1
10
5521.055723
20
-3557.710071
11
5521.519143
21
-3551.559890
0
LINE
8
Layer 1
10
5521.519143
20
-3551.559890
11
5521.675267
21
-3545.329500
0
LINE
8
Layer 1
10
5521.675267
20
-3545.329500
11
5521.519143
21
-3539.099110
0
LINE
8
Layer 1
10
5521.519143
20
-3539.099110
11
5521.055723
21
-3532.948929
0
LINE
8
Layer 1
10
5521.055723
20
-3532.948929
11
5520.292436
21
-3526.886489
0
LINE
8
Layer 1
10
5520.292436
20
-3526.886489
11
5519.236713
21
-3520.919322
0
LINE
8
Layer 1
10
5519.236713
20
-3520.919322
11
5517.895982
21
-3515.054960
0
LINE
8
Layer 1
10
5517.895982
20
-3515.054960
11
5516.277672
21
-3509.300934
0
LINE
8
Layer 1
10
5516.277672
20
-3509.300934
11
5514.389214
21
-3503.664777
0
LINE
8
Layer 1
10
5514.389214
20
-3503.664777
11
5512.238035
21
-3498.154020
0
LINE
8
Layer 1
10
5512.238035
20
-3498.154020
11
5509.831566
21
-3492.776196
0
LINE
8
Layer 1
10
5509.831566
20
-3492.776196
11
5507.177236
21
-3487.538836
0
LINE
8
Layer 1
10
5507.177236
20
-3487.538836
11
5504.282474
21
-3482.449472
0
LINE
8
Layer 1
10
5504.282474
20
-3482.449472
11
5501.154709
21
-3477.515636
0
LINE
8
Layer 1
10
5501.154709
20
-3477.515636
11
5497.801371
21
-3472.744861
0
LINE
8
Layer 1
10
5497.801371
20
-3472.744861
11
5494.229889
21
-3468.144678
0
LINE
8
Layer 1
10
5494.229889
20
-3468.144678
11
5490.447692
21
-3463.722618
0
LINE
8
Layer 1
10
5490.447692
20
-3463.722618
11
5486.462210
21
-3459.486214
0
LINE
8
Layer 1
10
5486.462210
20
-3459.486214
11
5482.280872
21
-3455.442999
0
LINE
8
Layer 1
10
5482.280872
20
-3455.442999
11
5477.911107
21
-3451.600502
0
LINE
8
Layer 1
10
5477.911107
20
-3451.600502
11
5473.360344
21
-3447.966258
0
LINE
8
Layer 1
10
5473.360344
20
-3447.966258
11
5468.636014
21
-3444.547797
0
LINE
8
Layer 1
10
5468.636014
20
-3444.547797
11
5463.745544
21
-3441.352651
0
LINE
8
Layer 1
10
5463.745544
20
-3441.352651
11
5458.696365
21
-3438.388353
0
LINE
8
Layer 1
10
5458.696365
20
-3438.388353
11
5453.495906
21
-3435.662434
0
LINE
8
Layer 1
10
5453.495906
20
-3435.662434
11
5448.151596
21
-3433.182427
0
LINE
8
Layer 1
10
5448.151596
20
-3433.182427
11
5442.670865
21
-3430.955862
0
LINE
8
Layer 1
10
5442.670865
20
-3430.955862
11
5437.061141
21
-3428.990273
0
LINE
8
Layer 1
10
5437.061141
20
-3428.990273
11
5431.329854
21
-3427.293190
0
LINE
8
Layer 1
10
5431.329854
20
-3427.293190
11
5425.484433
21
-3425.872147
0
LINE
8
Layer 1
10
5425.484433
20
-3425.872147
11
5419.532308
21
-3424.734674
0
LINE
8
Layer 1
10
5419.532308
20
-3424.734674
11
5413.480908
21
-3423.888304
0
LINE
8
Layer 1
10
5413.480908
20
-3423.888304
11
5407.337662
21
-3423.340569
0
LINE
8
Layer 1
10
5407.337662
20
-3423.340569
11
5401.110000
21
-3423.099000
0
LINE
8
Layer 1
10
3547.530000
20
-3423.070000
11
3477.540000
21
-3423.070000
0
LINE
8
Layer 1
10
3547.530000
20
-3667.470000
11
3477.540000
21
-3667.470000
0
LINE
8
Layer 1
10
3547.780000
20
-3667.560000
11
3554.007662
21
-3667.318431
0
LINE
8
Layer 1
10
3554.007662
20
-3667.318431
11
3560.150908
21
-3666.770696
0
LINE
8
Layer 1
10
3560.150908
20
-3666.770696
11
3566.202308
21
-3665.924326
0
LINE
8
Layer 1
10
3566.202308
20
-3665.924326
11
3572.154433
21
-3664.786853
0
LINE
8
Layer 1
10
3572.154433
20
-3664.786853
11
3577.999854
21
-3663.365810
0
LINE
8
Layer 1
10
3577.999854
20
-3663.365810
11
3583.731141
21
-3661.668727
0
LINE
8
Layer 1
10
3583.731141
20
-3661.668727
11
3589.340865
21
-3659.703138
0
LINE
8
Layer 1
10
3589.340865
20
-3659.703138
11
3594.821596
21
-3657.476573
0
LINE
8
Layer 1
10
3594.821596
20
-3657.476573
11
3600.165906
21
-3654.996566
0
LINE
8
Layer 1
10
3600.165906
20
-3654.996566
11
3605.366365
21
-3652.270647
0
LINE
8
Layer 1
10
3605.366365
20
-3652.270647
11
3610.415544
21
-3649.306349
0
LINE
8
Layer 1
10
3610.415544
20
-3649.306349
11
3615.306014
21
-3646.111203
0
LINE
8
Layer 1
10
3615.306014
20
-3646.111203
11
3620.030344
21
-3642.692742
0
LINE
8
Layer 1
10
3620.030344
20
-3642.692742
11
3624.581107
21
-3639.058498
0
LINE
8
Layer 1
10
3624.581107
20
-3639.058498
11
3628.950872
21
-3635.216001
0
LINE
8
Layer 1
10
3628.950872
20
-3635.216001
11
3633.132210
21
-3631.172786
0
LINE
8
Layer 1
10
3633.132210
20
-3631.172786
11
3637.117692
21
-3626.936382
0
LINE
8
Layer 1
10
3637.117692
20
-3626.936382
11
3640.899889
21
-3622.514322
0
LINE
8
Layer 1
10
3640.899889
20
-3622.514322
11
3644.471371
21
-3617.914139
0
LINE
8
Layer 1
10
3644.471371
20
-3617.914139
11
3647.824709
21
-3613.143364
0
LINE
8
Layer 1
10
3647.824709
20
-3613.143364
11
3650.952474
21
-3608.209528
0
LINE
8
Layer 1
10
3650.952474
20
-3608.209528
11
3653.847236
21
-3603.120164
0
LINE
8
Layer 1
10
3653.847236
20
-3603.120164
11
3656.501566
21
-3597.882804
0
LINE
8
Layer 1
10
3656.501566
20
-3597.882804
11
3658.908035
21
-3592.504980
0
LINE
8
Layer 1
10
3658.908035
20
-3592.504980
11
3661.059214
21
-3586.994223
0
LINE
8
Layer 1
10
3661.059214
20
-3586.994223
11
3662.947672
21
-3581.358066
0
LINE
8
Layer 1
10
3662.947672
20
-3581.358066
11
3664.565982
21
-3575.604040
0
LINE
8
Layer 1
10
3664.565982
20
-3575.604040
11
3665.906713
21
-3569.739678
0
LINE
8
Layer 1
10
3665.906713
20
-3569.739678
11
3666.962436
21
-3563.772511
0
LINE
8
Layer 1
10
3666.962436
20
-3563.772511
11
3667.725723
21
-3557.710071
0
LINE
8
Layer 1
10
3667.725723
20
-3557.710071
11
3668.189143
21
-3551.559890
0
LINE
8
Layer 1
10
3668.189143
20
-3551.559890
11
3668.345267
21
-3545.329500
0
LINE
8
Layer 1
10
3668.345267
20
-3545.329500
11
3668.189143
21
-3539.099110
0
LINE
8
Layer 1
10
3668.189143
20
-3539.099110
11
3667.725723
21
-3532.948929
0
LINE
8
Layer 1
10
3667.725723
20
-3532.948929
11
3666.962436
21
-3526.886489
0
LINE
8
Layer 1
10
3666.962436
20
-3526.886489
11
3665.906713
21
-3520.919322
0
LINE
8
Layer 1
10
3665.906713
20
-3520.919322
11
3664.565982
21
-3515.054960
0
LINE
8
Layer 1
10
3664.565982
20
-3515.054960
11
3662.947672
21
-3509.300934
0
LINE
8
Layer 1
10
3662.947672
20
-3509.300934
11
3661.059214
21
-3503.664777
0
LINE
8
Layer 1
10
3661.059214
20
-3503.664777
11
3658.908035
21
-3498.154020
0
LINE
8
Layer 1
10
3658.908035
20
-3498.154020
11
3656.501566
21
-3492.776196
0
LINE
8
Layer 1
10
3656.501566
20
-3492.776196
11
3653.847236
21
-3487.538836
0
LINE
8
Layer 1
10
3653.847236
20
-3487.538836
11
3650.952474
21
-3482.449472
0
LINE
8
Layer 1
10
3650.952474
20
-3482.449472
11
3647.824709
21
-3477.515636
0
LINE
8
Layer 1
10
3647.824709
20
-3477.515636
11
3644.471371
21
-3472.744861
0
LINE
8
Layer 1
10
3644.471371
20
-3472.744861
11
3640.899889
21
-3468.144678
0
LINE
8
Layer 1
10
3640.899889
20
-3468.144678
11
3637.117692
21
-3463.722618
0
LINE
8
Layer 1
10
3637.117692
20
-3463.722618
11
3633.132210
21
-3459.486214
0
LINE
8
Layer 1
10
3633.132210
20
-3459.486214
11
3628.950872
21
-3455.442999
0
LINE
8
Layer 1
10
3628.950872
20
-3455.442999
11
3624.581107
21
-3451.600502
0
LINE
8
Layer 1
10
3624.581107
20
-3451.600502
11
3620.030344
21
-3447.966258
0
LINE
8
Layer 1
10
3620.030344
20
-3447.966258
11
3615.306014
21
-3444.547797
0
LINE
8
Layer 1
10
3615.306014
20
-3444.547797
11
3610.415544
21
-3441.352651
0
LINE
8
Layer 1
10
3610.415544
20
-3441.352651
11
3605.366365
21
-3438.388353
0
LINE
8
Layer 1
10
3605.366365
20
-3438.388353
11
3600.165906
21
-3435.662434
0
LINE
8
Layer 1
10
3600.165906
20
-3435.662434
11
3594.821596
21
-3433.182427
0
LINE
8
Layer 1
10
3594.821596
20
-3433.182427
11
3589.340865
21
-3430.955862
0
LINE
8
Layer 1
10
3589.340865
20
-3430.955862
11
3583.731141
21
-3428.990273
0
LINE
8
Layer 1
10
3583.731141
20
-3428.990273
11
3577.999854
21
-3427.293190
0
LINE
8
Layer 1
10
3577.999854
20
-3427.293190
11
3572.154433
21
-3425.872147
0
LINE
8
Layer 1
10
3572.154433
20
-3425.872147
11
3566.202308
21
-3424.734674
0
LINE
8
Layer 1
10
3566.202308
20
-3424.734674
11
3560.150908
21
-3423.888304
0
LINE
8
Layer 1
10
3560.150908
20
-3423.888304
11
3554.007662
21
-3423.340569
0
LINE
8
Layer 1
10
3554.007662
20
-3423.340569
11
3547.780000
21
-3423.099000
0
LINE
8
Layer 1
10
3477.770000
20
-3423.100000
11
3471.542338
21
-3423.341569
0
LINE
8
Layer 1
10
3471.542338
20
-3423.341569
11
3465.399092
21
-3423.889304
0
LINE
8
Layer 1
10
3465.399092
20
-3423.889304
11
3459.347692
21
-3424.735674
0
LINE
8
Layer 1
10
3459.347692
20
-3424.735674
11
3453.395567
21
-3425.873147
0
LINE
8
Layer 1
10
3453.395567
20
-3425.873147
11
3447.550146
21
-3427.294190
0
LINE
8
Layer 1
10
3447.550146
20
-3427.294190
11
3441.818859
21
-3428.991273
0
LINE
8
Layer 1
10
3441.818859
20
-3428.991273
11
3436.209135
21
-3430.956862
0
LINE
8
Layer 1
10
3436.209135
20
-3430.956862
11
3430.728404
21
-3433.183427
0
LINE
8
Layer 1
10
3430.728404
20
-3433.183427
11
3425.384094
21
-3435.663434
0
LINE
8
Layer 1
10
3425.384094
20
-3435.663434
11
3420.183635
21
-3438.389353
0
LINE
8
Layer 1
10
3420.183635
20
-3438.389353
11
3415.134456
21
-3441.353651
0
LINE
8
Layer 1
10
3415.134456
20
-3441.353651
11
3410.243986
21
-3444.548797
0
LINE
8
Layer 1
10
3410.243986
20
-3444.548797
11
3405.519656
21
-3447.967258
0
LINE
8
Layer 1
10
3405.519656
20
-3447.967258
11
3400.968893
21
-3451.601502
0
LINE
8
Layer 1
10
3400.968893
20
-3451.601502
11
3396.599128
21
-3455.443999
0
LINE
8
Layer 1
10
3396.599128
20
-3455.443999
11
3392.417790
21
-3459.487214
0
LINE
8
Layer 1
10
3392.417790
20
-3459.487214
11
3388.432308
21
-3463.723618
0
LINE
8
Layer 1
10
3388.432308
20
-3463.723618
11
3384.650111
21
-3468.145678
0
LINE
8
Layer 1
10
3384.650111
20
-3468.145678
11
3381.078629
21
-3472.745861
0
LINE
8
Layer 1
10
3381.078629
20
-3472.745861
11
3377.725291
21
-3477.516636
0
LINE
8
Layer 1
10
3377.725291
20
-3477.516636
11
3374.597526
21
-3482.450472
0
LINE
8
Layer 1
10
3374.597526
20
-3482.450472
11
3371.702764
21
-3487.539836
0
LINE
8
Layer 1
10
3371.702764
20
-3487.539836
11
3369.048434
21
-3492.777196
0
LINE
8
Layer 1
10
3369.048434
20
-3492.777196
11
3366.641965
21
-3498.155020
0
LINE
8
Layer 1
10
3366.641965
20
-3498.155020
11
3364.490786
21
-3503.665777
0
LINE
8
Layer 1
10
3364.490786
20
-3503.665777
11
3362.602328
21
-3509.301934
0
LINE
8
Layer 1
10
3362.602328
20
-3509.301934
11
3360.984018
21
-3515.055960
0
LINE
8
Layer 1
10
3360.984018
20
-3515.055960
11
3359.643287
21
-3520.920322
0
LINE
8
Layer 1
10
3359.643287
20
-3520.920322
11
3358.587564
21
-3526.887489
0
LINE
8
Layer 1
10
3358.587564
20
-3526.887489
11
3357.824277
21
-3532.949929
0
LINE
8
Layer 1
10
3357.824277
20
-3532.949929
11
3357.360857
21
-3539.100110
0
LINE
8
Layer 1
10
3357.360857
20
-3539.100110
11
3357.204733
21
-3545.330500
0
LINE
8
Layer 1
10
3357.204733
20
-3545.330500
11
3357.360857
21
-3551.560890
0
LINE
8
Layer 1
10
3357.360857
20
-3551.560890
11
3357.824277
21
-3557.711071
0
LINE
8
Layer 1
10
3357.824277
20
-3557.711071
11
3358.587564
21
-3563.773511
0
LINE
8
Layer 1
10
3358.587564
20
-3563.773511
11
3359.643287
21
-3569.740678
0
LINE
8
Layer 1
10
3359.643287
20
-3569.740678
11
3360.984018
21
-3575.605040
0
LINE
8
Layer 1
10
3360.984018
20
-3575.605040
11
3362.602328
21
-3581.359066
0
LINE
8
Layer 1
10
3362.602328
20
-3581.359066
11
3364.490786
21
-3586.995223
0
LINE
8
Layer 1
10
3364.490786
20
-3586.995223
11
3366.641965
21
-3592.505980
0
LINE
8
Layer 1
10
3366.641965
20
-3592.505980
11
3369.048434
21
-3597.883804
0
LINE
8
Layer 1
10
3369.048434
20
-3597.883804
11
3371.702764
21
-3603.121164
0
LINE
8
Layer 1
10
3371.702764
20
-3603.121164
11
3374.597526
21
-3608.210528
0
LINE
8
Layer 1
10
3374.597526
20
-3608.210528
11
3377.725291
21
-3613.144364
0
LINE
8
Layer 1
10
3377.725291
20
-3613.144364
11
3381.078629
21
-3617.915139
0
LINE
8
Layer 1
10
3381.078629
20
-3617.915139
11
3384.650111
21
-3622.515322
0
LINE
8
Layer 1
10
3384.650111
20
-3622.515322
11
3388.432308
21
-3626.937382
0
LINE
8
Layer 1
10
3388.432308
20
-3626.937382
11
3392.417790
21
-3631.173786
0
LINE
8
Layer 1
10
3392.417790
20
-3631.173786
11
3396.599128
21
-3635.217001
0
LINE
8
Layer 1
10
3396.599128
20
-3635.217001
11
3400.968893
21
-3639.059498
0
LINE
8
Layer 1
10
3400.968893
20
-3639.059498
11
3405.519656
21
-3642.693742
0
LINE
8
Layer 1
10
3405.519656
20
-3642.693742
11
3410.243986
21
-3646.112203
0
LINE
8
Layer 1
10
3410.243986
20
-3646.112203
11
3415.134456
21
-3649.307349
0
LINE
8
Layer 1
10
3415.134456
20
-3649.307349
11
3420.183635
21
-3652.271647
0
LINE
8
Layer 1
10
3420.183635
20
-3652.271647
11
3425.384094
21
-3654.997566
0
LINE
8
Layer 1
10
3425.384094
20
-3654.997566
11
3430.728404
21
-3657.477573
0
LINE
8
Layer 1
10
3430.728404
20
-3657.477573
11
3436.209135
21
-3659.704138
0
LINE
8
Layer 1
10
3436.209135
20
-3659.704138
11
3441.818859
21
-3661.669727
0
LINE
8
Layer 1
10
3441.818859
20
-3661.669727
11
3447.550146
21
-3663.366810
0
LINE
8
Layer 1
10
3447.550146
20
-3663.366810
11
3453.395567
21
-3664.787853
0
LINE
8
Layer 1
10
3453.395567
20
-3664.787853
11
3459.347692
21
-3665.925326
0
LINE
8
Layer 1
10
3459.347692
20
-3665.925326
11
3465.399092
21
-3666.771696
0
LINE
8
Layer 1
10
3465.399092
20
-3666.771696
11
3471.542338
21
-3667.319431
0
LINE
8
Layer 1
10
3471.542338
20
-3667.319431
11
3477.770000
21
-3667.561000
0
LINE
8
Layer 1
10
9266.480000
20
-3046.300000
11
3130.970000
21
-3046.300000
0
LINE
8
Layer 1
10
9266.480000
20
-3933.050000
11
9266.480000
21
-3046.300000
0
LINE
8
Layer 1
10
3130.970000
20
-3933.050000
11
9266.480000
21
-3933.050000
0
LINE
8
Layer 1
10
3130.970000
20
-3046.300000
11
3130.970000
21
-3933.050000
0
LINE
8
Layer 1
10
5400.880000
20
-3423.070000
11
5330.890000
21
-3423.070000
0
LINE
8
Layer 1
10
5331.120000
20
-3423.100000
11
5324.892338
21
-3423.341569
0
LINE
8
Layer 1
10
5324.892338
20
-3423.341569
11
5318.749092
21
-3423.889304
0
LINE
8
Layer 1
10
5318.749092
20
-3423.889304
11
5312.697692
21
-3424.735674
0
LINE
8
Layer 1
10
5312.697692
20
-3424.735674
11
5306.745567
21
-3425.873147
0
LINE
8
Layer 1
10
5306.745567
20
-3425.873147
11
5300.900146
21
-3427.294190
0
LINE
8
Layer 1
10
5300.900146
20
-3427.294190
11
5295.168859
21
-3428.991273
0
LINE
8
Layer 1
10
5295.168859
20
-3428.991273
11
5289.559135
21
-3430.956862
0
LINE
8
Layer 1
10
5289.559135
20
-3430.956862
11
5284.078404
21
-3433.183427
0
LINE
8
Layer 1
10
5284.078404
20
-3433.183427
11
5278.734094
21
-3435.663434
0
LINE
8
Layer 1
10
5278.734094
20
-3435.663434
11
5273.533635
21
-3438.389353
0
LINE
8
Layer 1
10
5273.533635
20
-3438.389353
11
5268.484456
21
-3441.353651
0
LINE
8
Layer 1
10
5268.484456
20
-3441.353651
11
5263.593986
21
-3444.548797
0
LINE
8
Layer 1
10
5263.593986
20
-3444.548797
11
5258.869656
21
-3447.967258
0
LINE
8
Layer 1
10
5258.869656
20
-3447.967258
11
5254.318893
21
-3451.601502
0
LINE
8
Layer 1
10
5254.318893
20
-3451.601502
11
5249.949128
21
-3455.443999
0
LINE
8
Layer 1
10
5249.949128
20
-3455.443999
11
5245.767790
21
-3459.487214
0
LINE
8
Layer 1
10
5245.767790
20
-3459.487214
11
5241.782308
21
-3463.723618
0
LINE
8
Layer 1
10
5241.782308
20
-3463.723618
11
5238.000111
21
-3468.145678
0
LINE
8
Layer 1
10
5238.000111
20
-3468.145678
11
5234.428629
21
-3472.745861
0
LINE
8
Layer 1
10
5234.428629
20
-3472.745861
11
5231.075291
21
-3477.516636
0
LINE
8
Layer 1
10
5231.075291
20
-3477.516636
11
5227.947526
21
-3482.450472
0
LINE
8
Layer 1
10
5227.947526
20
-3482.450472
11
5225.052764
21
-3487.539836
0
LINE
8
Layer 1
10
5225.052764
20
-3487.539836
11
5222.398434
21
-3492.777196
0
LINE
8
Layer 1
10
5222.398434
20
-3492.777196
11
5219.991965
21
-3498.155020
0
LINE
8
Layer 1
10
5219.991965
20
-3498.155020
11
5217.840786
21
-3503.665777
0
LINE
8
Layer 1
10
5217.840786
20
-3503.665777
11
5215.952328
21
-3509.301934
0
LINE
8
Layer 1
10
5215.952328
20
-3509.301934
11
5214.334018
21
-3515.055960
0
LINE
8
Layer 1
10
5214.334018
20
-3515.055960
11
5212.993287
21
-3520.920322
0
LINE
8
Layer 1
10
5212.993287
20
-3520.920322
11
5211.937564
21
-3526.887489
0
LINE
8
Layer 1
10
5211.937564
20
-3526.887489
11
5211.174277
21
-3532.949929
0
LINE
8
Layer 1
10
5211.174277
20
-3532.949929
11
5210.710857
21
-3539.100110
0
LINE
8
Layer 1
10
5210.710857
20
-3539.100110
11
5210.554733
21
-3545.330500
0
LINE
8
Layer 1
10
5210.554733
20
-3545.330500
11
5210.710857
21
-3551.560890
0
LINE
8
Layer 1
10
5210.710857
20
-3551.560890
11
5211.174277
21
-3557.711071
0
LINE
8
Layer 1
10
5211.174277
20
-3557.711071
11
5211.937564
21
-3563.773511
0
LINE
8
Layer 1
10
5211.937564
20
-3563.773511
11
5212.993287
21
-3569.740678
0
LINE
8
Layer 1
10
5212.993287
20
-3569.740678
11
5214.334018
21
-3575.605040
0
LINE
8
Layer 1
10
5214.334018
20
-3575.605040
11
5215.952328
21
-3581.359066
0
LINE
8
Layer 1
10
5215.952328
20
-3581.359066
11
5217.840786
21
-3586.995223
0
LINE
8
Layer 1
10
5217.840786
20
-3586.995223
11
5219.991965
21
-3592.505980
0
LINE
8
Layer 1
10
5219.991965
20
-3592.505980
11
5222.398434
21
-3597.883804
0
LINE
8
Layer 1
10
5222.398434
20
-3597.883804
11
5225.052764
21
-3603.121164
0
LINE
8
Layer 1
10
5225.052764
20
-3603.121164
11
5227.947526
21
-3608.210528
0
LINE
8
Layer 1
10
5227.947526
20
-3608.210528
11
5231.075291
21
-3613.144364
0
LINE
8
Layer 1
10
5231.075291
20
-3613.144364
11
5234.428629
21
-3617.915139
0
LINE
8
Layer 1
10
5234.428629
20
-3617.915139
11
5238.000111
21
-3622.515322
0
LINE
8
Layer 1
10
5238.000111
20
-3622.515322
11
5241.782308
21
-3626.937382
0
LINE
8
Layer 1
10
5241.782308
20
-3626.937382
11
5245.767790
21
-3631.173786
0
LINE
8
Layer 1
10
5245.767790
20
-3631.173786
11
5249.949128
21
-3635.217001
0
LINE
8
Layer 1
10
5249.949128
20
-3635.217001
11
5254.318893
21
-3639.059498
0
LINE
8
Layer 1
10
5254.318893
20
-3639.059498
11
5258.869656
21
-3642.693742
0
LINE
8
Layer 1
10
5258.869656
20
-3642.693742
11
5263.593986
21
-3646.112203
0
LINE
8
Layer 1
10
5263.593986
20
-3646.112203
11
5268.484456
21
-3649.307349
0
LINE
8
Layer 1
10
5268.484456
20
-3649.307349
11
5273.533635
21
-3652.271647
0
LINE
8
Layer 1
10
5273.533635
20
-3652.271647
11
5278.734094
21
-3654.997566
0
LINE
8
Layer 1
10
5278.734094
20
-3654.997566
11
5284.078404
21
-3657.477573
0
LINE
8
Layer 1
10
5284.078404
20
-3657.477573
11
5289.559135
21
-3659.704138
0
LINE
8
Layer 1
10
5289.559135
20
-3659.704138
11
5295.168859
21
-3661.669727
0
LINE
8
Layer 1
10
5295.168859
20
-3661.669727
11
5300.900146
21
-3663.366810
0
LINE
8
Layer 1
10
5300.900146
20
-3663.366810
11
5306.745567
21
-3664.787853
0
LINE
8
Layer 1
10
5306.745567
20
-3664.787853
11
5312.697692
21
-3665.925326
0
LINE
8
Layer 1
10
5312.697692
20
-3665.925326
11
5318.749092
21
-3666.771696
0
LINE
8
Layer 1
10
5318.749092
20
-3666.771696
11
5324.892338
21
-3667.319431
0
LINE
8
Layer 1
10
5324.892338
20
-3667.319431
11
5331.120000
21
-3667.561000
0
LINE
8
Layer 1
10
5400.880000
20
-3667.470000
11
5330.890000
21
-3667.470000
0
LINE
8
Layer 1
10
5401.110000
20
-3667.560000
11
5407.337662
21
-3667.318431
0
LINE
8
Layer 1
10
5407.337662
20
-3667.318431
11
5413.480908
21
-3666.770696
0
LINE
8
Layer 1
10
5413.480908
20
-3666.770696
11
5419.532308
21
-3665.924326
0
LINE
8
Layer 1
10
5419.532308
20
-3665.924326
11
5425.484433
21
-3664.786853
0
LINE
8
Layer 1
10
5425.484433
20
-3664.786853
11
5431.329854
21
-3663.365810
0
LINE
8
Layer 1
10
5431.329854
20
-3663.365810
11
5437.061141
21
-3661.668727
0
LINE
8
Layer 1
10
5437.061141
20
-3661.668727
11
5442.670865
21
-3659.703138
0
LINE
8
Layer 1
10
5442.670865
20
-3659.703138
11
5448.151596
21
-3657.476573
0
LINE
8
Layer 1
10
5448.151596
20
-3657.476573
11
5453.495906
21
-3654.996566
0
LINE
8
Layer 1
10
5453.495906
20
-3654.996566
11
5458.696365
21
-3652.270647
0
LINE
8
Layer 1
10
5458.696365
20
-3652.270647
11
5463.745544
21
-3649.306349
0
LINE
8
Layer 1
10
5463.745544
20
-3649.306349
11
5468.636014
21
-3646.111203
0
LINE
8
Layer 1
10
5468.636014
20
-3646.111203
11
5473.360344
21
-3642.692742
0
LINE
8
Layer 1
10
5473.360344
20
-3642.692742
11
5477.911107
21
-3639.058498
0
LINE
8
Layer 1
10
5477.911107
20
-3639.058498
11
5482.280872
21
-3635.216001
0
LINE
8
Layer 1
10
5482.280872
20
-3635.216001
11
5486.462210
21
-3631.172786
0
LINE
8
Layer 1
10
5486.462210
20
-3631.172786
11
5490.447692
21
-3626.936382
0
LINE
8
Layer 1
10
5490.447692
20
-3626.936382
11
5494.229889
21
-3622.514322
0
LINE
8
Layer 1
10
5494.229889
20
-3622.514322
11
5497.801371
21
-3617.914139
0
LINE
8
Layer 1
10
5497.801371
20
-3617.914139
11
5501.154709
21
-3613.143364
0
LINE
8
Layer 1
10
5501.154709
20
-3613.143364
11
5504.282474
21
-3608.209528
0
LINE
8
Layer 1
10
5504.282474
20
-3608.209528
11
5507.177236
21
-3603.120164
0
LINE
8
Layer 1
10
5507.177236
20
-3603.120164
11
5509.831566
21
-3597.882804
0
LINE
8
Layer 1
10
5509.831566
20
-3597.882804
11
5512.238035
21
-3592.504980
0
LINE
8
Layer 1
10
5512.238035
20
-3592.504980
11
5514.389214
21
-3586.994223
0
LINE
8
Layer 1
10
5514.389214
20
-3586.994223
11
5516.277672
21
-3581.358066
0
LINE
8
Layer 1
10
5516.277672
20
-3581.358066
11
5517.895982
21
-3575.604040
0
LINE
8
Layer 1
10
5517.895982
20
-3575.604040
11
5519.236713
21
-3569.739678
0
LINE
8
Layer 1
10
5519.236713
20
-3569.739678
11
5520.292436
21
-3563.772511
0
LINE
8
Layer 1
10
5520.292436
20
-3563.772511
11
5521.055723
21
-3557.710071
0
LINE
8
Layer 1
10
5521.055723
20
-3557.710071
11
5521.519143
21
-3551.559890
0
LINE
8
Layer 1
10
5521.519143
20
-3551.559890
11
5521.675267
21
-3545.329500
0
LINE
8
Layer 1
10
5521.675267
20
-3545.329500
11
5521.519143
21
-3539.099110
0
LINE
8
Layer 1
10
5521.519143
20
-3539.099110
11
5521.055723
21
-3532.948929
0
LINE
8
Layer 1
10
5521.055723
20
-3532.948929
11
5520.292436
21
-3526.886489
0
LINE
8
Layer 1
10
5520.292436
20
-3526.886489
11
5519.236713
21
-3520.919322
0
LINE
8
Layer 1
10
5519.236713
20
-3520.919322
11
5517.895982
21
-3515.054960
0
LINE
8
Layer 1
10
5517.895982
20
-3515.054960
11
5516.277672
21
-3509.300934
0
LINE
8
Layer 1
10
5516.277672
20
-3509.300934
11
5514.389214
21
-3503.664777
0
LINE
8
Layer 1
10
5514.389214
20
-3503.664777
11
5512.238035
21
-3498.154020
0
LINE
8
Layer 1
10
5512.238035
20
-3498.154020
11
5509.831566
21
-3492.776196
0
LINE
8
Layer 1
10
5509.831566
20
-3492.776196
11
5507.177236
21
-3487.538836
0
LINE
8
Layer 1
10
5507.177236
20
-3487.538836
11
5504.282474
21
-3482.449472
0
LINE
8
Layer 1
10
5504.282474
20
-3482.449472
11
5501.154709
21
-3477.515636
0
LINE
8
Layer 1
10
5501.154709
20
-3477.515636
11
5497.801371
21
-3472.744861
0
LINE
8
Layer 1
10
5497.801371
20
-3472.744861
11
5494.229889
21
-3468.144678
0
LINE
8
Layer 1
10
5494.229889
20
-3468.144678
11
5490.447692
21
-3463.722618
0
LINE
8
Layer 1
10
5490.447692
20
-3463.722618
11
5486.462210
21
-3459.486214
0
LINE
8
Layer 1
10
5486.462210
20
-3459.486214
11
5482.280872
21
-3455.442999
0
LINE
8
Layer 1
10
5482.280872
20
-3455.442999
11
5477.911107
21
-3451.600502
0
LINE
8
Layer 1
10
5477.911107
20
-3451.600502
11
5473.360344
21
-3447.966258
0
LINE
8
Layer 1
10
5473.360344
20
-3447.966258
11
5468.636014
21
-3444.547797
0
LINE
8
Layer 1
10
5468.636014
20
-3444.547797
11
5463.745544
21
-3441.352651
0
LINE
8
Layer 1
10
5463.745544
20
-3441.352651
11
5458.696365
21
-3438.388353
0
LINE
8
Layer 1
10
5458.696365
20
-3438.388353
11
5453.495906
21
-3435.662434
0
LINE
8
Layer 1
10
5453.495906
20
-3435.662434
11
5448.151596
21
-3433.182427
0
LINE
8
Layer 1
10
5448.151596
20
-3433.182427
11
5442.670865
21
-3430.955862
0
LINE
8
Layer 1
10
5442.670865
20
-3430.955862
11
5437.061141
21
-3428.990273
0
LINE
8
Layer 1
10
5437.061141
20
-3428.990273
11
5431.329854
21
-3427.293190
0
LINE
8
Layer 1
10
5431.329854
20
-3427.293190
11
5425.484433
21
-3425.872147
0
LINE
8
Layer 1
10
5425.484433
20
-3425.872147
11
5419.532308
21
-3424.734674
0
LINE
8
Layer 1
10
5419.532308
20
-3424.734674
11
5413.480908
21
-3423.888304
0
LINE
8
Layer 1
10
5413.480908
20
-3423.888304
11
5407.337662
21
-3423.340569
0
LINE
8
Layer 1
10
5407.337662
20
-3423.340569
11
5401.110000
21
-3423.099000
0
LINE
8
Layer 1
10
3547.530000
20
-3423.070000
11
3477.540000
21
-3423.070000
0
LINE
8
Layer 1
10
3547.530000
20
-3667.470000
11
3477.540000
21
-3667.470000
0
LINE
8
Layer 1
10
3547.780000
20
-3667.560000
11
3554.007662
21
-3667.318431
0
LINE
8
Layer 1
10
3554.007662
20
-3667.318431
11
3560.150908
21
-3666.770696
0
LINE
8
Layer 1
10
3560.150908
20
-3666.770696
11
3566.202308
21
-3665.924326
0
LINE
8
Layer 1
10
3566.202308
20
-3665.924326
11
3572.154433
21
-3664.786853
0
LINE
8
Layer 1
10
3572.154433
20
-3664.786853
11
3577.999854
21
-3663.365810
0
LINE
8
Layer 1
10
3577.999854
20
-3663.365810
11
3583.731141
21
-3661.668727
0
LINE
8
Layer 1
10
3583.731141
20
-3661.668727
11
3589.340865
21
-3659.703138
0
LINE
8
Layer 1
10
3589.340865
20
-3659.703138
11
3594.821596
21
-3657.476573
0
LINE
8
Layer 1
10
3594.821596
20
-3657.476573
11
3600.165906
21
-3654.996566
0
LINE
8
Layer 1
10
3600.165906
20
-3654.996566
11
3605.366365
21
-3652.270647
0
LINE
8
Layer 1
10
3605.366365
20
-3652.270647
11
3610.415544
21
-3649.306349
0
LINE
8
Layer 1
10
3610.415544
20
-3649.306349
11
3615.306014
21
-3646.111203
0
LINE
8
Layer 1
10
3615.306014
20
-3646.111203
11
3620.030344
21
-3642.692742
0
LINE
8
Layer 1
10
3620.030344
20
-3642.692742
11
3624.581107
21
-3639.058498
0
LINE
8
Layer 1
10
3624.581107
20
-3639.058498
11
3628.950872
21
-3635.216001
0
LINE
8
Layer 1
10
3628.950872
20
-3635.216001
11
3633.132210
21
-3631.172786
0
LINE
8
Layer 1
10
3633.132210
20
-3631.172786
11
3637.117692
21
-3626.936382
0
LINE
8
Layer 1
10
3637.117692
20
-3626.936382
11
3640.899889
21
-3622.514322
0
LINE
8
Layer 1
10
3640.899889
20
-3622.514322
11
3644.471371
21
-3617.914139
0
LINE
8
Layer 1
10
3644.471371
20
-3617.914139
11
3647.824709
21
-3613.143364
0
LINE
8
Layer 1
10
3647.824709
20
-3613.143364
11
3650.952474
21
-3608.209528
0
LINE
8
Layer 1
10
3650.952474
20
-3608.209528
11
3653.847236
21
-3603.120164
0
LINE
8
Layer 1
10
3653.847236
20
-3603.120164
11
3656.501566
21
-3597.882804
0
LINE
8
Layer 1
10
3656.501566
20
-3597.882804
11
3658.908035
21
-3592.504980
0
LINE
8
Layer 1
10
3658.908035
20
-3592.504980
11
3661.059214
21
-3586.994223
0
LINE
8
Layer 1
10
3661.059214
20
-3586.994223
11
3662.947672
21
-3581.358066
0
LINE
8
Layer 1
10
3662.947672
20
-3581.358066
11
3664.565982
21
-3575.604040
0
LINE
8
Layer 1
10
3664.565982
20
-3575.604040
11
3665.906713
21
-3569.739678
0
LINE
8
Layer 1
10
3665.906713
20
-3569.739678
11
3666.962436
21
-3563.772511
0
LINE
8
Layer 1
10
3666.962436
20
-3563.772511
11
3667.725723
21
-3557.710071
0
LINE
8
Layer 1
10
3667.725723
20
-3557.710071
11
3668.189143
21
-3551.559890
0
LINE
8
Layer 1
10
3668.189143
20
-3551.559890
11
3668.345267
21
-3545.329500
0
LINE
8
Layer 1
10
3668.345267
20
-3545.329500
11
3668.189143
21
-3539.099110
0
LINE
8
Layer 1
10
3668.189143
20
-3539.099110
11
3667.725723
21
-3532.948929
0
LINE
8
Layer 1
10
3667.725723
20
-3532.948929
11
3666.962436
21
-3526.886489
0
LINE
8
Layer 1
10
3666.962436
20
-3526.886489
11
3665.906713
21
-3520.919322
0
LINE
8
Layer 1
10
3665.906713
20
-3520.919322
11
3664.565982
21
-3515.054960
0
LINE
8
Layer 1
10
3664.565982
20
-3515.054960
11
3662.947672
21
-3509.300934
0
LINE
8
Layer 1
10
3662.947672
20
-3509.300934
11
3661.059214
21
-3503.664777
0
LINE
8
Layer 1
10
3661.059214
20
-3503.664777
11
3658.908035
21
-3498.154020
0
LINE
8
Layer 1
10
3658.908035
20
-3498.154020
11
3656.501566
21
-3492.776196
0
LINE
8
Layer 1
10
3656.501566
20
-3492.776196
11
3653.847236
21
-3487.538836
0
LINE
8
Layer 1
10
3653.847236
20
-3487.538836
11
3650.952474
21
-3482.449472
0
LINE
8
Layer 1
10
3650.952474
20
-3482.449472
11
3647.824709
21
-3477.515636
0
LINE
8
Layer 1
10
3647.824709
20
-3477.515636
11
3644.471371
21
-3472.744861
0
LINE
8
Layer 1
10
3644.471371
20
-3472.744861
11
3640.899889
21
-3468.144678
0
LINE
8
Layer 1
10
3640.899889
20
-3468.144678
11
3637.117692
21
-3463.722618
0
LINE
8
Layer 1
10
3637.117692
20
-3463.722618
11
3633.132210
21
-3459.486214
0
LINE
8
Layer 1
10
3633.132210
20
-3459.486214
11
3628.950872
21
-3455.442999
0
LINE
8
Layer 1
10
3628.950872
20
-3455.442999
11
3624.581107
21
-3451.600502
0
LINE
8
Layer 1
10
3624.581107
20
-3451.600502
11
3620.030344
21
-3447.966258
0
LINE
8
Layer 1
10
3620.030344
20
-3447.966258
11
3615.306014
21
-3444.547797
0
LINE
8
Layer 1
10
3615.306014
20
-3444.547797
11
3610.415544
21
-3441.352651
0
LINE
8
Layer 1
10
3610.415544
20
-3441.352651
11
3605.366365
21
-3438.388353
0
LINE
8
Layer 1
10
3605.366365
20
-3438.388353
11
3600.165906
21
-3435.662434
0
LINE
8
Layer 1
10
3600.165906
20
-3435.662434
11
3594.821596
21
-3433.182427
0
LINE
8
Layer 1
10
3594.821596
20
-3433.182427
11
3589.340865
21
-3430.955862
0
LINE
8
Layer 1
10
3589.340865
20
-3430.955862
11
3583.731141
21
-3428.990273
0
LINE
8
Layer 1
10
3583.731141
20
-3428.990273
11
3577.999854
21
-3427.293190
0
LINE
8
Layer 1
10
3577.999854
20
-3427.293190
11
3572.154433
21
-3425.872147
0
LINE
8
Layer 1
10
3572.154433
20
-3425.872147
11
3566.202308
21
-3424.734674
0
LINE
8
Layer 1
10
3566.202308
20
-3424.734674
11
3560.150908
21
-3423.888304
0
LINE
8
Layer 1
10
3560.150908
20
-3423.888304
11
3554.007662
21
-3423.340569
0
LINE
8
Layer 1
10
3554.007662
20
-3423.340569
11
3547.780000
21
-3423.099000
0
LINE
8
Layer 1
10
3477.770000
20
-3423.100000
11
3471.542338
21
-3423.341569
0
LINE
8
Layer 1
10
3471.542338
20
-3423.341569
11
3465.399092
21
-3423.889304
0
LINE
8
Layer 1
10
3465.399092
20
-3423.889304
11
3459.347692
21
-3424.735674
0
LINE
8
Layer 1
10
3459.347692
20
-3424.735674
11
3453.395567
21
-3425.873147
0
LINE
8
Layer 1
10
3453.395567
20
-3425.873147
11
3447.550146
21
-3427.294190
0
LINE
8
Layer 1
10
3447.550146
20
-3427.294190
11
3441.818859
21
-3428.991273
0
LINE
8
Layer 1
10
3441.818859
20
-3428.991273
11
3436.209135
21
-3430.956862
0
LINE
8
Layer 1
10
3436.209135
20
-3430.956862
11
3430.728404
21
-3433.183427
0
LINE
8
Layer 1
10
3430.728404
20
-3433.183427
11
3425.384094
21
-3435.663434
0
LINE
8
Layer 1
10
3425.384094
20
-3435.663434
11
3420.183635
21
-3438.389353
0
LINE
8
Layer 1
10
3420.183635
20
-3438.389353
11
3415.134456
21
-3441.353651
0
LINE
8
Layer 1
10
3415.134456
20
-3441.353651
11
3410.243986
21
-3444.548797
0
LINE
8
Layer 1
10
3410.243986
20
-3444.548797
11
3405.519656
21
-3447.967258
0
LINE
8
Layer 1
10
3405.519656
20
-3447.967258
11
3400.968893
21
-3451.601502
0
LINE
8
Layer 1
10
3400.968893
20
-3451.601502
11
3396.599128
21
-3455.443999
0
LINE
8
Layer 1
10
3396.599128
20
-3455.443999
11
3392.417790
21
-3459.487214
0
LINE
8
Layer 1
10
3392.417790
20
-3459.487214
11
3388.432308
21
-3463.723618
0
LINE
8
Layer 1
10
3388.432308
20
-3463.723618
11
3384.650111
21
-3468.145678
0
LINE
8
Layer 1
10
3384.650111
20
-3468.145678
11
3381.078629
21
-3472.745861
0
LINE
8
Layer 1
10
3381.078629
20
-3472.745861
11
3377.725291
21
-3477.516636
0
LINE
8
Layer 1
10
3377.725291
20
-3477.516636
11
3374.597526
21
-3482.450472
0
LINE
8
Layer 1
10
3374.597526
20
-3482.450472
11
3371.702764
21
-3487.539836
0
LINE
8
Layer 1
10
3371.702764
20
-3487.539836
11
3369.048434
21
-3492.777196
0
LINE
8
Layer 1
10
3369.048434
20
-3492.777196
11
3366.641965
21
-3498.155020
0
LINE
8
Layer 1
10
3366.641965
20
-3498.155020
11
3364.490786
21
-3503.665777
0
LINE
8
Layer 1
10
3364.490786
20
-3503.665777
11
3362.602328
21
-3509.301934
0
LINE
8
Layer 1
10
3362.602328
20
-3509.301934
11
3360.984018
21
-3515.055960
0
LINE
8
Layer 1
10
3360.984018
20
-3515.055960
11
3359.643287
21
-3520.920322
0
LINE
8
Layer 1
10
3359.643287
20
-3520.920322
11
3358.587564
21
-3526.887489
0
LINE
8
Layer 1
10
3358.587564
20
-3526.887489
11
3357.824277
21
-3532.949929
0
LINE
8
Layer 1
10
3357.824277
20
-3532.949929
11
3357.360857
21
-3539.100110
0
LINE
8
Layer 1
10
3357.360857
20
-3539.100110
11
3357.204733
21
-3545.330500
0
LINE
8
Layer 1
10
3357.204733
20
-3545.330500
11
3357.360857
21
-3551.560890
0
LINE
8
Layer 1
10
3357.360857
20
-3551.560890
11
3357.824277
21
-3557.711071
0
LINE
8
Layer 1
10
3357.824277
20
-3557.711071
11
3358.587564
21
-3563.773511
0
LINE
8
Layer 1
10
3358.587564
20
-3563.773511
11
3359.643287
21
-3569.740678
0
LINE
8
Layer 1
10
3359.643287
20
-3569.740678
11
3360.984018
21
-3575.605040
0
LINE
8
Layer 1
10
3360.984018
20
-3575.605040
11
3362.602328
21
-3581.359066
0
LINE
8
Layer 1
10
3362.602328
20
-3581.359066
11
3364.490786
21
-3586.995223
0
LINE
8
Layer 1
10
3364.490786
20
-3586.995223
11
3366.641965
21
-3592.505980
0
LINE
8
Layer 1
10
3366.641965
20
-3592.505980
11
3369.048434
21
-3597.883804
0
LINE
8
Layer 1
10
3369.048434
20
-3597.883804
11
3371.702764
21
-3603.121164
0
LINE
8
Layer 1
10
3371.702764
20
-3603.121164
11
3374.597526
21
-3608.210528
0
LINE
8
Layer 1
10
3374.597526
20
-3608.210528
11
3377.725291
21
-3613.144364
0
LINE
8
Layer 1
10
3377.725291
20
-3613.144364
11
3381.078629
21
-3617.915139
0
LINE
8
Layer 1
10
3381.078629
20
-3617.915139
11
3384.650111
21
-3622.515322
0
LINE
8
Layer 1
10
3384.650111
20
-3622.515322
11
3388.432308
21
-3626.937382
0
LINE
8
Layer 1
10
3388.432308
20
-3626.937382
11
3392.417790
21
-3631.173786
0
LINE
8
Layer 1
10
3392.417790
20
-3631.173786
11
3396.599128
21
-3635.217001
0
LINE
8
Layer 1
10
3396.599128
20
-3635.217001
11
3400.968893
21
-3639.059498
0
LINE
8
Layer 1
10
3400.968893
20
-3639.059498
11
3405.519656
21
-3642.693742
0
LINE
8
Layer 1
10
3405.519656
20
-3642.693742
11
3410.243986
21
-3646.112203
0
LINE
8
Layer 1
10
3410.243986
20
-3646.112203
11
3415.134456
21
-3649.307349
0
LINE
8
Layer 1
10
3415.134456
20
-3649.307349
11
3420.183635
21
-3652.271647
0
LINE
8
Layer 1
10
3420.183635
20
-3652.271647
11
3425.384094
21
-3654.997566
0
LINE
8
Layer 1
10
3425.384094
20
-3654.997566
11
3430.728404
21
-3657.477573
0
LINE
8
Layer 1
10
3430.728404
20
-3657.477573
11
3436.209135
21
-3659.704138
0
LINE
8
Layer 1
10
3436.209135
20
-3659.704138
11
3441.818859
21
-3661.669727
0
LINE
8
Layer 1
10
3441.818859
20
-3661.669727
11
3447.550146
21
-3663.366810
0
LINE
8
Layer 1
10
3447.550146
20
-3663.366810
11
3453.395567
21
-3664.787853
0
LINE
8
Layer 1
10
3453.395567
20
-3664.787853
11
3459.347692
21
-3665.925326
0
LINE
8
Layer 1
10
3459.347692
20
-3665.925326
11
3465.399092
21
-3666.771696
0
LINE
8
Layer 1
10
3465.399092
20
-3666.771696
11
3471.542338
21
-3667.319431
0
LINE
8
Layer 1
10
3471.542338
20
-3667.319431
11
3477.770000
21
-3667.561000
0
LINE
8
Layer 1
10
9266.480000
20
-3046.300000
11
3130.970000
21
-3046.300000
0
LINE
8
Layer 1
10
9266.480000
20
-3933.050000
11
9266.480000
21
-3046.300000
0
LINE
8
Layer 1
10
3130.970000
20
-3933.050000
11
9266.480000
21
-3933.050000
0
LINE
8
Layer 1
10
3130.970000
20
-3046.300000
11
3130.970000
21
-3933.050000
0
LINE
8
Layer 1
10
5400.880000
20
-3423.070000
11
5330.890000
21
-3423.070000
0
LINE
8
Layer 1
10
5331.120000
20
-3423.100000
11
5324.892338
21
-3423.341569
0
LINE
8
Layer 1
10
5324.892338
20
-3423.341569
11
5318.749092
21
-3423.889304
0
LINE
8
Layer 1
10
5318.749092
20
-3423.889304
11
5312.697692
21
-3424.735674
0
LINE
8
Layer 1
10
5312.697692
20
-3424.735674
11
5306.745567
21
-3425.873147
0
LINE
8
Layer 1
10
5306.745567
20
-3425.873147
11
5300.900146
21
-3427.294190
0
LINE
8
Layer 1
10
5300.900146
20
-3427.294190
11
5295.168859
21
-3428.991273
0
LINE
8
Layer 1
10
5295.168859
20
-3428.991273
11
5289.559135
21
-3430.956862
0
LINE
8
Layer 1
10
5289.559135
20
-3430.956862
11
5284.078404
21
-3433.183427
0
LINE
8
Layer 1
10
5284.078404
20
-3433.183427
11
5278.734094
21
-3435.663434
0
LINE
8
Layer 1
10
5278.734094
20
-3435.663434
11
5273.533635
21
-3438.389353
0
LINE
8
Layer 1
10
5273.533635
20
-3438.389353
11
5268.484456
21
-3441.353651
0
LINE
8
Layer 1
10
5268.484456
20
-3441.353651
11
5263.593986
21
-3444.548797
0
LINE
8
Layer 1
10
5263.593986
20
-3444.548797
11
5258.869656
21
-3447.967258
0
LINE
8
Layer 1
10
5258.869656
20
-3447.967258
11
5254.318893
21
-3451.601502
0
LINE
8
Layer 1
10
5254.318893
20
-3451.601502
11
5249.949128
21
-3455.443999
0
LINE
8
Layer 1
10
5249.949128
20
-3455.443999
11
5245.767790
21
-3459.487214
0
LINE
8
Layer 1
10
5245.767790
20
-3459.487214
11
5241.782308
21
-3463.723618
0
LINE
8
Layer 1
10
5241.782308
20
-3463.723618
11
5238.000111
21
-3468.145678
0
LINE
8
Layer 1
10
5238.000111
20
-3468.145678
11
5234.428629
21
-3472.745861
0
LINE
8
Layer 1
10
5234.428629
20
-3472.745861
11
5231.075291
21
-3477.516636
0
LINE
8
Layer 1
10
5231.075291
20
-3477.516636
11
5227.947526
21
-3482.450472
0
LINE
8
Layer 1
10
5227.947526
20
-3482.450472
11
5225.052764
21
-3487.539836
0
LINE
8
Layer 1
10
5225.052764
20
-3487.539836
11
5222.398434
21
-3492.777196
0
LINE
8
Layer 1
10
5222.398434
20
-3492.777196
11
5219.991965
21
-3498.155020
0
LINE
8
Layer 1
10
5219.991965
20
-3498.155020
11
5217.840786
21
-3503.665777
0
LINE
8
Layer 1
10
5217.840786
20
-3503.665777
11
5215.952328
21
-3509.301934
0
LINE
8
Layer 1
10
5215.952328
20
-3509.301934
11
5214.334018
21
-3515.055960
0
LINE
8
Layer 1
10
5214.334018
20
-3515.055960
11
5212.993287
21
-3520.920322
0
LINE
8
Layer 1
10
5212.993287
20
-3520.920322
11
5211.937564
21
-3526.887489
0
LINE
8
Layer 1
10
5211.937564
20
-3526.887489
11
5211.174277
21
-3532.949929
0
LINE
8
Layer 1
10
5211.174277
20
-3532.949929
11
5210.710857
21
-3539.100110
0
LINE
8
Layer 1
10
5210.710857
20
-3539.100110
11
5210.554733
21
-3545.330500
0
LINE
8
Layer 1
10
5210.554733
20
-3545.330500
11
5210.710857
21
-3551.560890
0
LINE
8
Layer 1
10
5210.710857
20
-3551.560890
11
5211.174277
21
-3557.711071
0
LINE
8
Layer 1
10
5211.174277
20
-3557.711071
11
5211.937564
21
-3563.773511
0
LINE
8
Layer 1
10
5211.937564
20
-3563.773511
11
5212.993287
21
-3569.740678
0
LINE
8
Layer 1
10
5212.993287
20
-3569.740678
11
5214.334018
21
-3575.605040
0
LINE
8
Layer 1
10
5214.334018
20
-3575.605040
11
5215.952328
21
-3581.359066
0
LINE
8
Layer 1
10
5215.952328
20
-3581.359066
11
5217.840786
21
-3586.995223
0
LINE
8
Layer 1
10
5217.840786
20
-3586.995223
11
5219.991965
21
-3592.505980
0
LINE
8
Layer 1
10
5219.991965
20
-3592.505980
11
5222.398434
21
-3597.883804
0
LINE
8
Layer 1
10
5222.398434
20
-3597.883804
11
5225.052764
21
-3603.121164
0
LINE
8
Layer 1
10
5225.052764
20
-3603.121164
11
5227.947526
21
-3608.210528
0
LINE
8
Layer 1
10
5227.947526
20
-3608.210528
11
5231.075291
21
-3613.144364
0
LINE
8
Layer 1
10
5231.075291
20
-3613.144364
11
5234.428629
21
-3617.915139
0
LINE
8
Layer 1
10
5234.428629
20
-3617.915139
11
5238.000111
21
-3622.515322
0
LINE
8
Layer 1
10
5238.000111
20
-3622.515322
11
5241.782308
21
-3626.937382
0
LINE
8
Layer 1
10
5241.782308
20
-3626.937382
11
5245.767790
21
-3631.173786
0
LINE
8
Layer 1
10
5245.767790
20
-3631.173786
11
5249.949128
21
-3635.217001
0
LINE
8
Layer 1
10
5249.949128
20
-3635.217001
11
5254.318893
21
-3639.059498
0
LINE
8
Layer 1
10
5254.318893
20
-3639.059498
11
5258.869656
21
-3642.693742
0
LINE
8
Layer 1
10
5258.869656
20
-3642.693742
11
5263.593986
21
-3646.112203
0
LINE
8
Layer 1
10
5263.593986
20
-3646.112203
11
5268.484456
21
-3649.307349
0
LINE
8
Layer 1
10
5268.484456
20
-3649.307349
11
5273.533635
21
-3652.271647
0
LINE
8
Layer 1
10
5273.533635
20
-3652.271647
11
5278.734094
21
-3654.997566
0
LINE
8
Layer 1
10
5278.734094
20
-3654.997566
11
5284.078404
21
-3657.477573
0
LINE
8
Layer 1
10
5284.078404
20
-3657.477573
11
5289.559135
21
-3659.704138
0
LINE
8
Layer 1
10
5289.559135
20
-3659.704138
11
5295.168859
21
-3661.669727
0
LINE
8
Layer 1
10
5295.168859
20
-3661.669727
11
5300.900146
21
-3663.366810
0
LINE
8
Layer 1
10
5300.900146
20
-3663.366810
11
5306.745567
21
-3664.787853
0
LINE
8
Layer 1
10
5306.745567
20
-3664.787853
11
5312.697692
21
-3665.925326
0
LINE
8
Layer 1
10
5312.697692
20
-3665.925326
11
5318.749092
21
-3666.771696
0
LINE
8
Layer 1
10
5318.749092
20
-3666.771696
11
5324.892338
21
-3667.319431
0
LINE
8
Layer 1
10
5324.892338
20
-3667.319431
11
5331.120000
21
-3667.561000
0
LINE
8
Layer 1
10
5400.880000
20
-3667.470000
11
5330.890000
21
-3667.470000
0
LINE
8
Layer 1
10
5401.110000
20
-3667.560000
11
5407.337662
21
-3667.318431
0
LINE
8
Layer 1
10
5407.337662
20
-3667.318431
11
5413.480908
21
-3666.770696
0
LINE
8
Layer 1
10
5413.480908
20
-3666.770696
11
5419.532308
21
-3665.924326
0
LINE
8
Layer 1
10
5419.532308
20
-3665.924326
11
5425.484433
21
-3664.786853
0
LINE
8
Layer 1
10
5425.484433
20
-3664.786853
11
5431.329854
21
-3663.365810
0
LINE
8
Layer 1
10
5431.329854
20
-3663.365810
11
5437.061141
21
-3661.668727
0
LINE
8
Layer 1
10
5437.061141
20
-3661.668727
11
5442.670865
21
-3659.703138
0
LINE
8
Layer 1
10
5442.670865
20
-3659.703138
11
5448.151596
21
-3657.476573
0
LINE
8
Layer 1
10
5448.151596
20
-3657.476573
11
5453.495906
21
-3654.996566
0
LINE
8
Layer 1
10
5453.495906
20
-3654.996566
11
5458.696365
21
-3652.270647
0
LINE
8
Layer 1
10
5458.696365
20
-3652.270647
11
5463.745544
21
-3649.306349
0
LINE
8
Layer 1
10
5463.745544
20
-3649.306349
11
5468.636014
21
-3646.111203
0
LINE
8
Layer 1
10
5468.636014
20
-3646.111203
11
5473.360344
21
-3642.692742
0
LINE
8
Layer 1
10
5473.360344
20
-3642.692742
11
5477.911107
21
-3639.058498
0
LINE
8
Layer 1
10
5477.911107
20
-3639.058498
11
5482.280872
21
-3635.216001
0
LINE
8
Layer 1
10
5482.280872
20
-3635.216001
11
5486.462210
21
-3631.172786
0
LINE
8
Layer 1
10
5486.462210
20
-3631.172786
11
5490.447692
21
-3626.936382
0
LINE
8
Layer 1
10
5490.447692
20
-3626.936382
11
5494.229889
21
-3622.514322
0
LINE
8
Layer 1
10
5494.229889
20
-3622.514322
11
5497.801371
21
-3617.914139
0
LINE
8
Layer 1
10
5497.801371
20
-3617.914139
11
5501.154709
21
-3613.143364
0
LINE
8
Layer 1
10
5501.154709
20
-3613.143364
11
5504.282474
21
-3608.209528
0
LINE
8
Layer 1
10
5504.282474
20
-3608.209528
11
5507.177236
21
-3603.120164
0
LINE
8
Layer 1
10
5507.177236
20
-3603.120164
11
5509.831566
21
-3597.882804
0
LINE
8
Layer 1
10
5509.831566
20
-3597.882804
11
5512.238035
21
-3592.504980
0
LINE
8
Layer 1
10
5512.238035
20
-3592.504980
11
5514.389214
21
-3586.994223
0
LINE
8
Layer 1
10
5514.389214
20
-3586.994223
11
5516.277672
21
-3581.358066
0
LINE
8
Layer 1
10
5516.277672
20
-3581.358066
11
5517.895982
21
-3575.604040
0
LINE
8
Layer 1
10
5517.895982
20
-3575.604040
11
5519.236713
21
-3569.739678
0
LINE
8
Layer 1
10
5519.236713
20
-3569.739678
11
5520.292436
21
-3563.772511
0
LINE
8
Layer 1
10
5520.292436
20
-3563.772511
11
5521.055723
21
-3557.710071
0
LINE
8
Layer 1
10
5521.055723
20
-3557.710071
11
5521.519143
21
-3551.559890
0
LINE
8
Layer 1
10
5521.519143
20
-3551.559890
11
5521.675267
21
-3545.329500
0
LINE
8
Layer 1
10
5521.675267
20
-3545.329500
11
5521.519143
21
-3539.099110
0
LINE
8
Layer 1
10
5521.519143
20
-3539.099110
11
5521.055723
21
-3532.948929
0
LINE
8
Layer 1
10
5521.055723
20
-3532.948929
11
5520.292436
21
-3526.886489
0
LINE
8
Layer 1
10
5520.292436
20
-3526.886489
11
5519.236713
21
-3520.919322
0
LINE
8
Layer 1
10
5519.236713
20
-3520.919322
11
5517.895982
21
-3515.054960
0
LINE
8
Layer 1
10
5517.895982
20
-3515.054960
11
5516.277672
21
-3509.300934
0
LINE
8
Layer 1
10
5516.277672
20
-3509.300934
11
5514.389214
21
-3503.664777
0
LINE
8
Layer 1
10
5514.389214
20
-3503.664777
11
5512.238035
21
-3498.154020
0
LINE
8
Layer 1
10
5512.238035
20
-3498.154020
11
5509.831566
21
-3492.776196
0
LINE
8
Layer 1
10
5509.831566
20
-3492.776196
11
5507.177236
21
-3487.538836
0
LINE
8
Layer 1
10
5507.177236
20
-3487.538836
11
5504.282474
21
-3482.449472
0
LINE
8
Layer 1
10
5504.282474
20
-3482.449472
11
5501.154709
21
-3477.515636
0
LINE
8
Layer 1
10
5501.154709
20
-3477.515636
11
5497.801371
21
-3472.744861
0
LINE
8
Layer 1
10
5497.801371
20
-3472.744861
11
5494.229889
21
-3468.144678
0
LINE
8
Layer 1
10
5494.229889
20
-3468.144678
11
5490.447692
21
-3463.722618
0
LINE
8
Layer 1
10
5490.447692
20
-3463.722618
11
5486.462210
21
-3459.486214
0
LINE
8
Layer 1
10
5486.462210
20
-3459.486214
11
5482.280872
21
-3455.442999
0
LINE
8
Layer 1
10
5482.280872
20
-3455.442999
11
5477.911107
21
-3451.600502
0
LINE
8
Layer 1
10
5477.911107
20
-3451.600502
11
5473.360344
21
-3447.966258
0
LINE
8
Layer 1
10
5473.360344
20
-3447.966258
11
5468.636014
21
-3444.547797
0
LINE
8
Layer 1
10
5468.636014
20
-3444.547797
11
5463.745544
21
-3441.352651
0
LINE
8
Layer 1
10
5463.745544
20
-3441.352651
11
5458.696365
21
-3438.388353
0
LINE
8
Layer 1
10
5458.696365
20
-3438.388353
11
5453.495906
21
-3435.662434
0
LINE
8
Layer 1
10
5453.495906
20
-3435.662434
11
5448.151596
21
-3433.182427
0
LINE
8
Layer 1
10
5448.151596
20
-3433.182427
11
5442.670865
21
-3430.955862
0
LINE
8
Layer 1
10
5442.670865
20
-3430.955862
11
5437.061141
21
-3428.990273
0
LINE
8
Layer 1
10
5437.061141
20
-3428.990273
11
5431.329854
21
-3427.293190
0
LINE
8
Layer 1
10
5431.329854
20
-3427.293190
11
5425.484433
21
-3425.872147
0
LINE
8
Layer 1
10
5425.484433
20
-3425.872147
11
5419.532308
21
-3424.734674
0
LINE
8
Layer 1
10
5419.532308
20
-3424.734674
11
5413.480908
21
-3423.888304
0
LINE
8
Layer 1
10
5413.480908
20
-3423.888304
11
5407.337662
21
-3423.340569
0
LINE
8
Layer 1
10
5407.337662
20
-3423.340569
11
5401.110000
21
-3423.099000
0
LINE
8
Layer 1
10
3547.530000
20
-3423.070000
11
3477.540000
21
-3423.070000
0
LINE
8
Layer 1
10
3547.530000
20
-3667.470000
11
3477.540000
21
-3667.470000
0
LINE
8
Layer 1
10
3547.780000
20
-3667.560000
11
3554.007662
21
-3667.318431
0
LINE
8
Layer 1
10
3554.007662
20
-3667.318431
11
3560.150908
21
-3666.770696
0
LINE
8
Layer 1
10
3560.150908
20
-3666.770696
11
3566.202308
21
-3665.924326
0
LINE
8
Layer 1
10
3566.202308
20
-3665.924326
11
3572.154433
21
-3664.786853
0
LINE
8
Layer 1
10
3572.154433
20
-3664.786853
11
3577.999854
21
-3663.365810
0
LINE
8
Layer 1
10
3577.999854
20
-3663.365810
11
3583.731141
21
-3661.668727
0
LINE
8
Layer 1
10
3583.731141
20
-3661.668727
11
3589.340865
21
-3659.703138
0
LINE
8
Layer 1
10
3589.340865
20
-3659.703138
11
3594.821596
21
-3657.476573
0
LINE
8
Layer 1
10
3594.821596
20
-3657.476573
11
3600.165906
21
-3654.996566
0
LINE
8
Layer 1
10
3600.165906
20
-3654.996566
11
3605.366365
21
-3652.270647
0
LINE
8
Layer 1
10
3605.366365
20
-3652.270647
11
3610.415544
21
-3649.306349
0
LINE
8
Layer 1
10
3610.415544
20
-3649.306349
11
3615.306014
21
-3646.111203
0
LINE
8
Layer 1
10
3615.306014
20
-3646.111203
11
3620.030344
21
-3642.692742
0
LINE
8
Layer 1
10
3620.030344
20
-3642.692742
11
3624.581107
21
-3639.058498
0
LINE
8
Layer 1
10
3624.581107
20
-3639.058498
11
3628.950872
21
-3635.216001
0
LINE
8
Layer 1
10
3628.950872
20
-3635.216001
11
3633.132210
21
-3631.172786
0
LINE
8
Layer 1
10
3633.132210
20
-3631.172786
11
3637.117692
21
-3626.936382
0
LINE
8
Layer 1
10
3637.117692
20
-3626.936382
11
3640.899889
21
-3622.514322
0
LINE
8
Layer 1
10
3640.899889
20
-3622.514322
11
3644.471371
21
-3617.914139
0
LINE
8
Layer 1
10
3644.471371
20
-3617.914139
11
3647.824709
21
-3613.143364
0
LINE
8
Layer 1
10
3647.824709
20
-3613.143364
11
3650.952474
21
-3608.209528
0
LINE
8
Layer 1
10
3650.952474
20
-3608.209528
11
3653.847236
21
-3603.120164
0
LINE
8
Layer 1
10
3653.847236
20
-3603.120164
11
3656.501566
21
-3597.882804
0
LINE
8
Layer 1
10
3656.501566
20
-3597.882804
11
3658.908035
21
-3592.504980
0
LINE
8
Layer 1
10
3658.908035
20
-3592.504980
11
3661.059214
21
-3586.994223
0
LINE
8
Layer 1
10
3661.059214
20
-3586.994223
11
3662.947672
21
-3581.358066
0
LINE
8
Layer 1
10
3662.947672
20
-3581.358066
11
3664.565982
21
-3575.604040
0
LINE
8
Layer 1
10
3664.565982
20
-3575.604040
11
3665.906713
21
-3569.739678
0
LINE
8
Layer 1
10
3665.906713
20
-3569.739678
11
3666.962436
21
-3563.772511
0
LINE
8
Layer 1
10
3666.962436
20
-3563.772511
11
3667.725723
21
-3557.710071
0
LINE
8
Layer 1
10
3667.725723
20
-3557.710071
11
3668.189143
21
-3551.559890
0
LINE
8
Layer 1
10
3668.189143
20
-3551.559890
11
3668.345267
21
-3545.329500
0
LINE
8
Layer 1
10
3668.345267
20
-3545.329500
11
3668.189143
21
-3539.099110
0
LINE
8
Layer 1
10
3668.189143
20
-3539.099110
11
3667.725723
21
-3532.948929
0
LINE
8
Layer 1
10
3667.725723
20
-3532.948929
11
3666.962436
21
-3526.886489
0
LINE
8
Layer 1
10
3666.962436
20
-3526.886489
11
3665.906713
21
-3520.919322
0
LINE
8
Layer 1
10
3665.906713
20
-3520.919322
11
3664.565982
21
-3515.054960
0
LINE
8
Layer 1
10
3664.565982
20
-3515.054960
11
3662.947672
21
-3509.300934
0
LINE
8
Layer 1
10
3662.947672
20
-3509.300934
11
3661.059214
21
-3503.664777
0
LINE
8
Layer 1
10
3661.059214
20
-3503.664777
11
3658.908035
21
-3498.154020
0
LINE
8
Layer 1
10
3658.908035
20
-3498.154020
11
3656.501566
21
-3492.776196
0
LINE
8
Layer 1
10
3656.501566
20
-3492.776196
11
3653.847236
21
-3487.538836
0
LINE
8
Layer 1
10
3653.847236
20
-3487.538836
11
3650.952474
21
-3482.449472
0
LINE
8
Layer 1
10
3650.952474
20
-3482.449472
11
3647.824709
21
-3477.515636
0
LINE
8
Layer 1
10
3647.824709
20
-3477.515636
11
3644.471371
21
-3472.744861
0
LINE
8
Layer 1
10
3644.471371
20
-3472.744861
11
3640.899889
21
-3468.144678
0
LINE
8
Layer 1
10
3640.899889
20
-3468.144678
11
3637.117692
21
-3463.722618
0
LINE
8
Layer 1
10
3637.117692
20
-3463.722618
11
3633.132210
21
-3459.486214
0
LINE
8
Layer 1
10
3633.132210
20
-3459.486214
11
3628.950872
21
-3455.442999
0
LINE
8
Layer 1
10
3628.950872
20
-3455.442999
11
3624.581107
21
-3451.600502
0
LINE
8
Layer 1
10
3624.581107
20
-3451.600502
11
3620.030344
21
-3447.966258
0
LINE
8
Layer 1
10
3620.030344
20
-3447.966258
11
3615.306014
21
-3444.547797
0
LINE
8
Layer 1
10
3615.306014
20
-3444.547797
11
3610.415544
21
-3441.352651
0
LINE
8
Layer 1
10
3610.415544
20
-3441.352651
11
3605.366365
21
-3438.388353
0
LINE
8
Layer 1
10
3605.366365
20
-3438.388353
11
3600.165906
21
-3435.662434
0
LINE
8
Layer 1
10
3600.165906
20
-3435.662434
11
3594.821596
21
-3433.182427
0
LINE
8
Layer 1
10
3594.821596
20
-3433.182427
11
3589.340865
21
-3430.955862
0
LINE
8
Layer 1
10
3589.340865
20
-3430.955862
11
3583.731141
21
-3428.990273
0
LINE
8
Layer 1
10
3583.731141
20
-3428.990273
11
3577.999854
21
-3427.293190
0
LINE
8
Layer 1
10
3577.999854
20
-3427.293190
11
3572.154433
21
-3425.872147
0
LINE
8
Layer 1
10
3572.154433
20
-3425.872147
11
3566.202308
21
-3424.734674
0
LINE
8
Layer 1
10
3566.202308
20
-3424.734674
11
3560.150908
21
-3423.888304
0
LINE
8
Layer 1
10
3560.150908
20
-3423.888304
11
3554.007662
21
-3423.340569
0
LINE
8
Layer 1
10
3554.007662
20
-3423.340569
11
3547.780000
21
-3423.099000
0
LINE
8
Layer 1
10
3477.770000
20
-3423.100000
11
3471.542338
21
-3423.341569
0
LINE
8
Layer 1
10
3471.542338
20
-3423.341569
11
3465.399092
21
-3423.889304
0
LINE
8
Layer 1
10
3465.399092
20
-3423.889304
11
3459.347692
21
-3424.735674
0
LINE
8
Layer 1
10
3459.347692
20
-3424.735674
11
3453.395567
21
-3425.873147
0
LINE
8
Layer 1
10
3453.395567
20
-3425.873147
11
3447.550146
21
-3427.294190
0
LINE
8
Layer 1
10
3447.550146
20
-3427.294190
11
3441.818859
21
-3428.991273
0
LINE
8
Layer 1
10
3441.818859
20
-3428.991273
11
3436.209135
21
-3430.956862
0
LINE
8
Layer 1
10
3436.209135
20
-3430.956862
11
3430.728404
21
-3433.183427
0
LINE
8
Layer 1
10
3430.728404
20
-3433.183427
11
3425.384094
21
-3435.663434
0
LINE
8
Layer 1
10
3425.384094
20
-3435.663434
11
3420.183635
21
-3438.389353
0
LINE
8
Layer 1
10
3420.183635
20
-3438.389353
11
3415.134456
21
-3441.353651
0
LINE
8
Layer 1
10
3415.134456
20
-3441.353651
11
3410.243986
21
-3444.548797
0
LINE
8
Layer 1
10
3410.243986
20
-3444.548797
11
3405.519656
21
-3447.967258
0
LINE
8
Layer 1
10
3405.519656
20
-3447.967258
11
3400.968893
21
-3451.601502
0
LINE
8
Layer 1
10
3400.968893
20
-3451.601502
11
3396.599128
21
-3455.443999
0
LINE
8
Layer 1
10
3396.599128
20
-3455.443999
11
3392.417790
21
-3459.487214
0
LINE
8
Layer 1
10
3392.417790
20
-3459.487214
11
3388.432308
21
-3463.723618
0
LINE
8
Layer 1
10
3388.432308
20
-3463.723618
11
3384.650111
21
-3468.145678
0
LINE
8
Layer 1
10
3384.650111
20
-3468.145678
11
3381.078629
21
-3472.745861
0
LINE
8
Layer 1
10
3381.078629
20
-3472.745861
11
3377.725291
21
-3477.516636
0
LINE
8
Layer 1
10
3377.725291
20
-3477.516636
11
3374.597526
21
-3482.450472
0
LINE
8
Layer 1
10
3374.597526
20
-3482.450472
11
3371.702764
21
-3487.539836
0
LINE
8
Layer 1
10
3371.702764
20
-3487.539836
11
3369.048434
21
-3492.777196
0
LINE
8
Layer 1
10
3369.048434
20
-3492.777196
11
3366.641965
21
-3498.155020
0
LINE
8
Layer 1
10
3366.641965
20
-3498.155020
11
3364.490786
21
-3503.665777
0
LINE
8
Layer 1
10
3364.490786
20
-3503.665777
11
3362.602328
21
-3509.301934
0
LINE
8
Layer 1
10
3362.602328
20
-3509.301934
11
3360.984018
21
-3515.055960
0
LINE
8
Layer 1
10
3360.984018
20
-3515.055960
11
3359.643287
21
-3520.920322
0
LINE
8
Layer 1
10
3359.643287
20
-3520.920322
11
3358.587564
21
-3526.887489
0
LINE
8
Layer 1
10
3358.587564
20
-3526.887489
11
3357.824277
21
-3532.949929
0
LINE
8
Layer 1
10
3357.824277
20
-3532.949929
11
3357.360857
21
-3539.100110
0
LINE
8
Layer 1
10
3357.360857
20
-3539.100110
11
3357.204733
21
-3545.330500
0
LINE
8
Layer 1
10
3357.204733
20
-3545.330500
11
3357.360857
21
-3551.560890
0
LINE
8
Layer 1
10
3357.360857
20
-3551.560890
11
3357.824277
21
-3557.711071
0
LINE
8
Layer 1
10
3357.824277
20
-3557.711071
11
3358.587564
21
-3563.773511
0
LINE
8
Layer 1
10
3358.587564
20
-3563.773511
11
3359.643287
21
-3569.740678
0
LINE
8
Layer 1
10
3359.643287
20
-3569.740678
11
3360.984018
21
-3575.605040
0
LINE
8
Layer 1
10
3360.984018
20
-3575.605040
11
3362.602328
21
-3581.359066
0
LINE
8
Layer 1
10
3362.602328
20
-3581.359066
11
3364.490786
21
-3586.995223
0
LINE
8
Layer 1
10
3364.490786
20
-3586.995223
11
3366.641965
21
-3592.505980
0
LINE
8
Layer 1
10
3366.641965
20
-3592.505980
11
3369.048434
21
-3597.883804
0
LINE
8
Layer 1
10
3369.048434
20
-3597.883804
11
3371.702764
21
-3603.121164
0
LINE
8
Layer 1
10
3371.702764
20
-3603.121164
11
3374.597526
21
-3608.210528
0
LINE
8
Layer 1
10
3374.597526
20
-3608.210528
11
3377.725291
21
-3613.144364
0
LINE
8
Layer 1
10
3377.725291
20
-3613.144364
11
3381.078629
21
-3617.915139
0
LINE
8
Layer 1
10
3381.078629
20
-3617.915139
11
3384.650111
21
-3622.515322
0
LINE
8
Layer 1
10
3384.650111
20
-3622.515322
11
3388.432308
21
-3626.937382
0
LINE
8
Layer 1
10
3388.432308
20
-3626.937382
11
3392.417790
21
-3631.173786
0
LINE
8
Layer 1
10
3392.417790
20
-3631.173786
11
3396.599128
21
-3635.217001
0
LINE
8
Layer 1
10
3396.599128
20
-3635.217001
11
3400.968893
21
-3639.059498
0
LINE
8
Layer 1
10
3400.968893
20
-3639.059498
11
3405.519656
21
-3642.693742
0
LINE
8
Layer 1
10
3405.519656
20
-3642.693742
11
3410.243986
21
-3646.112203
0
LINE
8
Layer 1
10
3410.243986
20
-3646.112203
11
3415.134456
21
-3649.307349
0
LINE
8
Layer 1
10
3415.134456
20
-3649.307349
11
3420.183635
21
-3652.271647
0
LINE
8
Layer 1
10
3420.183635
20
-3652.271647
11
3425.384094
21
-3654.997566
0
LINE
8
Layer 1
10
3425.384094
20
-3654.997566
11
3430.728404
21
-3657.477573
0
LINE
8
Layer 1
10
3430.728404
20
-3657.477573
11
3436.209135
21
-3659.704138
0
LINE
8
Layer 1
10
3436.209135
20
-3659.704138
11
3441.818859
21
-3661.669727
0
LINE
8
Layer 1
10
3441.818859
20
-3661.669727
11
3447.550146
21
-3663.366810
0
LINE
8
Layer 1
10
3447.550146
20
-3663.366810
11
3453.395567
21
-3664.787853
0
LINE
8
Layer 1
10
3453.395567
20
-3664.787853
11
3459.347692
21
-3665.925326
0
LINE
8
Layer 1
10
3459.347692
20
-3665.925326
11
3465.399092
21
-3666.771696
0
LINE
8
Layer 1
10
3465.399092
20
-3666.771696
11
3471.542338
21
-3667.319431
0
LINE
8
Layer 1
10
3471.542338
20
-3667.319431
11
3477.770000
21
-3667.561000
0
LINE
8
Layer 1
10
9266.480000
20
-3046.300000
11
3130.970000
21
-3046.300000
0
LINE
8
Layer 1
10
9266.480000
20
-3933.050000
11
9266.480000
21
-3046.300000
0
LINE
8
Layer 1
10
3130.970000
20
-3933.050000
11
9266.480000
21
-3933.050000
0
LINE
8
Layer 1
10
3130.970000
20
-3046.300000
11
3130.970000
21
-3933.050000
0
LINE
8
Layer 1
10
5400.880000
20
-3423.070000
11
5330.890000
21
-3423.070000
0
LINE
8
Layer 1
10
5331.120000
20
-3423.100000
11
5324.892338
21
-3423.341569
0
LINE
8
Layer 1
10
5324.892338
20
-3423.341569
11
5318.749092
21
-3423.889304
0
LINE
8
Layer 1
10
5318.749092
20
-3423.889304
11
5312.697692
21
-3424.735674
0
LINE
8
Layer 1
10
5312.697692
20
-3424.735674
11
5306.745567
21
-3425.873147
0
LINE
8
Layer 1
10
5306.745567
20
-3425.873147
11
5300.900146
21
-3427.294190
0
LINE
8
Layer 1
10
5300.900146
20
-3427.294190
11
5295.168859
21
-3428.991273
0
LINE
8
Layer 1
10
5295.168859
20
-3428.991273
11
5289.559135
21
-3430.956862
0
LINE
8
Layer 1
10
5289.559135
20
-3430.956862
11
5284.078404
21
-3433.183427
0
LINE
8
Layer 1
10
5284.078404
20
-3433.183427
11
5278.734094
21
-3435.663434
0
LINE
8
Layer 1
10
5278.734094
20
-3435.663434
11
5273.533635
21
-3438.389353
0
LINE
8
Layer 1
10
5273.533635
20
-3438.389353
11
5268.484456
21
-3441.353651
0
LINE
8
Layer 1
10
5268.484456
20
-3441.353651
11
5263.593986
21
-3444.548797
0
LINE
8
Layer 1
10
5263.593986
20
-3444.548797
11
5258.869656
21
-3447.967258
0
LINE
8
Layer 1
10
5258.869656
20
-3447.967258
11
5254.318893
21
-3451.601502
0
LINE
8
Layer 1
10
5254.318893
20
-3451.601502
11
5249.949128
21
-3455.443999
0
LINE
8
Layer 1
10
5249.949128
20
-3455.443999
11
5245.767790
21
-3459.487214
0
LINE
8
Layer 1
10
5245.767790
20
-3459.487214
11
5241.782308
21
-3463.723618
0
LINE
8
Layer 1
10
5241.782308
20
-3463.723618
11
5238.000111
21
-3468.145678
0
LINE
8
Layer 1
10
5238.000111
20
-3468.145678
11
5234.428629
21
-3472.745861
0
LINE
8
Layer 1
10
5234.428629
20
-3472.745861
11
5231.075291
21
-3477.516636
0
LINE
8
Layer 1
10
5231.075291
20
-3477.516636
11
5227.947526
21
-3482.450472
0
LINE
8
Layer 1
10
5227.947526
20
-3482.450472
11
5225.052764
21
-3487.539836
0
LINE
8
Layer 1
10
5225.052764
20
-3487.539836
11
5222.398434
21
-3492.777196
0
LINE
8
Layer 1
10
5222.398434
20
-3492.777196
11
5219.991965
21
-3498.155020
0
LINE
8
Layer 1
10
5219.991965
20
-3498.155020
11
5217.840786
21
-3503.665777
0
LINE
8
Layer 1
10
5217.840786
20
-3503.665777
11
5215.952328
21
-3509.301934
0
LINE
8
Layer 1
10
5215.952328
20
-3509.301934
11
5214.334018
21
-3515.055960
0
LINE
8
Layer 1
10
5214.334018
20
-3515.055960
11
5212.993287
21
-3520.920322
0
LINE
8
Layer 1
10
5212.993287
20
-3520.920322
11
5211.937564
21
-3526.887489
0
LINE
8
Layer 1
10
5211.937564
20
-3526.887489
11
5211.174277
21
-3532.949929
0
LINE
8
Layer 1
10
5211.174277
20
-3532.949929
11
5210.710857
21
-3539.100110
0
LINE
8
Layer 1
10
5210.710857
20
-3539.100110
11
5210.554733
21
-3545.330500
0
LINE
8
Layer 1
10
5210.554733
20
-3545.330500
11
5210.710857
21
-3551.560890
0
LINE
8
Layer 1
10
5210.710857
20
-3551.560890
11
5211.174277
21
-3557.711071
0
LINE
8
Layer 1
10
5211.174277
20
-3557.711071
11
5211.937564
21
-3563.773511
0
LINE
8
Layer 1
10
5211.937564
20
-3563.773511
11
5212.993287
21
-3569.740678
0
LINE
8
Layer 1
10
5212.993287
20
-3569.740678
11
5214.334018
21
-3575.605040
0
LINE
8
Layer 1
10
5214.334018
20
-3575.605040
11
5215.952328
21
-3581.359066
0
LINE
8
Layer 1
10
5215.952328
20
-3581.359066
11
5217.840786
21
-3586.995223
0
LINE
8
Layer 1
10
5217.840786
20
-3586.995223
11
5219.991965
21
-3592.505980
0
LINE
8
Layer 1
10
5219.991965
20
-3592.505980
11
5222.398434
21
-3597.883804
0
LINE
8
Layer 1
10
5222.398434
20
-3597.883804
11
5225.052764
21
-3603.121164
0
LINE
8
Layer 1
10
5225.052764
20
-3603.121164
11
5227.947526
21
-3608.210528
0
LINE
8
Layer 1
10
5227.947526
20
-3608.210528
11
5231.075291
21
-3613.144364
0
LINE
8
Layer 1
10
5231.075291
20
-3613.144364
11
5234.428629
21
-3617.915139
0
LINE
8
Layer 1
10
5234.428629
20
-3617.915139
11
5238.000111
21
-3622.515322
0
LINE
8
Layer 1
10
5238.000111
20
-3622.515322
11
5241.782308
21
-3626.937382
0
LINE
8
Layer 1
10
5241.782308
20
-3626.937382
11
5245.767790
21
-3631.173786
0
LINE
8
Layer 1
10
5245.767790
20
-3631.173786
11
5249.949128
21
-3635.217001
0
LINE
8
Layer 1
10
5249.949128
20
-3635.217001
11
5254.318893
21
-3639.059498
0
LINE
8
Layer 1
10
5254.318893
20
-3639.059498
11
5258.869656
21
-3642.693742
0
LINE
8
Layer 1
10
5258.869656
20
-3642.693742
11
5263.593986
21
-3646.112203
0
LINE
8
Layer 1
10
5263.593986
20
-3646.112203
11
5268.484456
21
-3649.307349
0
LINE
8
Layer 1
10
5268.484456
20
-3649.307349
11
5273.533635
21
-3652.271647
0
LINE
8
Layer 1
10
5273.533635
20
-3652.271647
11
5278.734094
21
-3654.997566
0
LINE
8
Layer 1
10
5278.734094
20
-3654.997566
11
5284.078404
21
-3657.477573
0
LINE
8
Layer 1
10
5284.078404
20
-3657.477573
11
5289.559135
21
-3659.704138
0
LINE
8
Layer 1
10
5289.559135
20
-3659.704138
11
5295.168859
21
-3661.669727
0
LINE
8
Layer 1
10
5295.168859
20
-3661.669727
11
5300.900146
21
-3663.366810
0
LINE
8
Layer 1
10
5300.900146
20
-3663.366810
11
5306.745567
21
-3664.787853
0
LINE
8
Layer 1
10
5306.745567
20
-3664.787853
11
5312.697692
21
-3665.925326
0
LINE
8
Layer 1
10
5312.697692
20
-3665.925326
11
5318.749092
21
-3666.771696
0
LINE
8
Layer 1
10
5318.749092
20
-3666.771696
11
5324.892338
21
-3667.319431
0
LINE
8
Layer 1
10
5324.892338
20
-3667.319431
11
5331.120000
21
-3667.561000
0
LINE
8
Layer 1
10
5400.880000
20
-3667.470000
11
5330.890000
21
-3667.470000
0
LINE
8
Layer 1
10
5401.110000
20
-3667.560000
11
5407.337662
21
-3667.318431
0
LINE
8
Layer 1
10
5407.337662
20
-3667.318431
11
5413.480908
21
-3666.770696
0
LINE
8
Layer 1
10
5413.480908
20
-3666.770696
11
5419.532308
21
-3665.924326
0
LINE
8
Layer 1
10
5419.532308
20
-3665.924326
11
5425.484433
21
-3664.786853
0
LINE
8
Layer 1
10
5425.484433
20
-3664.786853
11
5431.329854
21
-3663.365810
0
LINE
8
Layer 1
10
5431.329854
20
-3663.365810
11
5437.061141
21
-3661.668727
0
LINE
8
Layer 1
10
5437.061141
20
-3661.668727
11
5442.670865
21
-3659.703138
0
LINE
8
Layer 1
10
5442.670865
20
-3659.703138
11
5448.151596
21
-3657.476573
0
LINE
8
Layer 1
10
5448.151596
20
-3657.476573
11
5453.495906
21
-3654.996566
0
LINE
8
Layer 1
10
5453.495906
20
-3654.996566
11
5458.696365
21
-3652.270647
0
LINE
8
Layer 1
10
5458.696365
20
-3652.270647
11
5463.745544
21
-3649.306349
0
LINE
8
Layer 1
10
5463.745544
20
-3649.306349
11
5468.636014
21
-3646.111203
0
LINE
8
Layer 1
10
5468.636014
20
-3646.111203
11
5473.360344
21
-3642.692742
0
LINE
8
Layer 1
10
5473.360344
20
-3642.692742
11
5477.911107
21
-3639.058498
0
LINE
8
Layer 1
10
5477.911107
20
-3639.058498
11
5482.280872
21
-3635.216001
0
LINE
8
Layer 1
10
5482.280872
20
-3635.216001
11
5486.462210
21
-3631.172786
0
LINE
8
Layer 1
10
5486.462210
20
-3631.172786
11
5490.447692
21
-3626.936382
0
LINE
8
Layer 1
10
5490.447692
20
-3626.936382
11
5494.229889
21
-3622.514322
0
LINE
8
Layer 1
10
5494.229889
20
-3622.514322
11
5497.801371
21
-3617.914139
0
LINE
8
Layer 1
10
5497.801371
20
-3617.914139
11
5501.154709
21
-3613.143364
0
LINE
8
Layer 1
10
5501.154709
20
-3613.143364
11
5504.282474
21
-3608.209528
0
LINE
8
Layer 1
10
5504.282474
20
-3608.209528
11
5507.177236
21
-3603.120164
0
LINE
8
Layer 1
10
5507.177236
20
-3603.120164
11
5509.831566
21
-3597.882804
0
LINE
8
Layer 1
10
5509.831566
20
-3597.882804
11
5512.238035
21
-3592.504980
0
LINE
8
Layer 1
10
5512.238035
20
-3592.504980
11
5514.389214
21
-3586.994223
0
LINE
8
Layer 1
10
5514.389214
20
-3586.994223
11
5516.277672
21
-3581.358066
0
LINE
8
Layer 1
10
5516.277672
20
-3581.358066
11
5517.895982
21
-3575.604040
0
LINE
8
Layer 1
10
5517.895982
20
-3575.604040
11
5519.236713
21
-3569.739678
0
LINE
8
Layer 1
10
5519.236713
20
-3569.739678
11
5520.292436
21
-3563.772511
0
LINE
8
Layer 1
10
5520.292436
20
-3563.772511
11
5521.055723
21
-3557.710071
0
LINE
8
Layer 1
10
5521.055723
20
-3557.710071
11
5521.519143
21
-3551.559890
0
LINE
8
Layer 1
10
5521.519143
20
-3551.559890
11
5521.675267
21
-3545.329500
0
LINE
8
Layer 1
10
5521.675267
20
-3545.329500
11
5521.519143
21
-3539.099110
0
LINE
8
Layer 1
10
5521.519143
20
-3539.099110
11
5521.055723
21
-3532.948929
0
LINE
8
Layer 1
10
5521.055723
20
-3532.948929
11
5520.292436
21
-3526.886489
0
LINE
8
Layer 1
10
5520.292436
20
-3526.886489
11
5519.236713
21
-3520.919322
0
LINE
8
Layer 1
10
5519.236713
20
-3520.919322
11
5517.895982
21
-3515.054960
0
LINE
8
Layer 1
10
5517.895982
20
-3515.054960
11
5516.277672
21
-3509.300934
0
LINE
8
Layer 1
10
5516.277672
20
-3509.300934
11
5514.389214
21
-3503.664777
0
LINE
8
Layer 1
10
5514.389214
20
-3503.664777
11
5512.238035
21
-3498.154020
0
LINE
8
Layer 1
10
5512.238035
20
-3498.154020
11
5509.831566
21
-3492.776196
0
LINE
8
Layer 1
10
5509.831566
20
-3492.776196
11
5507.177236
21
-3487.538836
0
LINE
8
Layer 1
10
5507.177236
20
-3487.538836
11
5504.282474
21
-3482.449472
0
LINE
8
Layer 1
10
5504.282474
20
-3482.449472
11
5501.154709
21
-3477.515636
0
LINE
8
Layer 1
10
5501.154709
20
-3477.515636
11
5497.801371
21
-3472.744861
0
LINE
8
Layer 1
10
5497.801371
20
-3472.744861
11
5494.229889
21
-3468.144678
0
LINE
8
Layer 1
10
5494.229889
20
-3468.144678
11
5490.447692
21
-3463.722618
0
LINE
8
Layer 1
10
5490.447692
20
-3463.722618
11
5486.462210
21
-3459.486214
0
LINE
8
Layer 1
10
5486.462210
20
-3459.486214
11
5482.280872
21
-3455.442999
0
LINE
8
Layer 1
10
5482.280872
20
-3455.442999
11
5477.911107
21
-3451.600502
0
LINE
8
Layer 1
10
5477.911107
20
-3451.600502
11
5473.360344
21
-3447.966258
0
LINE
8
Layer 1
10
5473.360344
20
-3447.966258
11
5468.636014
21
-3444.547797
0
LINE
8
Layer 1
10
5468.636014
20
-3444.547797
11
5463.745544
21
-3441.352651
0
LINE
8
Layer 1
10
5463.745544
20
-3441.352651
11
5458.696365
21
-3438.388353
0
LINE
8
Layer 1
10
5458.696365
20
-3438.388353
11
5453.495906
21
-3435.662434
0
LINE
8
Layer 1
10
5453.495906
20
-3435.662434
11
5448.151596
21
-3433.182427
0
LINE
8
Layer 1
10
5448.151596
20
-3433.182427
11
5442.670865
21
-3430.955862
0
LINE
8
Layer 1
10
5442.670865
20
-3430.955862
11
5437.061141
21
-3428.990273
0
LINE
8
Layer 1
10
5437.061141
20
-3428.990273
11
5431.329854
21
-3427.293190
0
LINE
8
Layer 1
10
5431.329854
20
-3427.293190
11
5425.484433
21
-3425.872147
0
LINE
8
Layer 1
10
5425.484433
20
-3425.872147
11
5419.532308
21
-3424.734674
0
LINE
8
Layer 1
10
5419.532308
20
-3424.734674
11
5413.480908
21
-3423.888304
0
LINE
8
Layer 1
10
5413.480908
20
-3423.888304
11
5407.337662
21
-3423.340569
0
LINE
8
Layer 1
10
5407.337662
20
-3423.340569
11
5401.110000
21
-3423.099000
0
LINE
8
Layer 1
10
3547.530000
20
-3423.070000
11
3477.540000
21
-3423.070000
0
LINE
8
Layer 1
10
3547.530000
20
-3667.470000
11
3477.540000
21
-3667.470000
0
LINE
8
Layer 1
10
3547.780000
20
-3667.560000
11
3554.007662
21
-3667.318431
0
LINE
8
Layer 1
10
3554.007662
20
-3667.318431
11
3560.150908
21
-3666.770696
0
LINE
8
Layer 1
10
3560.150908
20
-3666.770696
11
3566.202308
21
-3665.924326
0
LINE
8
Layer 1
10
3566.202308
20
-3665.924326
11
3572.154433
21
-3664.786853
0
LINE
8
Layer 1
10
3572.154433
20
-3664.786853
11
3577.999854
21
-3663.365810
0
LINE
8
Layer 1
10
3577.999854
20
-3663.365810
11
3583.731141
21
-3661.668727
0
LINE
8
Layer 1
10
3583.731141
20
-3661.668727
11
3589.340865
21
-3659.703138
0
LINE
8
Layer 1
10
3589.340865
20
-3659.703138
11
3594.821596
21
-3657.476573
0
LINE
8
Layer 1
10
3594.821596
20
-3657.476573
11
3600.165906
21
-3654.996566
0
LINE
8
Layer 1
10
3600.165906
20
-3654.996566
11
3605.366365
21
-3652.270647
0
LINE
8
Layer 1
10
3605.366365
20
-3652.270647
11
3610.415544
21
-3649.306349
0
LINE
8
Layer 1
10
3610.415544
20
-3649.306349
11
3615.306014
21
-3646.111203
0
LINE
8
Layer 1
10
3615.306014
20
-3646.111203
11
3620.030344
21
-3642.692742
0
LINE
8
Layer 1
10
3620.030344
20
-3642.692742
11
3624.581107
21
-3639.058498
0
LINE
8
Layer 1
10
3624.581107
20
-3639.058498
11
3628.950872
21
-3635.216001
0
LINE
8
Layer 1
10
3628.950872
20
-3635.216001
11
3633.132210
21
-3631.172786
0
LINE
8
Layer 1
10
3633.132210
20
-3631.172786
11
3637.117692
21
-3626.936382
0
LINE
8
Layer 1
10
3637.117692
20
-3626.936382
11
3640.899889
21
-3622.514322
0
LINE
8
Layer 1
10
3640.899889
20
-3622.514322
11
3644.471371
21
-3617.914139
0
LINE
8
Layer 1
10
3644.471371
20
-3617.914139
11
3647.824709
21
-3613.143364
0
LINE
8
Layer 1
10
3647.824709
20
-3613.143364
11
3650.952474
21
-3608.209528
0
LINE
8
Layer 1
10
3650.952474
20
-3608.209528
11
3653.847236
21
-3603.120164
0
LINE
8
Layer 1
10
3653.847236
20
-3603.120164
11
3656.501566
21
-3597.882804
0
LINE
8
Layer 1
10
3656.501566
20
-3597.882804
11
3658.908035
21
-3592.504980
0
LINE
8
Layer 1
10
3658.908035
20
-3592.504980
11
3661.059214
21
-3586.994223
0
LINE
8
Layer 1
10
3661.059214
20
-3586.994223
11
3662.947672
21
-3581.358066
0
LINE
8
Layer 1
10
3662.947672
20
-3581.358066
11
3664.565982
21
-3575.604040
0
LINE
8
Layer 1
10
3664.565982
20
-3575.604040
11
3665.906713
21
-3569.739678
0
LINE
8
Layer 1
10
3665.906713
20
-3569.739678
11
3666.962436
21
-3563.772511
0
LINE
8
Layer 1
10
3666.962436
20
-3563.772511
11
3667.725723
21
-3557.710071
0
LINE
8
Layer 1
10
3667.725723
20
-3557.710071
11
3668.189143
21
-3551.559890
0
LINE
8
Layer 1
10
3668.189143
20
-3551.559890
11
3668.345267
21
-3545.329500
0
LINE
8
Layer 1
10
3668.345267
20
-3545.329500
11
3668.189143
21
-3539.099110
0
LINE
8
Layer 1
10
3668.189143
20
-3539.099110
11
3667.725723
21
-3532.948929
0
LINE
8
Layer 1
10
3667.725723
20
-3532.948929
11
3666.962436
21
-3526.886489
0
LINE
8
Layer 1
10
3666.962436
20
-3526.886489
11
3665.906713
21
-3520.919322
0
LINE
8
Layer 1
10
3665.906713
20
-3520.919322
11
3664.565982
21
-3515.054960
0
LINE
8
Layer 1
10
3664.565982
20
-3515.054960
11
3662.947672
21
-3509.300934
0
LINE
8
Layer 1
10
3662.947672
20
-3509.300934
11
3661.059214
21
-3503.664777
0
LINE
8
Layer 1
10
3661.059214
20
-3503.664777
11
3658.908035
21
-3498.154020
0
LINE
8
Layer 1
10
3658.908035
20
-3498.154020
11
3656.501566
21
-3492.776196
0
LINE
8
Layer 1
10
3656.501566
20
-3492.776196
11
3653.847236
21
-3487.538836
0
LINE
8
Layer 1
10
3653.847236
20
-3487.538836
11
3650.952474
21
-3482.449472
0
LINE
8
Layer 1
10
3650.952474
20
-3482.449472
11
3647.824709
21
-3477.515636
0
LINE
8
Layer 1
10
3647.824709
20
-3477.515636
11
3644.471371
21
-3472.744861
0
LINE
8
Layer 1
10
3644.471371
20
-3472.744861
11
3640.899889
21
-3468.144678
0
LINE
8
Layer 1
10
3640.899889
20
-3468.144678
11
3637.117692
21
-3463.722618
0
LINE
8
Layer 1
10
3637.117692
20
-3463.722618
11
3633.132210
21
-3459.486214
0
LINE
8
Layer 1
10
3633.132210
20
-3459.486214
11
3628.950872
21
-3455.442999
0
LINE
8
Layer 1
10
3628.950872
20
-3455.442999
11
3624.581107
21
-3451.600502
0
LINE
8
Layer 1
10
3624.581107
20
-3451.600502
11
3620.030344
21
-3447.966258
0
LINE
8
Layer 1
10
3620.030344
20
-3447.966258
11
3615.306014
21
-3444.547797
0
LINE
8
Layer 1
10
3615.306014
20
-3444.547797
11
3610.415544
21
-3441.352651
0
LINE
8
Layer 1
10
3610.415544
20
-3441.352651
11
3605.366365
21
-3438.388353
0
LINE
8
Layer 1
10
3605.366365
20
-3438.388353
11
3600.165906
21
-3435.662434
0
LINE
8
Layer 1
10
3600.165906
20
-3435.662434
11
3594.821596
21
-3433.182427
0
LINE
8
Layer 1
10
3594.821596
20
-3433.182427
11
3589.340865
21
-3430.955862
0
LINE
8
Layer 1
10
3589.340865
20
-3430.955862
11
3583.731141
21
-3428.990273
0
LINE
8
Layer 1
10
3583.731141
20
-3428.990273
11
3577.999854
21
-3427.293190
0
LINE
8
Layer 1
10
3577.999854
20
-3427.293190
11
3572.154433
21
-3425.872147
0
LINE
8
Layer 1
10
3572.154433
20
-3425.872147
11
3566.202308
21
-3424.734674
0
LINE
8
Layer 1
10
3566.202308
20
-3424.734674
11
3560.150908
21
-3423.888304
0
LINE
8
Layer 1
10
3560.150908
20
-3423.888304
11
3554.007662
21
-3423.340569
0
LINE
8
Layer 1
10
3554.007662
20
-3423.340569
11
3547.780000
21
-3423.099000
0
LINE
8
Layer 1
10
3477.770000
20
-3423.100000
11
3471.542338
21
-3423.341569
0
LINE
8
Layer 1
10
3471.542338
20
-3423.341569
11
3465.399092
21
-3423.889304
0
LINE
8
Layer 1
10
3465.399092
20
-3423.889304
11
3459.347692
21
-3424.735674
0
LINE
8
Layer 1
10
3459.347692
20
-3424.735674
11
3453.395567
21
-3425.873147
0
LINE
8
Layer 1
10
3453.395567
20
-3425.873147
11
3447.550146
21
-3427.294190
0
LINE
8
Layer 1
10
3447.550146
20
-3427.294190
11
3441.818859
21
-3428.991273
0
LINE
8
Layer 1
10
3441.818859
20
-3428.991273
11
3436.209135
21
-3430.956862
0
LINE
8
Layer 1
10
3436.209135
20
-3430.956862
11
3430.728404
21
-3433.183427
0
LINE
8
Layer 1
10
3430.728404
20
-3433.183427
11
3425.384094
21
-3435.663434
0
LINE
8
Layer 1
10
3425.384094
20
-3435.663434
11
3420.183635
21
-3438.389353
0
LINE
8
Layer 1
10
3420.183635
20
-3438.389353
11
3415.134456
21
-3441.353651
0
LINE
8
Layer 1
10
3415.134456
20
-3441.353651
11
3410.243986
21
-3444.548797
0
LINE
8
Layer 1
10
3410.243986
20
-3444.548797
11
3405.519656
21
-3447.967258
0
LINE
8
Layer 1
10
3405.519656
20
-3447.967258
11
3400.968893
21
-3451.601502
0
LINE
8
Layer 1
10
3400.968893
20
-3451.601502
11
3396.599128
21
-3455.443999
0
LINE
8
Layer 1
10
3396.599128
20
-3455.443999
11
3392.417790
21
-3459.487214
0
LINE
8
Layer 1
10
3392.417790
20
-3459.487214
11
3388.432308
21
-3463.723618
0
LINE
8
Layer 1
10
3388.432308
20
-3463.723618
11
3384.650111
21
-3468.145678
0
LINE
8
Layer 1
10
3384.650111
20
-3468.145678
11
3381.078629
21
-3472.745861
0
LINE
8
Layer 1
10
3381.078629
20
-3472.745861
11
3377.725291
21
-3477.516636
0
LINE
8
Layer 1
10
3377.725291
20
-3477.516636
11
3374.597526
21
-3482.450472
0
LINE
8
Layer 1
10
3374.597526
20
-3482.450472
11
3371.702764
21
-3487.539836
0
LINE
8
Layer 1
10
3371.702764
20
-3487.539836
11
3369.048434
21
-3492.777196
0
LINE
8
Layer 1
10
3369.048434
20
-3492.777196
11
3366.641965
21
-3498.155020
0
LINE
8
Layer 1
10
3366.641965
20
-3498.155020
11
3364.490786
21
-3503.665777
0
LINE
8
Layer 1
10
3364.490786
20
-3503.665777
11
3362.602328
21
-3509.301934
0
LINE
8
Layer 1
10
3362.602328
20
-3509.301934
11
3360.984018
21
-3515.055960
0
LINE
8
Layer 1
10
3360.984018
20
-3515.055960
11
3359.643287
21
-3520.920322
0
LINE
8
Layer 1
10
3359.643287
20
-3520.920322
11
3358.587564
21
-3526.887489
0
LINE
8
Layer 1
10
3358.587564
20
-3526.887489
11
3357.824277
21
-3532.949929
0
LINE
8
Layer 1
10
3357.824277
20
-3532.949929
11
3357.360857
21
-3539.100110
0
LINE
8
Layer 1
10
3357.360857
20
-3539.100110
11
3357.204733
21
-3545.330500
0
LINE
8
Layer 1
10
3357.204733
20
-3545.330500
11
3357.360857
21
-3551.560890
0
LINE
8
Layer 1
10
3357.360857
20
-3551.560890
11
3357.824277
21
-3557.711071
0
LINE
8
Layer 1
10
3357.824277
20
-3557.711071
11
3358.587564
21
-3563.773511
0
LINE
8
Layer 1
10
3358.587564
20
-3563.773511
11
3359.643287
21
-3569.740678
0
LINE
8
Layer 1
10
3359.643287
20
-3569.740678
11
3360.984018
21
-3575.605040
0
LINE
8
Layer 1
10
3360.984018
20
-3575.605040
11
3362.602328
21
-3581.359066
0
LINE
8
Layer 1
10
3362.602328
20
-3581.359066
11
3364.490786
21
-3586.995223
0
LINE
8
Layer 1
10
3364.490786
20
-3586.995223
11
3366.641965
21
-3592.505980
0
LINE
8
Layer 1
10
3366.641965
20
-3592.505980
11
3369.048434
21
-3597.883804
0
LINE
8
Layer 1
10
3369.048434
20
-3597.883804
11
3371.702764
21
-3603.121164
0
LINE
8
Layer 1
10
3371.702764
20
-3603.121164
11
3374.597526
21
-3608.210528
0
LINE
8
Layer 1
10
3374.597526
20
-3608.210528
11
3377.725291
21
-3613.144364
0
LINE
8
Layer 1
10
3377.725291
20
-3613.144364
11
3381.078629
21
-3617.915139
0
LINE
8
Layer 1
10
3381.078629
20
-3617.915139
11
3384.650111
21
-3622.515322
0
LINE
8
Layer 1
10
3384.650111
20
-3622.515322
11
3388.432308
21
-3626.937382
0
LINE
8
Layer 1
10
3388.432308
20
-3626.937382
11
3392.417790
21
-3631.173786
0
LINE
8
Layer 1
10
3392.417790
20
-3631.173786
11
3396.599128
21
-3635.217001
0
LINE
8
Layer 1
10
3396.599128
20
-3635.217001
11
3400.968893
21
-3639.059498
0
LINE
8
Layer 1
10
3400.968893
20
-3639.059498
11
3405.519656
21
-3642.693742
0
LINE
8
Layer 1
10
3405.519656
20
-3642.693742
11
3410.243986
21
-3646.112203
0
LINE
8
Layer 1
10
3410.243986
20
-3646.112203
11
3415.134456
21
-3649.307349
0
LINE
8
Layer 1
10
3415.134456
20
-3649.307349
11
3420.183635
21
-3652.271647
0
LINE
8
Layer 1
10
3420.183635
20
-3652.271647
11
3425.384094
21
-3654.997566
0
LINE
8
Layer 1
10
3425.384094
20
-3654.997566
11
3430.728404
21
-3657.477573
0
LINE
8
Layer 1
10
3430.728404
20
-3657.477573
11
3436.209135
21
-3659.704138
0
LINE
8
Layer 1
10
3436.209135
20
-3659.704138
11
3441.818859
21
-3661.669727
0
LINE
8
Layer 1
10
3441.818859
20
-3661.669727
11
3447.550146
21
-3663.366810
0
LINE
8
Layer 1
10
3447.550146
20
-3663.366810
11
3453.395567
21
-3664.787853
0
LINE
8
Layer 1
10
3453.395567
20
-3664.787853
11
3459.347692
21
-3665.925326
0
LINE
8
Layer 1
10
3459.347692
20
-3665.925326
11
3465.399092
21
-3666.771696
0
LINE
8
Layer 1
10
3465.399092
20
-3666.771696
11
3471.542338
21
-3667.319431
0
LINE
8
Layer 1
10
3471.542338
20
-3667.319431
11
3477.770000
21
-3667.561000
0
LINE
8
Layer 1
10
9266.480000
20
-3046.300000
11
3130.970000
21
-3046.300000
0
LINE
8
Layer 1
10
9266.480000
20
-3933.050000
11
9266.480000
21
-3046.300000
0
LINE
8
Layer 1
10
3130.970000
20
-3933.050000
11
9266.480000
21
-3933.050000
0
LINE
8
Layer 1
10
3130.970000
20
-3046.300000
11
3130.970000
21
-3933.050000
0
LINE
8
Layer 1
10
39.330100
20
28.478900
11
39.553602
21
28.571505
0
LINE
8
Layer 1
10
39.553602
20
28.571505
11
39.646158
21
28.795028
0
LINE
8
Layer 1
10
39.646100
20
55.888400
11
39.553519
21
56.111876
0
LINE
8
Layer 1
10
39.553519
20
56.111876
11
39.330042
21
56.204455
0
LINE
8
Layer 1
10
33.039300
20
55.888500
11
33.039300
21
28.795300
0
LINE
8
Layer 1
10
39.329600
20
56.204600
11
33.354700
21
56.204600
0
LINE
8
Layer 1
10
39.645800
20
28.795300
11
39.645800
21
55.888500
0
LINE
8
Layer 1
10
39.329600
20
28.479200
11
33.354700
21
28.479200
0
LINE
8
Layer 1
10
33.355400
20
56.204400
11
33.131905
21
56.111831
0
LINE
8
Layer 1
10
33.131905
20
56.111831
11
33.039314
21
55.888345
0
LINE
8
Layer 1
10
33.039300
20
28.795100
11
33.131865
21
28.571567
0
LINE
8
Layer 1
10
33.131865
20
28.571567
11
33.355386
21
28.478972
0
LINE
8
Layer 1
10
39.330100
20
28.478900
11
39.553602
21
28.571505
0
LINE
8
Layer 1
10
39.553602
20
28.571505
11
39.646158
21
28.795028
0
LINE
8
Layer 1
10
39.646100
20
55.888400
11
39.553519
21
56.111876
0
LINE
8
Layer 1
10
39.553519
20
56.111876
11
39.330042
21
56.204455
0
LINE
8
Layer 1
10
33.039300
20
55.888500
11
33.039300
21
28.795300
0
LINE
8
Layer 1
10
39.329600
20
56.204600
11
33.354700
21
56.204600
0
LINE
8
Layer 1
10
39.645800
20
28.795300
11
39.645800
21
55.888500
0
LINE
8
Layer 1
10
39.329600
20
28.479200
11
33.354700
21
28.479200
0
LINE
8
Layer 1
10
33.355400
20
56.204400
11
33.131905
21
56.111831
0
LINE
8
Layer 1
10
33.131905
20
56.111831
11
33.039314
21
55.888345
0
LINE
8
Layer 1
10
33.039300
20
28.795100
11
33.131865
21
28.571567
0
LINE
8
Layer 1
10
33.131865
20
28.571567
11
33.355386
21
28.478972
0
LINE
8
Layer 1
10
39.330100
20
28.478900
11
39.553602
21
28.571505
0
LINE
8
Layer 1
10
39.553602
20
28.571505
11
39.646158
21
28.795028
0
LINE
8
Layer 1
10
39.646100
20
55.888400
11
39.553519
21
56.111876
0
LINE
8
Layer 1
10
39.553519
20
56.111876
11
39.330042
21
56.204455
0
LINE
8
Layer 1
10
33.039300
20
55.888500
11
33.039300
21
28.795300
0
LINE
8
Layer 1
10
39.329600
20
56.204600
11
33.354700
21
56.204600
0
LINE
8
Layer 1
10
39.645800
20
28.795300
11
39.645800
21
55.888500
0
LINE
8
Layer 1
10
39.329600
20
28.479200
11
33.354700
21
28.479200
0
LINE
8
Layer 1
10
33.355400
20
56.204400
11
33.131905
21
56.111831
0
LINE
8
Layer 1
10
33.131905
20
56.111831
11
33.039314
21
55.888345
0
LINE
8
Layer 1
10
33.039300
20
28.795100
11
33.131865
21
28.571567
0
LINE
8
Layer 1
10
33.131865
20
28.571567
11
33.355386
21
28.478972
 0 
ENDSEC
 0 
EOF