999
"DXF R12 Output" (www.mydxf.blogspot.com)
 0 
SECTION
 2 
HEADER
 9 
$ACADVER
 1 
AC1009
 9 
$EXTMIN
 10 
 0 
 20 
 0 
 9 
$EXTMAX
 10 
 8.5 
 20 
 11 
 0 
ENDSEC
 0 
SECTION
 2 
ENTITIES
0
LINE
8
Layer 1
10
76520.000000
20
-17317.700000
11
76520.000000
21
-18881.300000
0
LINE
8
Layer 1
10
91854.200000
20
-9778.750000
11
91736.513000
21
-9614.215000
0
LINE
8
Layer 1
10
92101.700000
20
-19113.200000
11
76751.900000
21
-19113.482222
0
LINE
8
Layer 1
10
91736.500000
20
-9614.210000
11
79155.400000
21
-9614.210000
0
LINE
8
Layer 1
10
76520.000000
20
-18881.500000
11
76520.285659
21
-18893.014554
0
LINE
8
Layer 1
10
76520.285659
20
-18893.014554
11
76521.137080
21
-18904.450877
0
LINE
8
Layer 1
10
76521.137080
20
-18904.450877
11
76522.546370
21
-18915.789921
0
LINE
8
Layer 1
10
76522.546370
20
-18915.789921
11
76524.505634
21
-18927.012637
0
LINE
8
Layer 1
10
76524.505634
20
-18927.012637
11
76527.006976
21
-18938.099978
0
LINE
8
Layer 1
10
76527.006976
20
-18938.099978
11
76530.042504
21
-18949.032894
0
LINE
8
Layer 1
10
76530.042504
20
-18949.032894
11
76533.604323
21
-18959.792336
0
LINE
8
Layer 1
10
76533.604323
20
-18959.792336
11
76537.684537
21
-18970.359258
0
LINE
8
Layer 1
10
76537.684537
20
-18970.359258
11
76542.275254
21
-18980.714609
0
LINE
8
Layer 1
10
76542.275254
20
-18980.714609
11
76547.368578
21
-18990.839341
0
LINE
8
Layer 1
10
76547.368578
20
-18990.839341
11
76552.956615
21
-19000.714407
0
LINE
8
Layer 1
10
76552.956615
20
-19000.714407
11
76559.031471
21
-19010.320757
0
LINE
8
Layer 1
10
76559.031471
20
-19010.320757
11
76565.585252
21
-19019.639342
0
LINE
8
Layer 1
10
76565.585252
20
-19019.639342
11
76572.610062
21
-19028.651116
0
LINE
8
Layer 1
10
76572.610062
20
-19028.651116
11
76580.098008
21
-19037.337028
0
LINE
8
Layer 1
10
76580.098008
20
-19037.337028
11
76588.041196
21
-19045.678030
0
LINE
8
Layer 1
10
76588.041196
20
-19045.678030
11
76596.388012
21
-19053.615108
0
LINE
8
Layer 1
10
76596.388012
20
-19053.615108
11
76605.079404
21
-19061.096693
0
LINE
8
Layer 1
10
76605.079404
20
-19061.096693
11
76614.096318
21
-19068.114903
0
LINE
8
Layer 1
10
76614.096318
20
-19068.114903
11
76623.419700
21
-19074.661859
0
LINE
8
Layer 1
10
76623.419700
20
-19074.661859
11
76633.030495
21
-19080.729680
0
LINE
8
Layer 1
10
76633.030495
20
-19080.729680
11
76642.909649
21
-19086.310485
0
LINE
8
Layer 1
10
76642.909649
20
-19086.310485
11
76653.038108
21
-19091.396395
0
LINE
8
Layer 1
10
76653.038108
20
-19091.396395
11
76663.396818
21
-19095.979528
0
LINE
8
Layer 1
10
76663.396818
20
-19095.979528
11
76673.966724
21
-19100.052005
0
LINE
8
Layer 1
10
76673.966724
20
-19100.052005
11
76684.728772
21
-19103.605945
0
LINE
8
Layer 1
10
76684.728772
20
-19103.605945
11
76695.663907
21
-19106.633467
0
LINE
8
Layer 1
10
76695.663907
20
-19106.633467
11
76706.753076
21
-19109.126691
0
LINE
8
Layer 1
10
76706.753076
20
-19109.126691
11
76717.977224
21
-19111.077737
0
LINE
8
Layer 1
10
76717.977224
20
-19111.077737
11
76729.317297
21
-19112.478724
0
LINE
8
Layer 1
10
76729.317297
20
-19112.478724
11
76740.754240
21
-19113.321772
0
LINE
8
Layer 1
10
76740.754240
20
-19113.321772
11
76752.269000
21
-19113.599000
0
LINE
8
Layer 1
10
77037.600000
20
-17931.000000
11
77037.600000
21
-17317.700000
0
LINE
8
Layer 1
10
77138.600000
20
-18079.700000
11
77037.565000
21
-17930.969000
0
LINE
8
Layer 1
10
77037.600000
20
-17317.700000
11
76520.000000
21
-17317.700000
0
LINE
8
Layer 1
10
92333.700000
20
-15030.900000
11
92333.700000
21
-18881.300000
0
LINE
8
Layer 1
10
92334.000000
20
-8856.530000
11
92333.714341
21
-8845.015446
0
LINE
8
Layer 1
10
92333.714341
20
-8845.015446
11
92332.862920
21
-8833.579123
0
LINE
8
Layer 1
10
92332.862920
20
-8833.579123
11
92331.453630
21
-8822.240079
0
LINE
8
Layer 1
10
92331.453630
20
-8822.240079
11
92329.494366
21
-8811.017363
0
LINE
8
Layer 1
10
92329.494366
20
-8811.017363
11
92326.993024
21
-8799.930022
0
LINE
8
Layer 1
10
92326.993024
20
-8799.930022
11
92323.957496
21
-8788.997106
0
LINE
8
Layer 1
10
92323.957496
20
-8788.997106
11
92320.395677
21
-8778.237664
0
LINE
8
Layer 1
10
92320.395677
20
-8778.237664
11
92316.315463
21
-8767.670742
0
LINE
8
Layer 1
10
92316.315463
20
-8767.670742
11
92311.724746
21
-8757.315391
0
LINE
8
Layer 1
10
92311.724746
20
-8757.315391
11
92306.631422
21
-8747.190659
0
LINE
8
Layer 1
10
92306.631422
20
-8747.190659
11
92301.043385
21
-8737.315593
0
LINE
8
Layer 1
10
92301.043385
20
-8737.315593
11
92294.968529
21
-8727.709243
0
LINE
8
Layer 1
10
92294.968529
20
-8727.709243
11
92288.414748
21
-8718.390658
0
LINE
8
Layer 1
10
92288.414748
20
-8718.390658
11
92281.389938
21
-8709.378884
0
LINE
8
Layer 1
10
92281.389938
20
-8709.378884
11
92273.901992
21
-8700.692972
0
LINE
8
Layer 1
10
92273.901992
20
-8700.692972
11
92265.958804
21
-8692.351970
0
LINE
8
Layer 1
10
92265.958804
20
-8692.351970
11
92257.611988
21
-8684.414892
0
LINE
8
Layer 1
10
92257.611988
20
-8684.414892
11
92248.920596
21
-8676.933307
0
LINE
8
Layer 1
10
92248.920596
20
-8676.933307
11
92239.903682
21
-8669.915097
0
LINE
8
Layer 1
10
92239.903682
20
-8669.915097
11
92230.580300
21
-8663.368141
0
LINE
8
Layer 1
10
92230.580300
20
-8663.368141
11
92220.969505
21
-8657.300320
0
LINE
8
Layer 1
10
92220.969505
20
-8657.300320
11
92211.090351
21
-8651.719515
0
LINE
8
Layer 1
10
92211.090351
20
-8651.719515
11
92200.961892
21
-8646.633605
0
LINE
8
Layer 1
10
92200.961892
20
-8646.633605
11
92190.603182
21
-8642.050472
0
LINE
8
Layer 1
10
92190.603182
20
-8642.050472
11
92180.033276
21
-8637.977995
0
LINE
8
Layer 1
10
92180.033276
20
-8637.977995
11
92169.271228
21
-8634.424055
0
LINE
8
Layer 1
10
92169.271228
20
-8634.424055
11
92158.336093
21
-8631.396533
0
LINE
8
Layer 1
10
92158.336093
20
-8631.396533
11
92147.246924
21
-8628.903309
0
LINE
8
Layer 1
10
92147.246924
20
-8628.903309
11
92136.022776
21
-8626.952263
0
LINE
8
Layer 1
10
92136.022776
20
-8626.952263
11
92124.682703
21
-8625.551276
0
LINE
8
Layer 1
10
92124.682703
20
-8625.551276
11
92113.245760
21
-8624.708228
0
LINE
8
Layer 1
10
92113.245760
20
-8624.708228
11
92101.731000
21
-8624.431000
0
LINE
8
Layer 1
10
92101.700000
20
-8624.180000
11
78785.400000
21
-8624.180000
0
LINE
8
Layer 1
10
91854.200000
20
-9778.750000
11
91854.200000
21
-17936.400000
0
LINE
8
Layer 1
10
79155.400000
20
-9614.210000
11
78785.400000
21
-9614.210000
0
LINE
8
Layer 1
10
92333.700000
20
-8856.450000
11
92333.700000
21
-15030.900000
0
LINE
8
Layer 1
10
92101.700000
20
-19113.500000
11
92113.214760
21
-19113.222772
0
LINE
8
Layer 1
10
92113.214760
20
-19113.222772
11
92124.651703
21
-19112.379724
0
LINE
8
Layer 1
10
92124.651703
20
-19112.379724
11
92135.991776
21
-19110.978737
0
LINE
8
Layer 1
10
92135.991776
20
-19110.978737
11
92147.215924
21
-19109.027691
0
LINE
8
Layer 1
10
92147.215924
20
-19109.027691
11
92158.305093
21
-19106.534467
0
LINE
8
Layer 1
10
92158.305093
20
-19106.534467
11
92169.240228
21
-19103.506945
0
LINE
8
Layer 1
10
92169.240228
20
-19103.506945
11
92180.002276
21
-19099.953005
0
LINE
8
Layer 1
10
92180.002276
20
-19099.953005
11
92190.572182
21
-19095.880528
0
LINE
8
Layer 1
10
92190.572182
20
-19095.880528
11
92200.930892
21
-19091.297395
0
LINE
8
Layer 1
10
92200.930892
20
-19091.297395
11
92211.059351
21
-19086.211485
0
LINE
8
Layer 1
10
92211.059351
20
-19086.211485
11
92220.938505
21
-19080.630680
0
LINE
8
Layer 1
10
92220.938505
20
-19080.630680
11
92230.549300
21
-19074.562859
0
LINE
8
Layer 1
10
92230.549300
20
-19074.562859
11
92239.872682
21
-19068.015903
0
LINE
8
Layer 1
10
92239.872682
20
-19068.015903
11
92248.889596
21
-19060.997693
0
LINE
8
Layer 1
10
92248.889596
20
-19060.997693
11
92257.580988
21
-19053.516108
0
LINE
8
Layer 1
10
92257.580988
20
-19053.516108
11
92265.927804
21
-19045.579030
0
LINE
8
Layer 1
10
92265.927804
20
-19045.579030
11
92273.870992
21
-19037.238028
0
LINE
8
Layer 1
10
92273.870992
20
-19037.238028
11
92281.358938
21
-19028.552116
0
LINE
8
Layer 1
10
92281.358938
20
-19028.552116
11
92288.383748
21
-19019.540342
0
LINE
8
Layer 1
10
92288.383748
20
-19019.540342
11
92294.937529
21
-19010.221757
0
LINE
8
Layer 1
10
92294.937529
20
-19010.221757
11
92301.012385
21
-19000.615407
0
LINE
8
Layer 1
10
92301.012385
20
-19000.615407
11
92306.600422
21
-18990.740341
0
LINE
8
Layer 1
10
92306.600422
20
-18990.740341
11
92311.693746
21
-18980.615609
0
LINE
8
Layer 1
10
92311.693746
20
-18980.615609
11
92316.284463
21
-18970.260258
0
LINE
8
Layer 1
10
92316.284463
20
-18970.260258
11
92320.364677
21
-18959.693336
0
LINE
8
Layer 1
10
92320.364677
20
-18959.693336
11
92323.926496
21
-18948.933894
0
LINE
8
Layer 1
10
92323.926496
20
-18948.933894
11
92326.962024
21
-18938.000978
0
LINE
8
Layer 1
10
92326.962024
20
-18938.000978
11
92329.463366
21
-18926.913637
0
LINE
8
Layer 1
10
92329.463366
20
-18926.913637
11
92331.422630
21
-18915.690921
0
LINE
8
Layer 1
10
92331.422630
20
-18915.690921
11
92332.831920
21
-18904.351877
0
LINE
8
Layer 1
10
92332.831920
20
-18904.351877
11
92333.683341
21
-18892.915554
0
LINE
8
Layer 1
10
92333.683341
20
-18892.915554
11
92333.969000
21
-18881.401000
0
LINE
8
Layer 1
10
91854.200000
20
-17936.400000
11
91734.256000
21
-18080.898000
0
LINE
8
Layer 1
10
78785.400000
20
-9614.210000
11
78785.400000
21
-8624.180000
0
LINE
8
Layer 1
10
91734.300000
20
-18080.900000
11
77138.600000
21
-18079.771110
0
LINE
8
Layer 1
10
35226.500000
20
-21073.100000
11
35986.524000
21
-21074.228890
0
LINE
8
Layer 1
10
50575.900000
20
-31562.200000
11
35226.400000
21
-31562.482222
0
LINE
8
Layer 1
10
50575.900000
20
-21073.100000
11
37258.500000
21
-21073.100000
0
LINE
8
Layer 1
10
50808.200000
20
-27479.900000
11
50808.200000
21
-31330.200000
0
LINE
8
Layer 1
10
50808.200000
20
-21305.500000
11
50808.124170
21
-21299.511502
0
LINE
8
Layer 1
10
50808.124170
20
-21299.511502
11
50807.898047
21
-21293.560340
0
LINE
8
Layer 1
10
50807.898047
20
-21293.560340
11
50807.002205
21
-21281.777312
0
LINE
8
Layer 1
10
50807.002205
20
-21281.777312
11
50805.527041
21
-21270.165490
0
LINE
8
Layer 1
10
50805.527041
20
-21270.165490
11
50803.487120
21
-21258.739446
0
LINE
8
Layer 1
10
50803.487120
20
-21258.739446
11
50800.897006
21
-21247.513752
0
LINE
8
Layer 1
10
50800.897006
20
-21247.513752
11
50797.771267
21
-21236.502982
0
LINE
8
Layer 1
10
50797.771267
20
-21236.502982
11
50794.124467
21
-21225.721707
0
LINE
8
Layer 1
10
50794.124467
20
-21225.721707
11
50789.971172
21
-21215.184501
0
LINE
8
Layer 1
10
50789.971172
20
-21215.184501
11
50785.325947
21
-21204.905937
0
LINE
8
Layer 1
10
50785.325947
20
-21204.905937
11
50780.203359
21
-21194.900586
0
LINE
8
Layer 1
10
50780.203359
20
-21194.900586
11
50774.617972
21
-21185.183022
0
LINE
8
Layer 1
10
50774.617972
20
-21185.183022
11
50768.584352
21
-21175.767816
0
LINE
8
Layer 1
10
50768.584352
20
-21175.767816
11
50762.117065
21
-21166.669543
0
LINE
8
Layer 1
10
50762.117065
20
-21166.669543
11
50755.230676
21
-21157.902774
0
LINE
8
Layer 1
10
50755.230676
20
-21157.902774
11
50747.939751
21
-21149.482082
0
LINE
8
Layer 1
10
50747.939751
20
-21149.482082
11
50740.258855
21
-21141.422040
0
LINE
8
Layer 1
10
50740.258855
20
-21141.422040
11
50732.202554
21
-21133.737220
0
LINE
8
Layer 1
10
50732.202554
20
-21133.737220
11
50723.785414
21
-21126.442195
0
LINE
8
Layer 1
10
50723.785414
20
-21126.442195
11
50715.021999
21
-21119.551537
0
LINE
8
Layer 1
10
50715.021999
20
-21119.551537
11
50705.926876
21
-21113.079820
0
LINE
8
Layer 1
10
50705.926876
20
-21113.079820
11
50696.514610
21
-21107.041616
0
LINE
8
Layer 1
10
50696.514610
20
-21107.041616
11
50686.799767
21
-21101.451498
0
LINE
8
Layer 1
10
50686.799767
20
-21101.451498
11
50676.796912
21
-21096.324037
0
LINE
8
Layer 1
10
50676.796912
20
-21096.324037
11
50666.520611
21
-21091.673808
0
LINE
8
Layer 1
10
50666.520611
20
-21091.673808
11
50655.985429
21
-21087.515382
0
LINE
8
Layer 1
10
50655.985429
20
-21087.515382
11
50645.205931
21
-21083.863332
0
LINE
8
Layer 1
10
50645.205931
20
-21083.863332
11
50634.196685
21
-21080.732231
0
LINE
8
Layer 1
10
50634.196685
20
-21080.732231
11
50622.972254
21
-21078.136651
0
LINE
8
Layer 1
10
50622.972254
20
-21078.136651
11
50611.547204
21
-21076.091166
0
LINE
8
Layer 1
10
50611.547204
20
-21076.091166
11
50599.936102
21
-21074.610347
0
LINE
8
Layer 1
10
50599.936102
20
-21074.610347
11
50588.153512
21
-21073.708767
0
LINE
8
Layer 1
10
50588.153512
20
-21073.708767
11
50582.202461
21
-21073.479746
0
LINE
8
Layer 1
10
50582.202461
20
-21073.479746
11
50576.214000
21
-21073.401000
0
LINE
8
Layer 1
10
50808.200000
20
-21305.400000
11
50808.200000
21
-27479.900000
0
LINE
8
Layer 1
10
50576.200000
20
-31562.500000
11
50587.710775
21
-31562.208917
0
LINE
8
Layer 1
10
50587.710775
20
-31562.208917
11
50599.143118
21
-31561.352464
0
LINE
8
Layer 1
10
50599.143118
20
-31561.352464
11
50610.478002
21
-31559.938534
0
LINE
8
Layer 1
10
50610.478002
20
-31559.938534
11
50621.696398
21
-31557.975022
0
LINE
8
Layer 1
10
50621.696398
20
-31557.975022
11
50632.779279
21
-31555.469821
0
LINE
8
Layer 1
10
50632.779279
20
-31555.469821
11
50643.707617
21
-31552.430825
0
LINE
8
Layer 1
10
50643.707617
20
-31552.430825
11
50654.462383
21
-31548.865930
0
LINE
8
Layer 1
10
50654.462383
20
-31548.865930
11
50665.024551
21
-31544.783027
0
LINE
8
Layer 1
10
50665.024551
20
-31544.783027
11
50675.375091
21
-31540.190012
0
LINE
8
Layer 1
10
50675.375091
20
-31540.190012
11
50685.494977
21
-31535.094779
0
LINE
8
Layer 1
10
50685.494977
20
-31535.094779
11
50695.365180
21
-31529.505221
0
LINE
8
Layer 1
10
50695.365180
20
-31529.505221
11
50704.966672
21
-31523.429232
0
LINE
8
Layer 1
10
50704.966672
20
-31523.429232
11
50714.280425
21
-31516.874707
0
LINE
8
Layer 1
10
50714.280425
20
-31516.874707
11
50723.287411
21
-31509.849539
0
LINE
8
Layer 1
10
50723.287411
20
-31509.849539
11
50731.968603
21
-31502.361623
0
LINE
8
Layer 1
10
50731.968603
20
-31502.361623
11
50740.304972
21
-31494.418852
0
LINE
8
Layer 1
10
50740.304972
20
-31494.418852
11
50748.237574
21
-31486.072805
0
LINE
8
Layer 1
10
50748.237574
20
-31486.072805
11
50755.714901
21
-31477.382491
0
LINE
8
Layer 1
10
50755.714901
20
-31477.382491
11
50762.729083
21
-31468.366946
0
LINE
8
Layer 1
10
50762.729083
20
-31468.366946
11
50769.272248
21
-31459.045209
0
LINE
8
Layer 1
10
50769.272248
20
-31459.045209
11
50775.336526
21
-31449.436317
0
LINE
8
Layer 1
10
50775.336526
20
-31449.436317
11
50780.914047
21
-31439.559307
0
LINE
8
Layer 1
10
50780.914047
20
-31439.559307
11
50785.996939
21
-31429.433217
0
LINE
8
Layer 1
10
50785.996939
20
-31429.433217
11
50790.577331
21
-31419.077085
0
LINE
8
Layer 1
10
50790.577331
20
-31419.077085
11
50794.647354
21
-31408.509947
0
LINE
8
Layer 1
10
50794.647354
20
-31408.509947
11
50798.199135
21
-31397.750843
0
LINE
8
Layer 1
10
50798.199135
20
-31397.750843
11
50801.224805
21
-31386.818808
0
LINE
8
Layer 1
10
50801.224805
20
-31386.818808
11
50803.716492
21
-31375.732881
0
LINE
8
Layer 1
10
50803.716492
20
-31375.732881
11
50805.666326
21
-31364.512099
0
LINE
8
Layer 1
10
50805.666326
20
-31364.512099
11
50807.066436
21
-31353.175500
0
LINE
8
Layer 1
10
50807.066436
20
-31353.175500
11
50807.908951
21
-31341.742121
0
LINE
8
Layer 1
10
50807.908951
20
-31341.742121
11
50808.186000
21
-31330.231000
0
LINE
8
Layer 1
10
35226.500000
20
-21073.400000
11
35220.511615
21
-21073.478923
0
LINE
8
Layer 1
10
35220.511615
20
-21073.478923
11
35214.560640
21
-21073.708112
0
LINE
8
Layer 1
10
35214.560640
20
-21073.708112
11
35202.778205
21
-21074.610001
0
LINE
8
Layer 1
10
35202.778205
20
-21074.610001
11
35191.167258
21
-21076.091096
0
LINE
8
Layer 1
10
35191.167258
20
-21076.091096
11
35179.742365
21
-21078.136826
0
LINE
8
Layer 1
10
35179.742365
20
-21078.136826
11
35168.518088
21
-21080.732618
0
LINE
8
Layer 1
10
35168.518088
20
-21080.732618
11
35157.508994
21
-21083.863903
0
LINE
8
Layer 1
10
35157.508994
20
-21083.863903
11
35146.729646
21
-21087.516108
0
LINE
8
Layer 1
10
35146.729646
20
-21087.516108
11
35136.194608
21
-21091.674662
0
LINE
8
Layer 1
10
35136.194608
20
-21091.674662
11
35125.918445
21
-21096.324993
0
LINE
8
Layer 1
10
35125.918445
20
-21096.324993
11
35115.915720
21
-21101.452531
0
LINE
8
Layer 1
10
35115.915720
20
-21101.452531
11
35106.200999
21
-21107.042703
0
LINE
8
Layer 1
10
35106.200999
20
-21107.042703
11
35096.788846
21
-21113.080939
0
LINE
8
Layer 1
10
35096.788846
20
-21113.080939
11
35087.693824
21
-21119.552667
0
LINE
8
Layer 1
10
35087.693824
20
-21119.552667
11
35078.930499
21
-21126.443315
0
LINE
8
Layer 1
10
35078.930499
20
-21126.443315
11
35070.513434
21
-21133.738312
0
LINE
8
Layer 1
10
35070.513434
20
-21133.738312
11
35062.457194
21
-21141.423087
0
LINE
8
Layer 1
10
35062.457194
20
-21141.423087
11
35054.776343
21
-21149.483069
0
LINE
8
Layer 1
10
35054.776343
20
-21149.483069
11
35047.485445
21
-21157.903685
0
LINE
8
Layer 1
10
35047.485445
20
-21157.903685
11
35040.599065
21
-21166.670365
0
LINE
8
Layer 1
10
35040.599065
20
-21166.670365
11
35034.131768
21
-21175.768537
0
LINE
8
Layer 1
10
35034.131768
20
-21175.768537
11
35028.098116
21
-21185.183630
0
LINE
8
Layer 1
10
35028.098116
20
-21185.183630
11
35022.512675
21
-21194.901072
0
LINE
8
Layer 1
10
35022.512675
20
-21194.901072
11
35017.390009
21
-21204.906293
0
LINE
8
Layer 1
10
35017.390009
20
-21204.906293
11
35012.744683
21
-21215.184719
0
LINE
8
Layer 1
10
35012.744683
20
-21215.184719
11
35008.591260
21
-21225.721781
0
LINE
8
Layer 1
10
35008.591260
20
-21225.721781
11
35004.944305
21
-21236.502907
0
LINE
8
Layer 1
10
35004.944305
20
-21236.502907
11
35001.818382
21
-21247.513525
0
LINE
8
Layer 1
10
35001.818382
20
-21247.513525
11
34999.228055
21
-21258.739063
0
LINE
8
Layer 1
10
34999.228055
20
-21258.739063
11
34997.187889
21
-21270.164952
0
LINE
8
Layer 1
10
34997.187889
20
-21270.164952
11
34995.712449
21
-21281.776618
0
LINE
8
Layer 1
10
34995.712449
20
-21281.776618
11
34994.816297
21
-21293.559491
0
LINE
8
Layer 1
10
34994.816297
20
-21293.559491
11
34994.590007
21
-21299.510577
0
LINE
8
Layer 1
10
34994.590007
20
-21299.510577
11
34994.514000
21
-21305.499000
0
LINE
8
Layer 1
10
34994.200000
20
-21305.400000
11
34994.200000
21
-31330.200000
0
LINE
8
Layer 1
10
34994.500000
20
-31330.500000
11
34994.578695
21
-31336.486412
0
LINE
8
Layer 1
10
34994.578695
20
-31336.486412
11
34994.807565
21
-31342.435454
0
LINE
8
Layer 1
10
34994.807565
20
-31342.435454
11
34995.708556
21
-31354.214147
0
LINE
8
Layer 1
10
34995.708556
20
-31354.214147
11
34997.188418
21
-31365.821525
0
LINE
8
Layer 1
10
34997.188418
20
-31365.821525
11
34999.232595
21
-31377.243031
0
LINE
8
Layer 1
10
34999.232595
20
-31377.243031
11
35001.826531
21
-31388.464110
0
LINE
8
Layer 1
10
35001.826531
20
-31388.464110
11
35004.955671
21
-31399.470207
0
LINE
8
Layer 1
10
35004.955671
20
-31399.470207
11
35008.605460
21
-31410.246766
0
LINE
8
Layer 1
10
35008.605460
20
-31410.246766
11
35012.761341
21
-31420.779232
0
LINE
8
Layer 1
10
35012.761341
20
-31420.779232
11
35017.408760
21
-31431.053048
0
LINE
8
Layer 1
10
35017.408760
20
-31431.053048
11
35022.533160
21
-31441.053660
0
LINE
8
Layer 1
10
35022.533160
20
-31441.053660
11
35028.119987
21
-31450.766512
0
LINE
8
Layer 1
10
35028.119987
20
-31450.766512
11
35034.154685
21
-31460.177048
0
LINE
8
Layer 1
10
35034.154685
20
-31460.177048
11
35040.622698
21
-31469.270713
0
LINE
8
Layer 1
10
35040.622698
20
-31469.270713
11
35047.509470
21
-31478.032952
0
LINE
8
Layer 1
10
35047.509470
20
-31478.032952
11
35054.800447
21
-31486.449208
0
LINE
8
Layer 1
10
35054.800447
20
-31486.449208
11
35062.481073
21
-31494.504927
0
LINE
8
Layer 1
10
35062.481073
20
-31494.504927
11
35070.536792
21
-31502.185553
0
LINE
8
Layer 1
10
35070.536792
20
-31502.185553
11
35078.953048
21
-31509.476530
0
LINE
8
Layer 1
10
35078.953048
20
-31509.476530
11
35087.715287
21
-31516.363302
0
LINE
8
Layer 1
10
35087.715287
20
-31516.363302
11
35096.808952
21
-31522.831315
0
LINE
8
Layer 1
10
35096.808952
20
-31522.831315
11
35106.219488
21
-31528.866013
0
LINE
8
Layer 1
10
35106.219488
20
-31528.866013
11
35115.932340
21
-31534.452840
0
LINE
8
Layer 1
10
35115.932340
20
-31534.452840
11
35125.932952
21
-31539.577240
0
LINE
8
Layer 1
10
35125.932952
20
-31539.577240
11
35136.206768
21
-31544.224659
0
LINE
8
Layer 1
10
35136.206768
20
-31544.224659
11
35146.739234
21
-31548.380540
0
LINE
8
Layer 1
10
35146.739234
20
-31548.380540
11
35157.515793
21
-31552.030329
0
LINE
8
Layer 1
10
35157.515793
20
-31552.030329
11
35168.521890
21
-31555.159469
0
LINE
8
Layer 1
10
35168.521890
20
-31555.159469
11
35179.742969
21
-31557.753405
0
LINE
8
Layer 1
10
35179.742969
20
-31557.753405
11
35191.164475
21
-31559.797582
0
LINE
8
Layer 1
10
35191.164475
20
-31559.797582
11
35202.771853
21
-31561.277444
0
LINE
8
Layer 1
10
35202.771853
20
-31561.277444
11
35214.550546
21
-31562.178435
0
LINE
8
Layer 1
10
35214.550546
20
-31562.178435
11
35220.499588
21
-31562.407305
0
LINE
8
Layer 1
10
35220.499588
20
-31562.407305
11
35226.486000
21
-31562.486000
0
LINE
8
Layer 1
10
35986.500000
20
-23537.800000
11
35986.500000
21
-21074.300000
0
LINE
8
Layer 1
10
35986.500000
20
-23537.800000
11
37258.470000
21
-23538.928890
0
LINE
8
Layer 1
10
37258.500000
20
-23538.900000
11
37258.500000
21
-21073.100000
0
LINE
8
Layer 1
10
76520.000000
20
-17317.700000
11
76520.000000
21
-18881.300000
0
LINE
8
Layer 1
10
91854.200000
20
-9778.750000
11
91736.513000
21
-9614.215000
0
LINE
8
Layer 1
10
92101.700000
20
-19113.200000
11
76751.900000
21
-19113.482222
0
LINE
8
Layer 1
10
91736.500000
20
-9614.210000
11
79155.400000
21
-9614.210000
0
LINE
8
Layer 1
10
76520.000000
20
-18881.500000
11
76520.285659
21
-18893.014554
0
LINE
8
Layer 1
10
76520.285659
20
-18893.014554
11
76521.137080
21
-18904.450877
0
LINE
8
Layer 1
10
76521.137080
20
-18904.450877
11
76522.546370
21
-18915.789921
0
LINE
8
Layer 1
10
76522.546370
20
-18915.789921
11
76524.505634
21
-18927.012637
0
LINE
8
Layer 1
10
76524.505634
20
-18927.012637
11
76527.006976
21
-18938.099978
0
LINE
8
Layer 1
10
76527.006976
20
-18938.099978
11
76530.042504
21
-18949.032894
0
LINE
8
Layer 1
10
76530.042504
20
-18949.032894
11
76533.604323
21
-18959.792336
0
LINE
8
Layer 1
10
76533.604323
20
-18959.792336
11
76537.684537
21
-18970.359258
0
LINE
8
Layer 1
10
76537.684537
20
-18970.359258
11
76542.275254
21
-18980.714609
0
LINE
8
Layer 1
10
76542.275254
20
-18980.714609
11
76547.368578
21
-18990.839341
0
LINE
8
Layer 1
10
76547.368578
20
-18990.839341
11
76552.956615
21
-19000.714407
0
LINE
8
Layer 1
10
76552.956615
20
-19000.714407
11
76559.031471
21
-19010.320757
0
LINE
8
Layer 1
10
76559.031471
20
-19010.320757
11
76565.585252
21
-19019.639342
0
LINE
8
Layer 1
10
76565.585252
20
-19019.639342
11
76572.610062
21
-19028.651116
0
LINE
8
Layer 1
10
76572.610062
20
-19028.651116
11
76580.098008
21
-19037.337028
0
LINE
8
Layer 1
10
76580.098008
20
-19037.337028
11
76588.041196
21
-19045.678030
0
LINE
8
Layer 1
10
76588.041196
20
-19045.678030
11
76596.388012
21
-19053.615108
0
LINE
8
Layer 1
10
76596.388012
20
-19053.615108
11
76605.079404
21
-19061.096693
0
LINE
8
Layer 1
10
76605.079404
20
-19061.096693
11
76614.096318
21
-19068.114903
0
LINE
8
Layer 1
10
76614.096318
20
-19068.114903
11
76623.419700
21
-19074.661859
0
LINE
8
Layer 1
10
76623.419700
20
-19074.661859
11
76633.030495
21
-19080.729680
0
LINE
8
Layer 1
10
76633.030495
20
-19080.729680
11
76642.909649
21
-19086.310485
0
LINE
8
Layer 1
10
76642.909649
20
-19086.310485
11
76653.038108
21
-19091.396395
0
LINE
8
Layer 1
10
76653.038108
20
-19091.396395
11
76663.396818
21
-19095.979528
0
LINE
8
Layer 1
10
76663.396818
20
-19095.979528
11
76673.966724
21
-19100.052005
0
LINE
8
Layer 1
10
76673.966724
20
-19100.052005
11
76684.728772
21
-19103.605945
0
LINE
8
Layer 1
10
76684.728772
20
-19103.605945
11
76695.663907
21
-19106.633467
0
LINE
8
Layer 1
10
76695.663907
20
-19106.633467
11
76706.753076
21
-19109.126691
0
LINE
8
Layer 1
10
76706.753076
20
-19109.126691
11
76717.977224
21
-19111.077737
0
LINE
8
Layer 1
10
76717.977224
20
-19111.077737
11
76729.317297
21
-19112.478724
0
LINE
8
Layer 1
10
76729.317297
20
-19112.478724
11
76740.754240
21
-19113.321772
0
LINE
8
Layer 1
10
76740.754240
20
-19113.321772
11
76752.269000
21
-19113.599000
0
LINE
8
Layer 1
10
77037.600000
20
-17931.000000
11
77037.600000
21
-17317.700000
0
LINE
8
Layer 1
10
77138.600000
20
-18079.700000
11
77037.565000
21
-17930.969000
0
LINE
8
Layer 1
10
77037.600000
20
-17317.700000
11
76520.000000
21
-17317.700000
0
LINE
8
Layer 1
10
92333.700000
20
-15030.900000
11
92333.700000
21
-18881.300000
0
LINE
8
Layer 1
10
92334.000000
20
-8856.530000
11
92333.714341
21
-8845.015446
0
LINE
8
Layer 1
10
92333.714341
20
-8845.015446
11
92332.862920
21
-8833.579123
0
LINE
8
Layer 1
10
92332.862920
20
-8833.579123
11
92331.453630
21
-8822.240079
0
LINE
8
Layer 1
10
92331.453630
20
-8822.240079
11
92329.494366
21
-8811.017363
0
LINE
8
Layer 1
10
92329.494366
20
-8811.017363
11
92326.993024
21
-8799.930022
0
LINE
8
Layer 1
10
92326.993024
20
-8799.930022
11
92323.957496
21
-8788.997106
0
LINE
8
Layer 1
10
92323.957496
20
-8788.997106
11
92320.395677
21
-8778.237664
0
LINE
8
Layer 1
10
92320.395677
20
-8778.237664
11
92316.315463
21
-8767.670742
0
LINE
8
Layer 1
10
92316.315463
20
-8767.670742
11
92311.724746
21
-8757.315391
0
LINE
8
Layer 1
10
92311.724746
20
-8757.315391
11
92306.631422
21
-8747.190659
0
LINE
8
Layer 1
10
92306.631422
20
-8747.190659
11
92301.043385
21
-8737.315593
0
LINE
8
Layer 1
10
92301.043385
20
-8737.315593
11
92294.968529
21
-8727.709243
0
LINE
8
Layer 1
10
92294.968529
20
-8727.709243
11
92288.414748
21
-8718.390658
0
LINE
8
Layer 1
10
92288.414748
20
-8718.390658
11
92281.389938
21
-8709.378884
0
LINE
8
Layer 1
10
92281.389938
20
-8709.378884
11
92273.901992
21
-8700.692972
0
LINE
8
Layer 1
10
92273.901992
20
-8700.692972
11
92265.958804
21
-8692.351970
0
LINE
8
Layer 1
10
92265.958804
20
-8692.351970
11
92257.611988
21
-8684.414892
0
LINE
8
Layer 1
10
92257.611988
20
-8684.414892
11
92248.920596
21
-8676.933307
0
LINE
8
Layer 1
10
92248.920596
20
-8676.933307
11
92239.903682
21
-8669.915097
0
LINE
8
Layer 1
10
92239.903682
20
-8669.915097
11
92230.580300
21
-8663.368141
0
LINE
8
Layer 1
10
92230.580300
20
-8663.368141
11
92220.969505
21
-8657.300320
0
LINE
8
Layer 1
10
92220.969505
20
-8657.300320
11
92211.090351
21
-8651.719515
0
LINE
8
Layer 1
10
92211.090351
20
-8651.719515
11
92200.961892
21
-8646.633605
0
LINE
8
Layer 1
10
92200.961892
20
-8646.633605
11
92190.603182
21
-8642.050472
0
LINE
8
Layer 1
10
92190.603182
20
-8642.050472
11
92180.033276
21
-8637.977995
0
LINE
8
Layer 1
10
92180.033276
20
-8637.977995
11
92169.271228
21
-8634.424055
0
LINE
8
Layer 1
10
92169.271228
20
-8634.424055
11
92158.336093
21
-8631.396533
0
LINE
8
Layer 1
10
92158.336093
20
-8631.396533
11
92147.246924
21
-8628.903309
0
LINE
8
Layer 1
10
92147.246924
20
-8628.903309
11
92136.022776
21
-8626.952263
0
LINE
8
Layer 1
10
92136.022776
20
-8626.952263
11
92124.682703
21
-8625.551276
0
LINE
8
Layer 1
10
92124.682703
20
-8625.551276
11
92113.245760
21
-8624.708228
0
LINE
8
Layer 1
10
92113.245760
20
-8624.708228
11
92101.731000
21
-8624.431000
0
LINE
8
Layer 1
10
92101.700000
20
-8624.180000
11
78785.400000
21
-8624.180000
0
LINE
8
Layer 1
10
91854.200000
20
-9778.750000
11
91854.200000
21
-17936.400000
0
LINE
8
Layer 1
10
79155.400000
20
-9614.210000
11
78785.400000
21
-9614.210000
0
LINE
8
Layer 1
10
92333.700000
20
-8856.450000
11
92333.700000
21
-15030.900000
0
LINE
8
Layer 1
10
92101.700000
20
-19113.500000
11
92113.214760
21
-19113.222772
0
LINE
8
Layer 1
10
92113.214760
20
-19113.222772
11
92124.651703
21
-19112.379724
0
LINE
8
Layer 1
10
92124.651703
20
-19112.379724
11
92135.991776
21
-19110.978737
0
LINE
8
Layer 1
10
92135.991776
20
-19110.978737
11
92147.215924
21
-19109.027691
0
LINE
8
Layer 1
10
92147.215924
20
-19109.027691
11
92158.305093
21
-19106.534467
0
LINE
8
Layer 1
10
92158.305093
20
-19106.534467
11
92169.240228
21
-19103.506945
0
LINE
8
Layer 1
10
92169.240228
20
-19103.506945
11
92180.002276
21
-19099.953005
0
LINE
8
Layer 1
10
92180.002276
20
-19099.953005
11
92190.572182
21
-19095.880528
0
LINE
8
Layer 1
10
92190.572182
20
-19095.880528
11
92200.930892
21
-19091.297395
0
LINE
8
Layer 1
10
92200.930892
20
-19091.297395
11
92211.059351
21
-19086.211485
0
LINE
8
Layer 1
10
92211.059351
20
-19086.211485
11
92220.938505
21
-19080.630680
0
LINE
8
Layer 1
10
92220.938505
20
-19080.630680
11
92230.549300
21
-19074.562859
0
LINE
8
Layer 1
10
92230.549300
20
-19074.562859
11
92239.872682
21
-19068.015903
0
LINE
8
Layer 1
10
92239.872682
20
-19068.015903
11
92248.889596
21
-19060.997693
0
LINE
8
Layer 1
10
92248.889596
20
-19060.997693
11
92257.580988
21
-19053.516108
0
LINE
8
Layer 1
10
92257.580988
20
-19053.516108
11
92265.927804
21
-19045.579030
0
LINE
8
Layer 1
10
92265.927804
20
-19045.579030
11
92273.870992
21
-19037.238028
0
LINE
8
Layer 1
10
92273.870992
20
-19037.238028
11
92281.358938
21
-19028.552116
0
LINE
8
Layer 1
10
92281.358938
20
-19028.552116
11
92288.383748
21
-19019.540342
0
LINE
8
Layer 1
10
92288.383748
20
-19019.540342
11
92294.937529
21
-19010.221757
0
LINE
8
Layer 1
10
92294.937529
20
-19010.221757
11
92301.012385
21
-19000.615407
0
LINE
8
Layer 1
10
92301.012385
20
-19000.615407
11
92306.600422
21
-18990.740341
0
LINE
8
Layer 1
10
92306.600422
20
-18990.740341
11
92311.693746
21
-18980.615609
0
LINE
8
Layer 1
10
92311.693746
20
-18980.615609
11
92316.284463
21
-18970.260258
0
LINE
8
Layer 1
10
92316.284463
20
-18970.260258
11
92320.364677
21
-18959.693336
0
LINE
8
Layer 1
10
92320.364677
20
-18959.693336
11
92323.926496
21
-18948.933894
0
LINE
8
Layer 1
10
92323.926496
20
-18948.933894
11
92326.962024
21
-18938.000978
0
LINE
8
Layer 1
10
92326.962024
20
-18938.000978
11
92329.463366
21
-18926.913637
0
LINE
8
Layer 1
10
92329.463366
20
-18926.913637
11
92331.422630
21
-18915.690921
0
LINE
8
Layer 1
10
92331.422630
20
-18915.690921
11
92332.831920
21
-18904.351877
0
LINE
8
Layer 1
10
92332.831920
20
-18904.351877
11
92333.683341
21
-18892.915554
0
LINE
8
Layer 1
10
92333.683341
20
-18892.915554
11
92333.969000
21
-18881.401000
0
LINE
8
Layer 1
10
91854.200000
20
-17936.400000
11
91734.256000
21
-18080.898000
0
LINE
8
Layer 1
10
78785.400000
20
-9614.210000
11
78785.400000
21
-8624.180000
0
LINE
8
Layer 1
10
91734.300000
20
-18080.900000
11
77138.600000
21
-18079.771110
0
LINE
8
Layer 1
10
109764.000000
20
-18118.700000
11
109643.773000
21
-18263.198000
0
LINE
8
Layer 1
10
94430.100000
20
-19063.700000
11
94430.175830
21
-19069.688498
0
LINE
8
Layer 1
10
94430.175830
20
-19069.688498
11
94430.401953
21
-19075.639660
0
LINE
8
Layer 1
10
94430.401953
20
-19075.639660
11
94431.297795
21
-19087.422688
0
LINE
8
Layer 1
10
94431.297795
20
-19087.422688
11
94432.772959
21
-19099.034510
0
LINE
8
Layer 1
10
94432.772959
20
-19099.034510
11
94434.812880
21
-19110.460554
0
LINE
8
Layer 1
10
94434.812880
20
-19110.460554
11
94437.402994
21
-19121.686248
0
LINE
8
Layer 1
10
94437.402994
20
-19121.686248
11
94440.528733
21
-19132.697018
0
LINE
8
Layer 1
10
94440.528733
20
-19132.697018
11
94444.175533
21
-19143.478293
0
LINE
8
Layer 1
10
94444.175533
20
-19143.478293
11
94448.328828
21
-19154.015499
0
LINE
8
Layer 1
10
94448.328828
20
-19154.015499
11
94452.974053
21
-19164.294063
0
LINE
8
Layer 1
10
94452.974053
20
-19164.294063
11
94458.096641
21
-19174.299414
0
LINE
8
Layer 1
10
94458.096641
20
-19174.299414
11
94463.682028
21
-19184.016978
0
LINE
8
Layer 1
10
94463.682028
20
-19184.016978
11
94469.715648
21
-19193.432184
0
LINE
8
Layer 1
10
94469.715648
20
-19193.432184
11
94476.182935
21
-19202.530457
0
LINE
8
Layer 1
10
94476.182935
20
-19202.530457
11
94483.069324
21
-19211.297226
0
LINE
8
Layer 1
10
94483.069324
20
-19211.297226
11
94490.360249
21
-19219.717918
0
LINE
8
Layer 1
10
94490.360249
20
-19219.717918
11
94498.041145
21
-19227.777960
0
LINE
8
Layer 1
10
94498.041145
20
-19227.777960
11
94506.097446
21
-19235.462780
0
LINE
8
Layer 1
10
94506.097446
20
-19235.462780
11
94514.514586
21
-19242.757805
0
LINE
8
Layer 1
10
94514.514586
20
-19242.757805
11
94523.278001
21
-19249.648463
0
LINE
8
Layer 1
10
94523.278001
20
-19249.648463
11
94532.373124
21
-19256.120180
0
LINE
8
Layer 1
10
94532.373124
20
-19256.120180
11
94541.785390
21
-19262.158384
0
LINE
8
Layer 1
10
94541.785390
20
-19262.158384
11
94551.500233
21
-19267.748502
0
LINE
8
Layer 1
10
94551.500233
20
-19267.748502
11
94561.503088
21
-19272.875963
0
LINE
8
Layer 1
10
94561.503088
20
-19272.875963
11
94571.779389
21
-19277.526192
0
LINE
8
Layer 1
10
94571.779389
20
-19277.526192
11
94582.314571
21
-19281.684618
0
LINE
8
Layer 1
10
94582.314571
20
-19281.684618
11
94593.094069
21
-19285.336668
0
LINE
8
Layer 1
10
94593.094069
20
-19285.336668
11
94604.103315
21
-19288.467769
0
LINE
8
Layer 1
10
94604.103315
20
-19288.467769
11
94615.327746
21
-19291.063349
0
LINE
8
Layer 1
10
94615.327746
20
-19291.063349
11
94626.752796
21
-19293.108834
0
LINE
8
Layer 1
10
94626.752796
20
-19293.108834
11
94638.363898
21
-19294.589653
0
LINE
8
Layer 1
10
94638.363898
20
-19294.589653
11
94650.146488
21
-19295.491233
0
LINE
8
Layer 1
10
94650.146488
20
-19295.491233
11
94656.097539
21
-19295.720254
0
LINE
8
Layer 1
10
94656.097539
20
-19295.720254
11
94662.086000
21
-19295.799000
0
LINE
8
Layer 1
10
94947.700000
20
-18113.000000
11
94947.700000
21
-16425.400000
0
LINE
8
Layer 1
10
95048.700000
20
-18262.100000
11
94947.665000
21
-18113.087000
0
LINE
8
Layer 1
10
94429.800000
20
-17499.800000
11
93913.000000
21
-17499.800000
0
LINE
8
Layer 1
10
94947.700000
20
-16425.400000
11
93913.000000
21
-16425.400000
0
LINE
8
Layer 1
10
110244.000000
20
-15213.200000
11
110244.000000
21
-19063.600000
0
LINE
8
Layer 1
10
110244.000000
20
-9038.760000
11
110243.924170
21
-9032.771502
0
LINE
8
Layer 1
10
110243.924170
20
-9032.771502
11
110243.698047
21
-9026.820340
0
LINE
8
Layer 1
10
110243.698047
20
-9026.820340
11
110242.802205
21
-9015.037312
0
LINE
8
Layer 1
10
110242.802205
20
-9015.037312
11
110241.327041
21
-9003.425490
0
LINE
8
Layer 1
10
110241.327041
20
-9003.425490
11
110239.287120
21
-8991.999446
0
LINE
8
Layer 1
10
110239.287120
20
-8991.999446
11
110236.697006
21
-8980.773752
0
LINE
8
Layer 1
10
110236.697006
20
-8980.773752
11
110233.571267
21
-8969.762982
0
LINE
8
Layer 1
10
110233.571267
20
-8969.762982
11
110229.924467
21
-8958.981707
0
LINE
8
Layer 1
10
110229.924467
20
-8958.981707
11
110225.771172
21
-8948.444501
0
LINE
8
Layer 1
10
110225.771172
20
-8948.444501
11
110221.125947
21
-8938.165937
0
LINE
8
Layer 1
10
110221.125947
20
-8938.165937
11
110216.003359
21
-8928.160586
0
LINE
8
Layer 1
10
110216.003359
20
-8928.160586
11
110210.417972
21
-8918.443022
0
LINE
8
Layer 1
10
110210.417972
20
-8918.443022
11
110204.384352
21
-8909.027816
0
LINE
8
Layer 1
10
110204.384352
20
-8909.027816
11
110197.917065
21
-8899.929543
0
LINE
8
Layer 1
10
110197.917065
20
-8899.929543
11
110191.030676
21
-8891.162774
0
LINE
8
Layer 1
10
110191.030676
20
-8891.162774
11
110183.739751
21
-8882.742082
0
LINE
8
Layer 1
10
110183.739751
20
-8882.742082
11
110176.058855
21
-8874.682040
0
LINE
8
Layer 1
10
110176.058855
20
-8874.682040
11
110168.002554
21
-8866.997220
0
LINE
8
Layer 1
10
110168.002554
20
-8866.997220
11
110159.585414
21
-8859.702195
0
LINE
8
Layer 1
10
110159.585414
20
-8859.702195
11
110150.821999
21
-8852.811537
0
LINE
8
Layer 1
10
110150.821999
20
-8852.811537
11
110141.726876
21
-8846.339820
0
LINE
8
Layer 1
10
110141.726876
20
-8846.339820
11
110132.314610
21
-8840.301616
0
LINE
8
Layer 1
10
110132.314610
20
-8840.301616
11
110122.599767
21
-8834.711498
0
LINE
8
Layer 1
10
110122.599767
20
-8834.711498
11
110112.596912
21
-8829.584037
0
LINE
8
Layer 1
10
110112.596912
20
-8829.584037
11
110102.320611
21
-8824.933808
0
LINE
8
Layer 1
10
110102.320611
20
-8824.933808
11
110091.785429
21
-8820.775382
0
LINE
8
Layer 1
10
110091.785429
20
-8820.775382
11
110081.005931
21
-8817.123332
0
LINE
8
Layer 1
10
110081.005931
20
-8817.123332
11
110069.996685
21
-8813.992231
0
LINE
8
Layer 1
10
110069.996685
20
-8813.992231
11
110058.772254
21
-8811.396651
0
LINE
8
Layer 1
10
110058.772254
20
-8811.396651
11
110047.347204
21
-8809.351166
0
LINE
8
Layer 1
10
110047.347204
20
-8809.351166
11
110035.736102
21
-8807.870347
0
LINE
8
Layer 1
10
110035.736102
20
-8807.870347
11
110023.953512
21
-8806.968767
0
LINE
8
Layer 1
10
110023.953512
20
-8806.968767
11
110018.002461
21
-8806.739746
0
LINE
8
Layer 1
10
110018.002461
20
-8806.739746
11
110012.014000
21
-8806.661000
0
LINE
8
Layer 1
10
110012.000000
20
-8806.500000
11
96695.500000
21
-8806.500000
0
LINE
8
Layer 1
10
109764.000000
20
-9961.070000
11
109764.000000
21
-18118.700000
0
LINE
8
Layer 1
10
97065.500000
20
-9796.530000
11
96695.500000
21
-9796.530000
0
LINE
8
Layer 1
10
109764.000000
20
-9961.070000
11
109646.031000
21
-9796.535000
0
LINE
8
Layer 1
10
110012.000000
20
-19295.600000
11
94662.100000
21
-19295.600000
0
LINE
8
Layer 1
10
110244.000000
20
-9038.480000
11
110244.000000
21
-15213.200000
0
LINE
8
Layer 1
10
110012.000000
20
-19295.700000
11
110017.988987
21
-19295.621240
0
LINE
8
Layer 1
10
110017.988987
20
-19295.621240
11
110023.940554
21
-19295.392181
0
LINE
8
Layer 1
10
110023.940554
20
-19295.392181
11
110035.724144
21
-19294.490451
0
LINE
8
Layer 1
10
110035.724144
20
-19294.490451
11
110047.336203
21
-19293.009387
0
LINE
8
Layer 1
10
110047.336203
20
-19293.009387
11
110058.762162
21
-19290.963566
0
LINE
8
Layer 1
10
110058.762162
20
-19290.963566
11
110069.987453
21
-19288.367564
0
LINE
8
Layer 1
10
110069.987453
20
-19288.367564
11
110080.997509
21
-19285.235960
0
LINE
8
Layer 1
10
110080.997509
20
-19285.235960
11
110091.777760
21
-19281.583330
0
LINE
8
Layer 1
10
110091.777760
20
-19281.583330
11
110102.313640
21
-19277.424251
0
LINE
8
Layer 1
10
110102.313640
20
-19277.424251
11
110112.590579
21
-19272.773301
0
LINE
8
Layer 1
10
110112.590579
20
-19272.773301
11
110122.594010
21
-19267.645055
0
LINE
8
Layer 1
10
110122.594010
20
-19267.645055
11
110132.309365
21
-19262.054092
0
LINE
8
Layer 1
10
110132.309365
20
-19262.054092
11
110141.722075
21
-19256.014988
0
LINE
8
Layer 1
10
110141.722075
20
-19256.014988
11
110150.817572
21
-19249.542320
0
LINE
8
Layer 1
10
110150.817572
20
-19249.542320
11
110159.581288
21
-19242.650666
0
LINE
8
Layer 1
10
110159.581288
20
-19242.650666
11
110167.998656
21
-19235.354602
0
LINE
8
Layer 1
10
110167.998656
20
-19235.354602
11
110176.055106
21
-19227.668705
0
LINE
8
Layer 1
10
110176.055106
20
-19227.668705
11
110183.736071
21
-19219.607553
0
LINE
8
Layer 1
10
110183.736071
20
-19219.607553
11
110191.026983
21
-19211.185723
0
LINE
8
Layer 1
10
110191.026983
20
-19211.185723
11
110197.913274
21
-19202.417791
0
LINE
8
Layer 1
10
110197.913274
20
-19202.417791
11
110204.380374
21
-19193.318335
0
LINE
8
Layer 1
10
110204.380374
20
-19193.318335
11
110210.413717
21
-19183.901931
0
LINE
8
Layer 1
10
110210.413717
20
-19183.901931
11
110215.998735
21
-19174.183157
0
LINE
8
Layer 1
10
110215.998735
20
-19174.183157
11
110221.120858
21
-19164.176590
0
LINE
8
Layer 1
10
110221.120858
20
-19164.176590
11
110225.765519
21
-19153.896806
0
LINE
8
Layer 1
10
110225.765519
20
-19153.896806
11
110229.918150
21
-19143.358384
0
LINE
8
Layer 1
10
110229.918150
20
-19143.358384
11
110233.564183
21
-19132.575899
0
LINE
8
Layer 1
10
110233.564183
20
-19132.575899
11
110236.689049
21
-19121.563929
0
LINE
8
Layer 1
10
110236.689049
20
-19121.563929
11
110239.278181
21
-19110.337051
0
LINE
8
Layer 1
10
110239.278181
20
-19110.337051
11
110241.317010
21
-19098.909842
0
LINE
8
Layer 1
10
110241.317010
20
-19098.909842
11
110242.790968
21
-19087.296880
0
LINE
8
Layer 1
10
110242.790968
20
-19087.296880
11
110243.685488
21
-19075.512740
0
LINE
8
Layer 1
10
110243.685488
20
-19075.512740
11
110243.910905
21
-19069.561034
0
LINE
8
Layer 1
10
110243.910905
20
-19069.561034
11
110243.986000
21
-19063.572000
0
LINE
8
Layer 1
10
94429.800000
20
-17499.800000
11
94429.800000
21
-19063.600000
0
LINE
8
Layer 1
10
109646.000000
20
-9796.530000
11
97065.500000
21
-9796.530000
0
LINE
8
Layer 1
10
96695.500000
20
-9796.530000
11
96695.500000
21
-8806.500000
0
LINE
8
Layer 1
10
93913.000000
20
-17499.800000
11
93913.000000
21
-16425.400000
0
LINE
8
Layer 1
10
109644.000000
20
-18263.200000
11
95048.600000
21
-18262.071110
0
LINE
8
Layer 1
10
109764.000000
20
-18118.700000
11
109643.773000
21
-18263.198000
0
LINE
8
Layer 1
10
94430.100000
20
-19063.700000
11
94430.175830
21
-19069.688498
0
LINE
8
Layer 1
10
94430.175830
20
-19069.688498
11
94430.401953
21
-19075.639660
0
LINE
8
Layer 1
10
94430.401953
20
-19075.639660
11
94431.297795
21
-19087.422688
0
LINE
8
Layer 1
10
94431.297795
20
-19087.422688
11
94432.772959
21
-19099.034510
0
LINE
8
Layer 1
10
94432.772959
20
-19099.034510
11
94434.812880
21
-19110.460554
0
LINE
8
Layer 1
10
94434.812880
20
-19110.460554
11
94437.402994
21
-19121.686248
0
LINE
8
Layer 1
10
94437.402994
20
-19121.686248
11
94440.528733
21
-19132.697018
0
LINE
8
Layer 1
10
94440.528733
20
-19132.697018
11
94444.175533
21
-19143.478293
0
LINE
8
Layer 1
10
94444.175533
20
-19143.478293
11
94448.328828
21
-19154.015499
0
LINE
8
Layer 1
10
94448.328828
20
-19154.015499
11
94452.974053
21
-19164.294063
0
LINE
8
Layer 1
10
94452.974053
20
-19164.294063
11
94458.096641
21
-19174.299414
0
LINE
8
Layer 1
10
94458.096641
20
-19174.299414
11
94463.682028
21
-19184.016978
0
LINE
8
Layer 1
10
94463.682028
20
-19184.016978
11
94469.715648
21
-19193.432184
0
LINE
8
Layer 1
10
94469.715648
20
-19193.432184
11
94476.182935
21
-19202.530457
0
LINE
8
Layer 1
10
94476.182935
20
-19202.530457
11
94483.069324
21
-19211.297226
0
LINE
8
Layer 1
10
94483.069324
20
-19211.297226
11
94490.360249
21
-19219.717918
0
LINE
8
Layer 1
10
94490.360249
20
-19219.717918
11
94498.041145
21
-19227.777960
0
LINE
8
Layer 1
10
94498.041145
20
-19227.777960
11
94506.097446
21
-19235.462780
0
LINE
8
Layer 1
10
94506.097446
20
-19235.462780
11
94514.514586
21
-19242.757805
0
LINE
8
Layer 1
10
94514.514586
20
-19242.757805
11
94523.278001
21
-19249.648463
0
LINE
8
Layer 1
10
94523.278001
20
-19249.648463
11
94532.373124
21
-19256.120180
0
LINE
8
Layer 1
10
94532.373124
20
-19256.120180
11
94541.785390
21
-19262.158384
0
LINE
8
Layer 1
10
94541.785390
20
-19262.158384
11
94551.500233
21
-19267.748502
0
LINE
8
Layer 1
10
94551.500233
20
-19267.748502
11
94561.503088
21
-19272.875963
0
LINE
8
Layer 1
10
94561.503088
20
-19272.875963
11
94571.779389
21
-19277.526192
0
LINE
8
Layer 1
10
94571.779389
20
-19277.526192
11
94582.314571
21
-19281.684618
0
LINE
8
Layer 1
10
94582.314571
20
-19281.684618
11
94593.094069
21
-19285.336668
0
LINE
8
Layer 1
10
94593.094069
20
-19285.336668
11
94604.103315
21
-19288.467769
0
LINE
8
Layer 1
10
94604.103315
20
-19288.467769
11
94615.327746
21
-19291.063349
0
LINE
8
Layer 1
10
94615.327746
20
-19291.063349
11
94626.752796
21
-19293.108834
0
LINE
8
Layer 1
10
94626.752796
20
-19293.108834
11
94638.363898
21
-19294.589653
0
LINE
8
Layer 1
10
94638.363898
20
-19294.589653
11
94650.146488
21
-19295.491233
0
LINE
8
Layer 1
10
94650.146488
20
-19295.491233
11
94656.097539
21
-19295.720254
0
LINE
8
Layer 1
10
94656.097539
20
-19295.720254
11
94662.086000
21
-19295.799000
0
LINE
8
Layer 1
10
94947.700000
20
-18113.000000
11
94947.700000
21
-16425.400000
0
LINE
8
Layer 1
10
95048.700000
20
-18262.100000
11
94947.665000
21
-18113.087000
0
LINE
8
Layer 1
10
94429.800000
20
-17499.800000
11
93913.000000
21
-17499.800000
0
LINE
8
Layer 1
10
94947.700000
20
-16425.400000
11
93913.000000
21
-16425.400000
0
LINE
8
Layer 1
10
110244.000000
20
-15213.200000
11
110244.000000
21
-19063.600000
0
LINE
8
Layer 1
10
110244.000000
20
-9038.760000
11
110243.924170
21
-9032.771502
0
LINE
8
Layer 1
10
110243.924170
20
-9032.771502
11
110243.698047
21
-9026.820340
0
LINE
8
Layer 1
10
110243.698047
20
-9026.820340
11
110242.802205
21
-9015.037312
0
LINE
8
Layer 1
10
110242.802205
20
-9015.037312
11
110241.327041
21
-9003.425490
0
LINE
8
Layer 1
10
110241.327041
20
-9003.425490
11
110239.287120
21
-8991.999446
0
LINE
8
Layer 1
10
110239.287120
20
-8991.999446
11
110236.697006
21
-8980.773752
0
LINE
8
Layer 1
10
110236.697006
20
-8980.773752
11
110233.571267
21
-8969.762982
0
LINE
8
Layer 1
10
110233.571267
20
-8969.762982
11
110229.924467
21
-8958.981707
0
LINE
8
Layer 1
10
110229.924467
20
-8958.981707
11
110225.771172
21
-8948.444501
0
LINE
8
Layer 1
10
110225.771172
20
-8948.444501
11
110221.125947
21
-8938.165937
0
LINE
8
Layer 1
10
110221.125947
20
-8938.165937
11
110216.003359
21
-8928.160586
0
LINE
8
Layer 1
10
110216.003359
20
-8928.160586
11
110210.417972
21
-8918.443022
0
LINE
8
Layer 1
10
110210.417972
20
-8918.443022
11
110204.384352
21
-8909.027816
0
LINE
8
Layer 1
10
110204.384352
20
-8909.027816
11
110197.917065
21
-8899.929543
0
LINE
8
Layer 1
10
110197.917065
20
-8899.929543
11
110191.030676
21
-8891.162774
0
LINE
8
Layer 1
10
110191.030676
20
-8891.162774
11
110183.739751
21
-8882.742082
0
LINE
8
Layer 1
10
110183.739751
20
-8882.742082
11
110176.058855
21
-8874.682040
0
LINE
8
Layer 1
10
110176.058855
20
-8874.682040
11
110168.002554
21
-8866.997220
0
LINE
8
Layer 1
10
110168.002554
20
-8866.997220
11
110159.585414
21
-8859.702195
0
LINE
8
Layer 1
10
110159.585414
20
-8859.702195
11
110150.821999
21
-8852.811537
0
LINE
8
Layer 1
10
110150.821999
20
-8852.811537
11
110141.726876
21
-8846.339820
0
LINE
8
Layer 1
10
110141.726876
20
-8846.339820
11
110132.314610
21
-8840.301616
0
LINE
8
Layer 1
10
110132.314610
20
-8840.301616
11
110122.599767
21
-8834.711498
0
LINE
8
Layer 1
10
110122.599767
20
-8834.711498
11
110112.596912
21
-8829.584037
0
LINE
8
Layer 1
10
110112.596912
20
-8829.584037
11
110102.320611
21
-8824.933808
0
LINE
8
Layer 1
10
110102.320611
20
-8824.933808
11
110091.785429
21
-8820.775382
0
LINE
8
Layer 1
10
110091.785429
20
-8820.775382
11
110081.005931
21
-8817.123332
0
LINE
8
Layer 1
10
110081.005931
20
-8817.123332
11
110069.996685
21
-8813.992231
0
LINE
8
Layer 1
10
110069.996685
20
-8813.992231
11
110058.772254
21
-8811.396651
0
LINE
8
Layer 1
10
110058.772254
20
-8811.396651
11
110047.347204
21
-8809.351166
0
LINE
8
Layer 1
10
110047.347204
20
-8809.351166
11
110035.736102
21
-8807.870347
0
LINE
8
Layer 1
10
110035.736102
20
-8807.870347
11
110023.953512
21
-8806.968767
0
LINE
8
Layer 1
10
110023.953512
20
-8806.968767
11
110018.002461
21
-8806.739746
0
LINE
8
Layer 1
10
110018.002461
20
-8806.739746
11
110012.014000
21
-8806.661000
0
LINE
8
Layer 1
10
110012.000000
20
-8806.500000
11
96695.500000
21
-8806.500000
0
LINE
8
Layer 1
10
109764.000000
20
-9961.070000
11
109764.000000
21
-18118.700000
0
LINE
8
Layer 1
10
97065.500000
20
-9796.530000
11
96695.500000
21
-9796.530000
0
LINE
8
Layer 1
10
109764.000000
20
-9961.070000
11
109646.031000
21
-9796.535000
0
LINE
8
Layer 1
10
110012.000000
20
-19295.600000
11
94662.100000
21
-19295.600000
0
LINE
8
Layer 1
10
110244.000000
20
-9038.480000
11
110244.000000
21
-15213.200000
0
LINE
8
Layer 1
10
110012.000000
20
-19295.700000
11
110017.988987
21
-19295.621240
0
LINE
8
Layer 1
10
110017.988987
20
-19295.621240
11
110023.940554
21
-19295.392181
0
LINE
8
Layer 1
10
110023.940554
20
-19295.392181
11
110035.724144
21
-19294.490451
0
LINE
8
Layer 1
10
110035.724144
20
-19294.490451
11
110047.336203
21
-19293.009387
0
LINE
8
Layer 1
10
110047.336203
20
-19293.009387
11
110058.762162
21
-19290.963566
0
LINE
8
Layer 1
10
110058.762162
20
-19290.963566
11
110069.987453
21
-19288.367564
0
LINE
8
Layer 1
10
110069.987453
20
-19288.367564
11
110080.997509
21
-19285.235960
0
LINE
8
Layer 1
10
110080.997509
20
-19285.235960
11
110091.777760
21
-19281.583330
0
LINE
8
Layer 1
10
110091.777760
20
-19281.583330
11
110102.313640
21
-19277.424251
0
LINE
8
Layer 1
10
110102.313640
20
-19277.424251
11
110112.590579
21
-19272.773301
0
LINE
8
Layer 1
10
110112.590579
20
-19272.773301
11
110122.594010
21
-19267.645055
0
LINE
8
Layer 1
10
110122.594010
20
-19267.645055
11
110132.309365
21
-19262.054092
0
LINE
8
Layer 1
10
110132.309365
20
-19262.054092
11
110141.722075
21
-19256.014988
0
LINE
8
Layer 1
10
110141.722075
20
-19256.014988
11
110150.817572
21
-19249.542320
0
LINE
8
Layer 1
10
110150.817572
20
-19249.542320
11
110159.581288
21
-19242.650666
0
LINE
8
Layer 1
10
110159.581288
20
-19242.650666
11
110167.998656
21
-19235.354602
0
LINE
8
Layer 1
10
110167.998656
20
-19235.354602
11
110176.055106
21
-19227.668705
0
LINE
8
Layer 1
10
110176.055106
20
-19227.668705
11
110183.736071
21
-19219.607553
0
LINE
8
Layer 1
10
110183.736071
20
-19219.607553
11
110191.026983
21
-19211.185723
0
LINE
8
Layer 1
10
110191.026983
20
-19211.185723
11
110197.913274
21
-19202.417791
0
LINE
8
Layer 1
10
110197.913274
20
-19202.417791
11
110204.380374
21
-19193.318335
0
LINE
8
Layer 1
10
110204.380374
20
-19193.318335
11
110210.413717
21
-19183.901931
0
LINE
8
Layer 1
10
110210.413717
20
-19183.901931
11
110215.998735
21
-19174.183157
0
LINE
8
Layer 1
10
110215.998735
20
-19174.183157
11
110221.120858
21
-19164.176590
0
LINE
8
Layer 1
10
110221.120858
20
-19164.176590
11
110225.765519
21
-19153.896806
0
LINE
8
Layer 1
10
110225.765519
20
-19153.896806
11
110229.918150
21
-19143.358384
0
LINE
8
Layer 1
10
110229.918150
20
-19143.358384
11
110233.564183
21
-19132.575899
0
LINE
8
Layer 1
10
110233.564183
20
-19132.575899
11
110236.689049
21
-19121.563929
0
LINE
8
Layer 1
10
110236.689049
20
-19121.563929
11
110239.278181
21
-19110.337051
0
LINE
8
Layer 1
10
110239.278181
20
-19110.337051
11
110241.317010
21
-19098.909842
0
LINE
8
Layer 1
10
110241.317010
20
-19098.909842
11
110242.790968
21
-19087.296880
0
LINE
8
Layer 1
10
110242.790968
20
-19087.296880
11
110243.685488
21
-19075.512740
0
LINE
8
Layer 1
10
110243.685488
20
-19075.512740
11
110243.910905
21
-19069.561034
0
LINE
8
Layer 1
10
110243.910905
20
-19069.561034
11
110243.986000
21
-19063.572000
0
LINE
8
Layer 1
10
94429.800000
20
-17499.800000
11
94429.800000
21
-19063.600000
0
LINE
8
Layer 1
10
109646.000000
20
-9796.530000
11
97065.500000
21
-9796.530000
0
LINE
8
Layer 1
10
96695.500000
20
-9796.530000
11
96695.500000
21
-8806.500000
0
LINE
8
Layer 1
10
93913.000000
20
-17499.800000
11
93913.000000
21
-16425.400000
0
LINE
8
Layer 1
10
109644.000000
20
-18263.200000
11
95048.600000
21
-18262.071110
0
LINE
8
Layer 1
10
83517.700000
20
-22032.200000
11
83511.711615
21
-22032.278923
0
LINE
8
Layer 1
10
83511.711615
20
-22032.278923
11
83505.760640
21
-22032.508112
0
LINE
8
Layer 1
10
83505.760640
20
-22032.508112
11
83493.978205
21
-22033.410001
0
LINE
8
Layer 1
10
83493.978205
20
-22033.410001
11
83482.367258
21
-22034.891096
0
LINE
8
Layer 1
10
83482.367258
20
-22034.891096
11
83470.942365
21
-22036.936826
0
LINE
8
Layer 1
10
83470.942365
20
-22036.936826
11
83459.718088
21
-22039.532618
0
LINE
8
Layer 1
10
83459.718088
20
-22039.532618
11
83448.708994
21
-22042.663903
0
LINE
8
Layer 1
10
83448.708994
20
-22042.663903
11
83437.929646
21
-22046.316108
0
LINE
8
Layer 1
10
83437.929646
20
-22046.316108
11
83427.394608
21
-22050.474662
0
LINE
8
Layer 1
10
83427.394608
20
-22050.474662
11
83417.118445
21
-22055.124993
0
LINE
8
Layer 1
10
83417.118445
20
-22055.124993
11
83407.115720
21
-22060.252531
0
LINE
8
Layer 1
10
83407.115720
20
-22060.252531
11
83397.400999
21
-22065.842703
0
LINE
8
Layer 1
10
83397.400999
20
-22065.842703
11
83387.988846
21
-22071.880939
0
LINE
8
Layer 1
10
83387.988846
20
-22071.880939
11
83378.893824
21
-22078.352667
0
LINE
8
Layer 1
10
83378.893824
20
-22078.352667
11
83370.130499
21
-22085.243315
0
LINE
8
Layer 1
10
83370.130499
20
-22085.243315
11
83361.713434
21
-22092.538312
0
LINE
8
Layer 1
10
83361.713434
20
-22092.538312
11
83353.657194
21
-22100.223087
0
LINE
8
Layer 1
10
83353.657194
20
-22100.223087
11
83345.976343
21
-22108.283069
0
LINE
8
Layer 1
10
83345.976343
20
-22108.283069
11
83338.685445
21
-22116.703685
0
LINE
8
Layer 1
10
83338.685445
20
-22116.703685
11
83331.799065
21
-22125.470365
0
LINE
8
Layer 1
10
83331.799065
20
-22125.470365
11
83325.331768
21
-22134.568537
0
LINE
8
Layer 1
10
83325.331768
20
-22134.568537
11
83319.298116
21
-22143.983630
0
LINE
8
Layer 1
10
83319.298116
20
-22143.983630
11
83313.712675
21
-22153.701072
0
LINE
8
Layer 1
10
83313.712675
20
-22153.701072
11
83308.590009
21
-22163.706293
0
LINE
8
Layer 1
10
83308.590009
20
-22163.706293
11
83303.944683
21
-22173.984719
0
LINE
8
Layer 1
10
83303.944683
20
-22173.984719
11
83299.791260
21
-22184.521781
0
LINE
8
Layer 1
10
83299.791260
20
-22184.521781
11
83296.144305
21
-22195.302907
0
LINE
8
Layer 1
10
83296.144305
20
-22195.302907
11
83293.018382
21
-22206.313525
0
LINE
8
Layer 1
10
83293.018382
20
-22206.313525
11
83290.428055
21
-22217.539063
0
LINE
8
Layer 1
10
83290.428055
20
-22217.539063
11
83288.387889
21
-22228.964952
0
LINE
8
Layer 1
10
83288.387889
20
-22228.964952
11
83286.912449
21
-22240.576618
0
LINE
8
Layer 1
10
83286.912449
20
-22240.576618
11
83286.016297
21
-22252.359491
0
LINE
8
Layer 1
10
83286.016297
20
-22252.359491
11
83285.790007
21
-22258.310577
0
LINE
8
Layer 1
10
83285.790007
20
-22258.310577
11
83285.714000
21
-22264.299000
0
LINE
8
Layer 1
10
83285.400000
20
-22264.300000
11
83285.400000
21
-23117.700000
0
LINE
8
Layer 1
10
98867.200000
20
-22032.000000
11
83517.700000
21
-22032.000000
0
LINE
8
Layer 1
10
99099.400000
20
-22264.300000
11
99099.324170
21
-22258.311502
0
LINE
8
Layer 1
10
99099.324170
20
-22258.311502
11
99099.098047
21
-22252.360340
0
LINE
8
Layer 1
10
99099.098047
20
-22252.360340
11
99098.202205
21
-22240.577312
0
LINE
8
Layer 1
10
99098.202205
20
-22240.577312
11
99096.727041
21
-22228.965490
0
LINE
8
Layer 1
10
99096.727041
20
-22228.965490
11
99094.687120
21
-22217.539446
0
LINE
8
Layer 1
10
99094.687120
20
-22217.539446
11
99092.097006
21
-22206.313752
0
LINE
8
Layer 1
10
99092.097006
20
-22206.313752
11
99088.971267
21
-22195.302982
0
LINE
8
Layer 1
10
99088.971267
20
-22195.302982
11
99085.324467
21
-22184.521707
0
LINE
8
Layer 1
10
99085.324467
20
-22184.521707
11
99081.171172
21
-22173.984501
0
LINE
8
Layer 1
10
99081.171172
20
-22173.984501
11
99076.525947
21
-22163.705937
0
LINE
8
Layer 1
10
99076.525947
20
-22163.705937
11
99071.403359
21
-22153.700586
0
LINE
8
Layer 1
10
99071.403359
20
-22153.700586
11
99065.817972
21
-22143.983022
0
LINE
8
Layer 1
10
99065.817972
20
-22143.983022
11
99059.784352
21
-22134.567816
0
LINE
8
Layer 1
10
99059.784352
20
-22134.567816
11
99053.317065
21
-22125.469543
0
LINE
8
Layer 1
10
99053.317065
20
-22125.469543
11
99046.430676
21
-22116.702774
0
LINE
8
Layer 1
10
99046.430676
20
-22116.702774
11
99039.139751
21
-22108.282082
0
LINE
8
Layer 1
10
99039.139751
20
-22108.282082
11
99031.458855
21
-22100.222040
0
LINE
8
Layer 1
10
99031.458855
20
-22100.222040
11
99023.402554
21
-22092.537220
0
LINE
8
Layer 1
10
99023.402554
20
-22092.537220
11
99014.985414
21
-22085.242195
0
LINE
8
Layer 1
10
99014.985414
20
-22085.242195
11
99006.221999
21
-22078.351537
0
LINE
8
Layer 1
10
99006.221999
20
-22078.351537
11
98997.126876
21
-22071.879820
0
LINE
8
Layer 1
10
98997.126876
20
-22071.879820
11
98987.714610
21
-22065.841616
0
LINE
8
Layer 1
10
98987.714610
20
-22065.841616
11
98977.999767
21
-22060.251498
0
LINE
8
Layer 1
10
98977.999767
20
-22060.251498
11
98967.996912
21
-22055.124037
0
LINE
8
Layer 1
10
98967.996912
20
-22055.124037
11
98957.720611
21
-22050.473808
0
LINE
8
Layer 1
10
98957.720611
20
-22050.473808
11
98947.185429
21
-22046.315382
0
LINE
8
Layer 1
10
98947.185429
20
-22046.315382
11
98936.405931
21
-22042.663332
0
LINE
8
Layer 1
10
98936.405931
20
-22042.663332
11
98925.396685
21
-22039.532231
0
LINE
8
Layer 1
10
98925.396685
20
-22039.532231
11
98914.172254
21
-22036.936651
0
LINE
8
Layer 1
10
98914.172254
20
-22036.936651
11
98902.747204
21
-22034.891166
0
LINE
8
Layer 1
10
98902.747204
20
-22034.891166
11
98891.136102
21
-22033.410347
0
LINE
8
Layer 1
10
98891.136102
20
-22033.410347
11
98879.353512
21
-22032.508767
0
LINE
8
Layer 1
10
98879.353512
20
-22032.508767
11
98873.402461
21
-22032.279746
0
LINE
8
Layer 1
10
98873.402461
20
-22032.279746
11
98867.414000
21
-22032.201000
0
LINE
8
Layer 1
10
99099.400000
20
-22264.300000
11
99099.682222
21
-23117.739000
0
LINE
8
Layer 1
10
83285.400000
20
-23117.700000
11
99099.700000
21
-23117.700000
0
LINE
8
Layer 1
10
83517.700000
20
-22032.200000
11
83511.711615
21
-22032.278923
0
LINE
8
Layer 1
10
83511.711615
20
-22032.278923
11
83505.760640
21
-22032.508112
0
LINE
8
Layer 1
10
83505.760640
20
-22032.508112
11
83493.978205
21
-22033.410001
0
LINE
8
Layer 1
10
83493.978205
20
-22033.410001
11
83482.367258
21
-22034.891096
0
LINE
8
Layer 1
10
83482.367258
20
-22034.891096
11
83470.942365
21
-22036.936826
0
LINE
8
Layer 1
10
83470.942365
20
-22036.936826
11
83459.718088
21
-22039.532618
0
LINE
8
Layer 1
10
83459.718088
20
-22039.532618
11
83448.708994
21
-22042.663903
0
LINE
8
Layer 1
10
83448.708994
20
-22042.663903
11
83437.929646
21
-22046.316108
0
LINE
8
Layer 1
10
83437.929646
20
-22046.316108
11
83427.394608
21
-22050.474662
0
LINE
8
Layer 1
10
83427.394608
20
-22050.474662
11
83417.118445
21
-22055.124993
0
LINE
8
Layer 1
10
83417.118445
20
-22055.124993
11
83407.115720
21
-22060.252531
0
LINE
8
Layer 1
10
83407.115720
20
-22060.252531
11
83397.400999
21
-22065.842703
0
LINE
8
Layer 1
10
83397.400999
20
-22065.842703
11
83387.988846
21
-22071.880939
0
LINE
8
Layer 1
10
83387.988846
20
-22071.880939
11
83378.893824
21
-22078.352667
0
LINE
8
Layer 1
10
83378.893824
20
-22078.352667
11
83370.130499
21
-22085.243315
0
LINE
8
Layer 1
10
83370.130499
20
-22085.243315
11
83361.713434
21
-22092.538312
0
LINE
8
Layer 1
10
83361.713434
20
-22092.538312
11
83353.657194
21
-22100.223087
0
LINE
8
Layer 1
10
83353.657194
20
-22100.223087
11
83345.976343
21
-22108.283069
0
LINE
8
Layer 1
10
83345.976343
20
-22108.283069
11
83338.685445
21
-22116.703685
0
LINE
8
Layer 1
10
83338.685445
20
-22116.703685
11
83331.799065
21
-22125.470365
0
LINE
8
Layer 1
10
83331.799065
20
-22125.470365
11
83325.331768
21
-22134.568537
0
LINE
8
Layer 1
10
83325.331768
20
-22134.568537
11
83319.298116
21
-22143.983630
0
LINE
8
Layer 1
10
83319.298116
20
-22143.983630
11
83313.712675
21
-22153.701072
0
LINE
8
Layer 1
10
83313.712675
20
-22153.701072
11
83308.590009
21
-22163.706293
0
LINE
8
Layer 1
10
83308.590009
20
-22163.706293
11
83303.944683
21
-22173.984719
0
LINE
8
Layer 1
10
83303.944683
20
-22173.984719
11
83299.791260
21
-22184.521781
0
LINE
8
Layer 1
10
83299.791260
20
-22184.521781
11
83296.144305
21
-22195.302907
0
LINE
8
Layer 1
10
83296.144305
20
-22195.302907
11
83293.018382
21
-22206.313525
0
LINE
8
Layer 1
10
83293.018382
20
-22206.313525
11
83290.428055
21
-22217.539063
0
LINE
8
Layer 1
10
83290.428055
20
-22217.539063
11
83288.387889
21
-22228.964952
0
LINE
8
Layer 1
10
83288.387889
20
-22228.964952
11
83286.912449
21
-22240.576618
0
LINE
8
Layer 1
10
83286.912449
20
-22240.576618
11
83286.016297
21
-22252.359491
0
LINE
8
Layer 1
10
83286.016297
20
-22252.359491
11
83285.790007
21
-22258.310577
0
LINE
8
Layer 1
10
83285.790007
20
-22258.310577
11
83285.714000
21
-22264.299000
0
LINE
8
Layer 1
10
83285.400000
20
-22264.300000
11
83285.400000
21
-23117.700000
0
LINE
8
Layer 1
10
98867.200000
20
-22032.000000
11
83517.700000
21
-22032.000000
0
LINE
8
Layer 1
10
99099.400000
20
-22264.300000
11
99099.324170
21
-22258.311502
0
LINE
8
Layer 1
10
99099.324170
20
-22258.311502
11
99099.098047
21
-22252.360340
0
LINE
8
Layer 1
10
99099.098047
20
-22252.360340
11
99098.202205
21
-22240.577312
0
LINE
8
Layer 1
10
99098.202205
20
-22240.577312
11
99096.727041
21
-22228.965490
0
LINE
8
Layer 1
10
99096.727041
20
-22228.965490
11
99094.687120
21
-22217.539446
0
LINE
8
Layer 1
10
99094.687120
20
-22217.539446
11
99092.097006
21
-22206.313752
0
LINE
8
Layer 1
10
99092.097006
20
-22206.313752
11
99088.971267
21
-22195.302982
0
LINE
8
Layer 1
10
99088.971267
20
-22195.302982
11
99085.324467
21
-22184.521707
0
LINE
8
Layer 1
10
99085.324467
20
-22184.521707
11
99081.171172
21
-22173.984501
0
LINE
8
Layer 1
10
99081.171172
20
-22173.984501
11
99076.525947
21
-22163.705937
0
LINE
8
Layer 1
10
99076.525947
20
-22163.705937
11
99071.403359
21
-22153.700586
0
LINE
8
Layer 1
10
99071.403359
20
-22153.700586
11
99065.817972
21
-22143.983022
0
LINE
8
Layer 1
10
99065.817972
20
-22143.983022
11
99059.784352
21
-22134.567816
0
LINE
8
Layer 1
10
99059.784352
20
-22134.567816
11
99053.317065
21
-22125.469543
0
LINE
8
Layer 1
10
99053.317065
20
-22125.469543
11
99046.430676
21
-22116.702774
0
LINE
8
Layer 1
10
99046.430676
20
-22116.702774
11
99039.139751
21
-22108.282082
0
LINE
8
Layer 1
10
99039.139751
20
-22108.282082
11
99031.458855
21
-22100.222040
0
LINE
8
Layer 1
10
99031.458855
20
-22100.222040
11
99023.402554
21
-22092.537220
0
LINE
8
Layer 1
10
99023.402554
20
-22092.537220
11
99014.985414
21
-22085.242195
0
LINE
8
Layer 1
10
99014.985414
20
-22085.242195
11
99006.221999
21
-22078.351537
0
LINE
8
Layer 1
10
99006.221999
20
-22078.351537
11
98997.126876
21
-22071.879820
0
LINE
8
Layer 1
10
98997.126876
20
-22071.879820
11
98987.714610
21
-22065.841616
0
LINE
8
Layer 1
10
98987.714610
20
-22065.841616
11
98977.999767
21
-22060.251498
0
LINE
8
Layer 1
10
98977.999767
20
-22060.251498
11
98967.996912
21
-22055.124037
0
LINE
8
Layer 1
10
98967.996912
20
-22055.124037
11
98957.720611
21
-22050.473808
0
LINE
8
Layer 1
10
98957.720611
20
-22050.473808
11
98947.185429
21
-22046.315382
0
LINE
8
Layer 1
10
98947.185429
20
-22046.315382
11
98936.405931
21
-22042.663332
0
LINE
8
Layer 1
10
98936.405931
20
-22042.663332
11
98925.396685
21
-22039.532231
0
LINE
8
Layer 1
10
98925.396685
20
-22039.532231
11
98914.172254
21
-22036.936651
0
LINE
8
Layer 1
10
98914.172254
20
-22036.936651
11
98902.747204
21
-22034.891166
0
LINE
8
Layer 1
10
98902.747204
20
-22034.891166
11
98891.136102
21
-22033.410347
0
LINE
8
Layer 1
10
98891.136102
20
-22033.410347
11
98879.353512
21
-22032.508767
0
LINE
8
Layer 1
10
98879.353512
20
-22032.508767
11
98873.402461
21
-22032.279746
0
LINE
8
Layer 1
10
98873.402461
20
-22032.279746
11
98867.414000
21
-22032.201000
0
LINE
8
Layer 1
10
99099.400000
20
-22264.300000
11
99099.682222
21
-23117.739000
0
LINE
8
Layer 1
10
83285.400000
20
-23117.700000
11
99099.700000
21
-23117.700000
0
LINE
8
Layer 1
10
100455.000000
20
-25863.100000
11
100455.000000
21
-25434.200000
0
LINE
8
Layer 1
10
100654.000000
20
-25863.100000
11
100455.000000
21
-25863.100000
0
LINE
8
Layer 1
10
100654.000000
20
-25434.200000
11
100654.000000
21
-25863.100000
0
LINE
8
Layer 1
10
100455.000000
20
-25434.200000
11
100654.000000
21
-25434.200000
0
LINE
8
Layer 1
10
100291.000000
20
-32227.000000
11
100291.000000
21
-29272.100000
0
LINE
8
Layer 1
10
101890.000000
20
-29272.100000
11
100291.000000
21
-29272.100000
0
LINE
8
Layer 1
10
101890.000000
20
-28356.600000
11
101890.000000
21
-29272.100000
0
LINE
8
Layer 1
10
100291.000000
20
-28356.600000
11
101890.000000
21
-28356.600000
0
LINE
8
Layer 1
10
105323.000000
20
-24795.500000
11
106879.000000
21
-24795.500000
0
LINE
8
Layer 1
10
103206.000000
20
-24795.500000
11
104762.000000
21
-24795.500000
0
LINE
8
Layer 1
10
107440.000000
20
-24795.500000
11
108995.000000
21
-24795.500000
0
LINE
8
Layer 1
10
108995.000000
20
-23239.900000
11
107440.000000
21
-23239.900000
0
LINE
8
Layer 1
10
109556.000000
20
-27473.200000
11
109556.000000
21
-29028.800000
0
LINE
8
Layer 1
10
111112.000000
20
-27473.200000
11
109556.000000
21
-27473.200000
0
LINE
8
Layer 1
10
106879.000000
20
-23239.900000
11
105323.000000
21
-23239.900000
0
LINE
8
Layer 1
10
115345.000000
20
-25356.600000
11
113790.000000
21
-25356.600000
0
LINE
8
Layer 1
10
103206.000000
20
-27473.200000
11
103206.000000
21
-29028.800000
0
LINE
8
Layer 1
10
106879.000000
20
-29589.900000
11
105323.000000
21
-29589.900000
0
LINE
8
Layer 1
10
105323.000000
20
-23239.900000
11
105323.000000
21
-24795.500000
0
LINE
8
Layer 1
10
111673.000000
20
-29589.900000
11
111673.000000
21
-31145.500000
0
LINE
8
Layer 1
10
104762.000000
20
-29028.800000
11
104762.000000
21
-27473.200000
0
LINE
8
Layer 1
10
113229.000000
20
-31145.500000
11
113229.000000
21
-29589.900000
0
LINE
8
Layer 1
10
111112.000000
20
-29028.800000
11
111112.000000
21
-27473.200000
0
LINE
8
Layer 1
10
109556.000000
20
-24795.500000
11
111112.000000
21
-24795.500000
0
LINE
8
Layer 1
10
102645.000000
20
-31145.500000
11
102645.000000
21
-29589.900000
0
LINE
8
Layer 1
10
113229.000000
20
-29589.900000
11
111673.000000
21
-29589.900000
0
LINE
8
Layer 1
10
108995.000000
20
-29589.900000
11
107440.000000
21
-29589.900000
0
LINE
8
Layer 1
10
111673.000000
20
-31145.500000
11
113229.000000
21
-31145.500000
0
LINE
8
Layer 1
10
113229.000000
20
-26912.200000
11
113229.000000
21
-25356.600000
0
LINE
8
Layer 1
10
102645.000000
20
-29589.900000
11
101090.000000
21
-29589.900000
0
LINE
8
Layer 1
10
101090.000000
20
-31145.500000
11
102645.000000
21
-31145.500000
0
LINE
8
Layer 1
10
109556.000000
20
-23239.900000
11
109556.000000
21
-24795.500000
0
LINE
8
Layer 1
10
106879.000000
20
-26912.200000
11
106879.000000
21
-25356.600000
0
LINE
8
Layer 1
10
106879.000000
20
-25356.600000
11
105323.000000
21
-25356.600000
0
LINE
8
Layer 1
10
108995.000000
20
-29028.800000
11
108995.000000
21
-27473.200000
0
LINE
8
Layer 1
10
104762.000000
20
-26912.200000
11
104762.000000
21
-25356.600000
0
LINE
8
Layer 1
10
104762.000000
20
-25356.600000
11
103206.000000
21
-25356.600000
0
LINE
8
Layer 1
10
103206.000000
20
-25356.600000
11
103206.000000
21
-26912.200000
0
LINE
8
Layer 1
10
103206.000000
20
-26912.200000
11
104762.000000
21
-26912.200000
0
LINE
8
Layer 1
10
107440.000000
20
-27473.200000
11
107440.000000
21
-29028.800000
0
LINE
8
Layer 1
10
113790.000000
20
-27473.200000
11
113790.000000
21
-29028.800000
0
LINE
8
Layer 1
10
105323.000000
20
-29028.800000
11
106879.000000
21
-29028.800000
0
LINE
8
Layer 1
10
107440.000000
20
-23239.900000
11
107440.000000
21
-24795.500000
0
LINE
8
Layer 1
10
106879.000000
20
-27473.200000
11
105323.000000
21
-27473.200000
0
LINE
8
Layer 1
10
108995.000000
20
-27473.200000
11
107440.000000
21
-27473.200000
0
LINE
8
Layer 1
10
103206.000000
20
-23239.900000
11
103206.000000
21
-24795.500000
0
LINE
8
Layer 1
10
109556.000000
20
-29589.900000
11
109556.000000
21
-31145.500000
0
LINE
8
Layer 1
10
111112.000000
20
-29589.900000
11
109556.000000
21
-29589.900000
0
LINE
8
Layer 1
10
108995.000000
20
-24795.500000
11
108995.000000
21
-23239.900000
0
LINE
8
Layer 1
10
105323.000000
20
-27473.200000
11
105323.000000
21
-29028.800000
0
LINE
8
Layer 1
10
107440.000000
20
-29028.800000
11
108995.000000
21
-29028.800000
0
LINE
8
Layer 1
10
104762.000000
20
-23239.900000
11
103206.000000
21
-23239.900000
0
LINE
8
Layer 1
10
105323.000000
20
-25356.600000
11
105323.000000
21
-26912.200000
0
LINE
8
Layer 1
10
115345.000000
20
-31145.500000
11
115345.000000
21
-29589.900000
0
LINE
8
Layer 1
10
115345.000000
20
-27473.200000
11
113790.000000
21
-27473.200000
0
LINE
8
Layer 1
10
115345.000000
20
-29589.900000
11
113790.000000
21
-29589.900000
0
LINE
8
Layer 1
10
111673.000000
20
-27473.200000
11
111673.000000
21
-29028.800000
0
LINE
8
Layer 1
10
113229.000000
20
-27473.200000
11
111673.000000
21
-27473.200000
0
LINE
8
Layer 1
10
111112.000000
20
-31145.500000
11
111112.000000
21
-29589.900000
0
LINE
8
Layer 1
10
111673.000000
20
-29028.800000
11
113229.000000
21
-29028.800000
0
LINE
8
Layer 1
10
115345.000000
20
-29028.800000
11
115345.000000
21
-27473.200000
0
LINE
8
Layer 1
10
113229.000000
20
-29028.800000
11
113229.000000
21
-27473.200000
0
LINE
8
Layer 1
10
105323.000000
20
-26912.200000
11
106879.000000
21
-26912.200000
0
LINE
8
Layer 1
10
108995.000000
20
-26912.200000
11
108995.000000
21
-25356.600000
0
LINE
8
Layer 1
10
108995.000000
20
-25356.600000
11
107440.000000
21
-25356.600000
0
LINE
8
Layer 1
10
107440.000000
20
-26912.200000
11
108995.000000
21
-26912.200000
0
LINE
8
Layer 1
10
107440.000000
20
-25356.600000
11
107440.000000
21
-26912.200000
0
LINE
8
Layer 1
10
106879.000000
20
-29028.800000
11
106879.000000
21
-27473.200000
0
LINE
8
Layer 1
10
113790.000000
20
-29028.800000
11
115345.000000
21
-29028.800000
0
LINE
8
Layer 1
10
104762.000000
20
-29589.900000
11
103206.000000
21
-29589.900000
0
LINE
8
Layer 1
10
103206.000000
20
-31145.500000
11
104762.000000
21
-31145.500000
0
LINE
8
Layer 1
10
104762.000000
20
-31145.500000
11
104762.000000
21
-29589.900000
0
LINE
8
Layer 1
10
103206.000000
20
-29589.900000
11
103206.000000
21
-31145.500000
0
LINE
8
Layer 1
10
113790.000000
20
-29589.900000
11
113790.000000
21
-31145.500000
0
LINE
8
Layer 1
10
109556.000000
20
-31145.500000
11
111112.000000
21
-31145.500000
0
LINE
8
Layer 1
10
113790.000000
20
-31145.500000
11
115345.000000
21
-31145.500000
0
LINE
8
Layer 1
10
109556.000000
20
-29028.800000
11
111112.000000
21
-29028.800000
0
LINE
8
Layer 1
10
103206.000000
20
-29028.800000
11
104762.000000
21
-29028.800000
0
LINE
8
Layer 1
10
101090.000000
20
-29589.900000
11
101090.000000
21
-31145.500000
0
LINE
8
Layer 1
10
107440.000000
20
-31145.500000
11
108995.000000
21
-31145.500000
0
LINE
8
Layer 1
10
113229.000000
20
-25356.600000
11
111673.000000
21
-25356.600000
0
LINE
8
Layer 1
10
111673.000000
20
-25356.600000
11
111673.000000
21
-26912.200000
0
LINE
8
Layer 1
10
111112.000000
20
-26912.200000
11
111112.000000
21
-25356.600000
0
LINE
8
Layer 1
10
108995.000000
20
-31145.500000
11
108995.000000
21
-29589.900000
0
LINE
8
Layer 1
10
111112.000000
20
-25356.600000
11
109556.000000
21
-25356.600000
0
LINE
8
Layer 1
10
109556.000000
20
-26912.200000
11
111112.000000
21
-26912.200000
0
LINE
8
Layer 1
10
115345.000000
20
-23239.900000
11
113790.000000
21
-23239.900000
0
LINE
8
Layer 1
10
111673.000000
20
-24795.500000
11
113229.000000
21
-24795.500000
0
LINE
8
Layer 1
10
115345.000000
20
-24795.500000
11
115345.000000
21
-23239.900000
0
LINE
8
Layer 1
10
109556.000000
20
-25356.600000
11
109556.000000
21
-26912.200000
0
LINE
8
Layer 1
10
113790.000000
20
-26912.200000
11
115345.000000
21
-26912.200000
0
LINE
8
Layer 1
10
111673.000000
20
-26912.200000
11
113229.000000
21
-26912.200000
0
LINE
8
Layer 1
10
113790.000000
20
-23239.900000
11
113790.000000
21
-24795.500000
0
LINE
8
Layer 1
10
105323.000000
20
-31145.500000
11
106879.000000
21
-31145.500000
0
LINE
8
Layer 1
10
106879.000000
20
-31145.500000
11
106879.000000
21
-29589.900000
0
LINE
8
Layer 1
10
113229.000000
20
-23239.900000
11
111673.000000
21
-23239.900000
0
LINE
8
Layer 1
10
105323.000000
20
-29589.900000
11
105323.000000
21
-31145.500000
0
LINE
8
Layer 1
10
111112.000000
20
-24795.500000
11
111112.000000
21
-23239.900000
0
LINE
8
Layer 1
10
113790.000000
20
-24795.500000
11
115345.000000
21
-24795.500000
0
LINE
8
Layer 1
10
104762.000000
20
-27473.200000
11
103206.000000
21
-27473.200000
0
LINE
8
Layer 1
10
115345.000000
20
-26912.200000
11
115345.000000
21
-25356.600000
0
LINE
8
Layer 1
10
113790.000000
20
-25356.600000
11
113790.000000
21
-26912.200000
0
LINE
8
Layer 1
10
106879.000000
20
-24795.500000
11
106879.000000
21
-23239.900000
0
LINE
8
Layer 1
10
107440.000000
20
-29589.900000
11
107440.000000
21
-31145.500000
0
LINE
8
Layer 1
10
111673.000000
20
-23239.900000
11
111673.000000
21
-24795.500000
0
LINE
8
Layer 1
10
113229.000000
20
-24795.500000
11
113229.000000
21
-23239.900000
0
LINE
8
Layer 1
10
111112.000000
20
-23239.900000
11
109556.000000
21
-23239.900000
0
LINE
8
Layer 1
10
100523.000000
20
-21969.900000
11
101282.742000
21
-21971.028890
0
LINE
8
Layer 1
10
115873.000000
20
-32459.000000
11
100523.000000
21
-32459.000000
0
LINE
8
Layer 1
10
115873.000000
20
-21969.900000
11
101283.300000
21
-21971.028890
0
LINE
8
Layer 1
10
116105.000000
20
-28376.600000
11
116105.000000
21
-32226.700000
0
LINE
8
Layer 1
10
116105.000000
20
-22202.100000
11
116104.924170
21
-22196.111502
0
LINE
8
Layer 1
10
116104.924170
20
-22196.111502
11
116104.698047
21
-22190.160340
0
LINE
8
Layer 1
10
116104.698047
20
-22190.160340
11
116103.802205
21
-22178.377312
0
LINE
8
Layer 1
10
116103.802205
20
-22178.377312
11
116102.327041
21
-22166.765490
0
LINE
8
Layer 1
10
116102.327041
20
-22166.765490
11
116100.287120
21
-22155.339446
0
LINE
8
Layer 1
10
116100.287120
20
-22155.339446
11
116097.697006
21
-22144.113752
0
LINE
8
Layer 1
10
116097.697006
20
-22144.113752
11
116094.571267
21
-22133.102982
0
LINE
8
Layer 1
10
116094.571267
20
-22133.102982
11
116090.924467
21
-22122.321707
0
LINE
8
Layer 1
10
116090.924467
20
-22122.321707
11
116086.771172
21
-22111.784501
0
LINE
8
Layer 1
10
116086.771172
20
-22111.784501
11
116082.125947
21
-22101.505937
0
LINE
8
Layer 1
10
116082.125947
20
-22101.505937
11
116077.003359
21
-22091.500586
0
LINE
8
Layer 1
10
116077.003359
20
-22091.500586
11
116071.417972
21
-22081.783022
0
LINE
8
Layer 1
10
116071.417972
20
-22081.783022
11
116065.384352
21
-22072.367816
0
LINE
8
Layer 1
10
116065.384352
20
-22072.367816
11
116058.917065
21
-22063.269543
0
LINE
8
Layer 1
10
116058.917065
20
-22063.269543
11
116052.030676
21
-22054.502774
0
LINE
8
Layer 1
10
116052.030676
20
-22054.502774
11
116044.739751
21
-22046.082082
0
LINE
8
Layer 1
10
116044.739751
20
-22046.082082
11
116037.058855
21
-22038.022040
0
LINE
8
Layer 1
10
116037.058855
20
-22038.022040
11
116029.002554
21
-22030.337220
0
LINE
8
Layer 1
10
116029.002554
20
-22030.337220
11
116020.585414
21
-22023.042195
0
LINE
8
Layer 1
10
116020.585414
20
-22023.042195
11
116011.821999
21
-22016.151537
0
LINE
8
Layer 1
10
116011.821999
20
-22016.151537
11
116002.726876
21
-22009.679820
0
LINE
8
Layer 1
10
116002.726876
20
-22009.679820
11
115993.314610
21
-22003.641616
0
LINE
8
Layer 1
10
115993.314610
20
-22003.641616
11
115983.599767
21
-21998.051498
0
LINE
8
Layer 1
10
115983.599767
20
-21998.051498
11
115973.596912
21
-21992.924037
0
LINE
8
Layer 1
10
115973.596912
20
-21992.924037
11
115963.320611
21
-21988.273808
0
LINE
8
Layer 1
10
115963.320611
20
-21988.273808
11
115952.785429
21
-21984.115382
0
LINE
8
Layer 1
10
115952.785429
20
-21984.115382
11
115942.005931
21
-21980.463332
0
LINE
8
Layer 1
10
115942.005931
20
-21980.463332
11
115930.996685
21
-21977.332231
0
LINE
8
Layer 1
10
115930.996685
20
-21977.332231
11
115919.772254
21
-21974.736651
0
LINE
8
Layer 1
10
115919.772254
20
-21974.736651
11
115908.347204
21
-21972.691166
0
LINE
8
Layer 1
10
115908.347204
20
-21972.691166
11
115896.736102
21
-21971.210347
0
LINE
8
Layer 1
10
115896.736102
20
-21971.210347
11
115884.953512
21
-21970.308767
0
LINE
8
Layer 1
10
115884.953512
20
-21970.308767
11
115879.002461
21
-21970.079746
0
LINE
8
Layer 1
10
115879.002461
20
-21970.079746
11
115873.014000
21
-21970.001000
0
LINE
8
Layer 1
10
116105.000000
20
-22201.900000
11
116105.000000
21
-28376.600000
0
LINE
8
Layer 1
10
115873.000000
20
-32459.000000
11
115878.986412
21
-32458.921305
0
LINE
8
Layer 1
10
115878.986412
20
-32458.921305
11
115884.935454
21
-32458.692435
0
LINE
8
Layer 1
10
115884.935454
20
-32458.692435
11
115896.714147
21
-32457.791444
0
LINE
8
Layer 1
10
115896.714147
20
-32457.791444
11
115908.321525
21
-32456.311582
0
LINE
8
Layer 1
10
115908.321525
20
-32456.311582
11
115919.743031
21
-32454.267405
0
LINE
8
Layer 1
10
115919.743031
20
-32454.267405
11
115930.964110
21
-32451.673469
0
LINE
8
Layer 1
10
115930.964110
20
-32451.673469
11
115941.970207
21
-32448.544329
0
LINE
8
Layer 1
10
115941.970207
20
-32448.544329
11
115952.746766
21
-32444.894540
0
LINE
8
Layer 1
10
115952.746766
20
-32444.894540
11
115963.279232
21
-32440.738659
0
LINE
8
Layer 1
10
115963.279232
20
-32440.738659
11
115973.553048
21
-32436.091240
0
LINE
8
Layer 1
10
115973.553048
20
-32436.091240
11
115983.553660
21
-32430.966840
0
LINE
8
Layer 1
10
115983.553660
20
-32430.966840
11
115993.266512
21
-32425.380013
0
LINE
8
Layer 1
10
115993.266512
20
-32425.380013
11
116002.677048
21
-32419.345315
0
LINE
8
Layer 1
10
116002.677048
20
-32419.345315
11
116011.770713
21
-32412.877302
0
LINE
8
Layer 1
10
116011.770713
20
-32412.877302
11
116020.532952
21
-32405.990530
0
LINE
8
Layer 1
10
116020.532952
20
-32405.990530
11
116028.949208
21
-32398.699553
0
LINE
8
Layer 1
10
116028.949208
20
-32398.699553
11
116037.004927
21
-32391.018927
0
LINE
8
Layer 1
10
116037.004927
20
-32391.018927
11
116044.685553
21
-32382.963208
0
LINE
8
Layer 1
10
116044.685553
20
-32382.963208
11
116051.976530
21
-32374.546952
0
LINE
8
Layer 1
10
116051.976530
20
-32374.546952
11
116058.863302
21
-32365.784713
0
LINE
8
Layer 1
10
116058.863302
20
-32365.784713
11
116065.331315
21
-32356.691048
0
LINE
8
Layer 1
10
116065.331315
20
-32356.691048
11
116071.366013
21
-32347.280512
0
LINE
8
Layer 1
10
116071.366013
20
-32347.280512
11
116076.952840
21
-32337.567660
0
LINE
8
Layer 1
10
116076.952840
20
-32337.567660
11
116082.077240
21
-32327.567048
0
LINE
8
Layer 1
10
116082.077240
20
-32327.567048
11
116086.724659
21
-32317.293232
0
LINE
8
Layer 1
10
116086.724659
20
-32317.293232
11
116090.880540
21
-32306.760766
0
LINE
8
Layer 1
10
116090.880540
20
-32306.760766
11
116094.530329
21
-32295.984207
0
LINE
8
Layer 1
10
116094.530329
20
-32295.984207
11
116097.659469
21
-32284.978110
0
LINE
8
Layer 1
10
116097.659469
20
-32284.978110
11
116100.253405
21
-32273.757031
0
LINE
8
Layer 1
10
116100.253405
20
-32273.757031
11
116102.297582
21
-32262.335525
0
LINE
8
Layer 1
10
116102.297582
20
-32262.335525
11
116103.777444
21
-32250.728147
0
LINE
8
Layer 1
10
116103.777444
20
-32250.728147
11
116104.678435
21
-32238.949454
0
LINE
8
Layer 1
10
116104.678435
20
-32238.949454
11
116104.907305
21
-32233.000412
0
LINE
8
Layer 1
10
116104.907305
20
-32233.000412
11
116104.986000
21
-32227.014000
0
LINE
8
Layer 1
10
100523.000000
20
-21970.000000
11
100517.011615
21
-21970.078923
0
LINE
8
Layer 1
10
100517.011615
20
-21970.078923
11
100511.060640
21
-21970.308112
0
LINE
8
Layer 1
10
100511.060640
20
-21970.308112
11
100499.278205
21
-21971.210001
0
LINE
8
Layer 1
10
100499.278205
20
-21971.210001
11
100487.667258
21
-21972.691096
0
LINE
8
Layer 1
10
100487.667258
20
-21972.691096
11
100476.242365
21
-21974.736826
0
LINE
8
Layer 1
10
100476.242365
20
-21974.736826
11
100465.018088
21
-21977.332618
0
LINE
8
Layer 1
10
100465.018088
20
-21977.332618
11
100454.008994
21
-21980.463903
0
LINE
8
Layer 1
10
100454.008994
20
-21980.463903
11
100443.229646
21
-21984.116108
0
LINE
8
Layer 1
10
100443.229646
20
-21984.116108
11
100432.694608
21
-21988.274662
0
LINE
8
Layer 1
10
100432.694608
20
-21988.274662
11
100422.418445
21
-21992.924993
0
LINE
8
Layer 1
10
100422.418445
20
-21992.924993
11
100412.415720
21
-21998.052531
0
LINE
8
Layer 1
10
100412.415720
20
-21998.052531
11
100402.700999
21
-22003.642703
0
LINE
8
Layer 1
10
100402.700999
20
-22003.642703
11
100393.288846
21
-22009.680939
0
LINE
8
Layer 1
10
100393.288846
20
-22009.680939
11
100384.193824
21
-22016.152667
0
LINE
8
Layer 1
10
100384.193824
20
-22016.152667
11
100375.430499
21
-22023.043315
0
LINE
8
Layer 1
10
100375.430499
20
-22023.043315
11
100367.013434
21
-22030.338312
0
LINE
8
Layer 1
10
100367.013434
20
-22030.338312
11
100358.957194
21
-22038.023087
0
LINE
8
Layer 1
10
100358.957194
20
-22038.023087
11
100351.276343
21
-22046.083069
0
LINE
8
Layer 1
10
100351.276343
20
-22046.083069
11
100343.985445
21
-22054.503685
0
LINE
8
Layer 1
10
100343.985445
20
-22054.503685
11
100337.099065
21
-22063.270365
0
LINE
8
Layer 1
10
100337.099065
20
-22063.270365
11
100330.631768
21
-22072.368537
0
LINE
8
Layer 1
10
100330.631768
20
-22072.368537
11
100324.598116
21
-22081.783630
0
LINE
8
Layer 1
10
100324.598116
20
-22081.783630
11
100319.012675
21
-22091.501072
0
LINE
8
Layer 1
10
100319.012675
20
-22091.501072
11
100313.890009
21
-22101.506293
0
LINE
8
Layer 1
10
100313.890009
20
-22101.506293
11
100309.244683
21
-22111.784719
0
LINE
8
Layer 1
10
100309.244683
20
-22111.784719
11
100305.091260
21
-22122.321781
0
LINE
8
Layer 1
10
100305.091260
20
-22122.321781
11
100301.444305
21
-22133.102907
0
LINE
8
Layer 1
10
100301.444305
20
-22133.102907
11
100298.318382
21
-22144.113525
0
LINE
8
Layer 1
10
100298.318382
20
-22144.113525
11
100295.728055
21
-22155.339063
0
LINE
8
Layer 1
10
100295.728055
20
-22155.339063
11
100293.687889
21
-22166.764952
0
LINE
8
Layer 1
10
100293.687889
20
-22166.764952
11
100292.212449
21
-22178.376618
0
LINE
8
Layer 1
10
100292.212449
20
-22178.376618
11
100291.316297
21
-22190.159491
0
LINE
8
Layer 1
10
100291.316297
20
-22190.159491
11
100291.090007
21
-22196.110577
0
LINE
8
Layer 1
10
100291.090007
20
-22196.110577
11
100291.014000
21
-22202.099000
0
LINE
8
Layer 1
10
100291.000000
20
-22201.900000
11
100291.000000
21
-28356.600000
0
LINE
8
Layer 1
10
100291.000000
20
-32227.000000
11
100291.277049
21
-32238.511121
0
LINE
8
Layer 1
10
100291.277049
20
-32238.511121
11
100292.119564
21
-32249.944500
0
LINE
8
Layer 1
10
100292.119564
20
-32249.944500
11
100293.519674
21
-32261.281099
0
LINE
8
Layer 1
10
100293.519674
20
-32261.281099
11
100295.469508
21
-32272.501881
0
LINE
8
Layer 1
10
100295.469508
20
-32272.501881
11
100297.961195
21
-32283.587808
0
LINE
8
Layer 1
10
100297.961195
20
-32283.587808
11
100300.986865
21
-32294.519843
0
LINE
8
Layer 1
10
100300.986865
20
-32294.519843
11
100304.538646
21
-32305.278947
0
LINE
8
Layer 1
10
100304.538646
20
-32305.278947
11
100308.608669
21
-32315.846085
0
LINE
8
Layer 1
10
100308.608669
20
-32315.846085
11
100313.189061
21
-32326.202217
0
LINE
8
Layer 1
10
100313.189061
20
-32326.202217
11
100318.271953
21
-32336.328307
0
LINE
8
Layer 1
10
100318.271953
20
-32336.328307
11
100323.849474
21
-32346.205317
0
LINE
8
Layer 1
10
100323.849474
20
-32346.205317
11
100329.913752
21
-32355.814209
0
LINE
8
Layer 1
10
100329.913752
20
-32355.814209
11
100336.456917
21
-32365.135946
0
LINE
8
Layer 1
10
100336.456917
20
-32365.135946
11
100343.471099
21
-32374.151491
0
LINE
8
Layer 1
10
100343.471099
20
-32374.151491
11
100350.948426
21
-32382.841805
0
LINE
8
Layer 1
10
100350.948426
20
-32382.841805
11
100358.881028
21
-32391.187852
0
LINE
8
Layer 1
10
100358.881028
20
-32391.187852
11
100367.217397
21
-32399.130623
0
LINE
8
Layer 1
10
100367.217397
20
-32399.130623
11
100375.898589
21
-32406.618539
0
LINE
8
Layer 1
10
100375.898589
20
-32406.618539
11
100384.905575
21
-32413.643707
0
LINE
8
Layer 1
10
100384.905575
20
-32413.643707
11
100394.219328
21
-32420.198232
0
LINE
8
Layer 1
10
100394.219328
20
-32420.198232
11
100403.820820
21
-32426.274221
0
LINE
8
Layer 1
10
100403.820820
20
-32426.274221
11
100413.691023
21
-32431.863779
0
LINE
8
Layer 1
10
100413.691023
20
-32431.863779
11
100423.810909
21
-32436.959012
0
LINE
8
Layer 1
10
100423.810909
20
-32436.959012
11
100434.161449
21
-32441.552027
0
LINE
8
Layer 1
10
100434.161449
20
-32441.552027
11
100444.723617
21
-32445.634930
0
LINE
8
Layer 1
10
100444.723617
20
-32445.634930
11
100455.478383
21
-32449.199825
0
LINE
8
Layer 1
10
100455.478383
20
-32449.199825
11
100466.406721
21
-32452.238821
0
LINE
8
Layer 1
10
100466.406721
20
-32452.238821
11
100477.489602
21
-32454.744022
0
LINE
8
Layer 1
10
100477.489602
20
-32454.744022
11
100488.707998
21
-32456.707534
0
LINE
8
Layer 1
10
100488.707998
20
-32456.707534
11
100500.042882
21
-32458.121464
0
LINE
8
Layer 1
10
100500.042882
20
-32458.121464
11
100511.475225
21
-32458.977917
0
LINE
8
Layer 1
10
100511.475225
20
-32458.977917
11
100522.986000
21
-32459.269000
0
LINE
8
Layer 1
10
104762.000000
20
-24795.500000
11
104762.000000
21
-23239.900000
0
LINE
8
Layer 1
10
338.916000
20
248.537000
11
349.612000
21
248.537000
0
LINE
8
Layer 1
10
349.612000
20
258.602000
11
338.916000
21
258.602000
0
LINE
8
Layer 1
10
338.916000
20
258.602000
11
338.916000
21
248.537000
0
LINE
8
Layer 1
10
349.612000
20
248.537000
11
349.612000
21
258.602000
0
LINE
8
Layer 1
10
335.315000
20
249.490000
11
320.595000
21
249.490000
0
LINE
8
Layer 1
10
288.652000
20
261.835000
11
367.811000
21
261.835000
0
LINE
8
Layer 1
10
320.595000
20
249.490000
11
320.595000
21
245.682000
0
LINE
8
Layer 1
10
335.315000
20
245.682000
11
335.315000
21
249.490000
0
LINE
8
Layer 1
10
367.811000
20
245.682000
11
335.315000
21
245.682000
0
LINE
8
Layer 1
10
288.652000
20
245.682000
11
288.652000
21
261.835000
0
LINE
8
Layer 1
10
320.595000
20
245.682000
11
288.652000
21
245.682000
0
LINE
8
Layer 1
10
367.811000
20
261.835000
11
367.811000
21
245.682000
0
LINE
8
Layer 1
10
353.052000
20
226.819000
11
363.747000
21
226.819000
0
LINE
8
Layer 1
10
353.052000
20
236.884000
11
353.052000
21
226.819000
0
LINE
8
Layer 1
10
363.747000
20
236.884000
11
353.052000
21
236.884000
0
LINE
8
Layer 1
10
363.747000
20
226.819000
11
363.747000
21
236.884000
0
LINE
8
Layer 1
10
335.427000
20
227.772000
11
320.707000
21
227.772000
0
LINE
8
Layer 1
10
288.764000
20
240.117000
11
367.922000
21
240.117000
0
LINE
8
Layer 1
10
320.707000
20
227.772000
11
320.707000
21
223.964000
0
LINE
8
Layer 1
10
335.427000
20
223.964000
11
335.427000
21
227.772000
0
LINE
8
Layer 1
10
367.922000
20
223.964000
11
335.427000
21
223.964000
0
LINE
8
Layer 1
10
288.764000
20
223.964000
11
288.764000
21
240.117000
0
LINE
8
Layer 1
10
320.707000
20
223.964000
11
288.764000
21
223.964000
0
LINE
8
Layer 1
10
367.922000
20
240.117000
11
367.922000
21
223.964000
0
LINE
8
Layer 1
10
338.916000
20
207.886000
11
349.612000
21
207.886000
0
LINE
8
Layer 1
10
349.612000
20
217.950000
11
338.916000
21
217.950000
0
LINE
8
Layer 1
10
338.916000
20
217.950000
11
338.916000
21
207.886000
0
LINE
8
Layer 1
10
349.612000
20
207.886000
11
349.612000
21
217.950000
0
LINE
8
Layer 1
10
352.941000
20
207.886000
11
363.635000
21
207.886000
0
LINE
8
Layer 1
10
352.941000
20
217.950000
11
352.941000
21
207.886000
0
LINE
8
Layer 1
10
363.635000
20
217.950000
11
352.941000
21
217.950000
0
LINE
8
Layer 1
10
363.635000
20
207.886000
11
363.635000
21
217.950000
0
LINE
8
Layer 1
10
335.315000
20
208.839000
11
320.595000
21
208.839000
0
LINE
8
Layer 1
10
288.652000
20
221.183000
11
367.811000
21
221.183000
0
LINE
8
Layer 1
10
320.595000
20
208.839000
11
320.595000
21
205.031000
0
LINE
8
Layer 1
10
335.315000
20
205.031000
11
335.315000
21
208.839000
0
LINE
8
Layer 1
10
367.811000
20
205.031000
11
335.315000
21
205.031000
0
LINE
8
Layer 1
10
288.652000
20
205.031000
11
288.652000
21
221.183000
0
LINE
8
Layer 1
10
320.595000
20
205.031000
11
288.652000
21
205.031000
0
LINE
8
Layer 1
10
367.811000
20
221.183000
11
367.811000
21
205.031000
0
LINE
8
Layer 1
10
416.156000
20
258.354000
11
416.156000
21
246.009000
0
LINE
8
Layer 1
10
416.156000
20
246.009000
11
404.956000
21
246.009000
0
LINE
8
Layer 1
10
373.013000
20
258.354000
11
416.156000
21
258.354000
0
LINE
8
Layer 1
10
404.956000
20
246.009000
11
404.956000
21
242.201000
0
LINE
8
Layer 1
10
373.013000
20
242.201000
11
373.013000
21
258.354000
0
LINE
8
Layer 1
10
404.956000
20
242.201000
11
373.013000
21
242.201000
0
LINE
8
Layer 1
10
375.546000
20
202.709000
11
343.050000
21
202.709000
0
LINE
8
Layer 1
10
328.330000
20
202.709000
11
296.385000
21
202.709000
0
LINE
8
Layer 1
10
375.546000
20
218.859000
11
375.546000
21
202.709000
0
LINE
8
Layer 1
10
296.385000
20
218.859000
11
375.546000
21
218.859000
0
LINE
8
Layer 1
10
296.385000
20
202.709000
11
296.385000
21
218.859000
0
LINE
8
Layer 1
10
343.050000
20
206.517000
11
328.330000
21
206.517000
0
LINE
8
Layer 1
10
328.330000
20
206.517000
11
328.330000
21
202.709000
0
LINE
8
Layer 1
10
343.050000
20
202.709000
11
343.050000
21
206.517000
0
LINE
8
Layer 1
10
375.546000
20
202.709000
11
343.050000
21
202.709000
0
LINE
8
Layer 1
10
328.330000
20
202.709000
11
296.385000
21
202.709000
0
LINE
8
Layer 1
10
375.546000
20
218.859000
11
375.546000
21
202.709000
0
LINE
8
Layer 1
10
296.385000
20
218.859000
11
375.546000
21
218.859000
0
LINE
8
Layer 1
10
296.385000
20
202.709000
11
296.385000
21
218.859000
0
LINE
8
Layer 1
10
343.050000
20
206.517000
11
328.330000
21
206.517000
0
LINE
8
Layer 1
10
328.330000
20
206.517000
11
328.330000
21
202.709000
0
LINE
8
Layer 1
10
343.050000
20
202.709000
11
343.050000
21
206.517000
0
LINE
8
Layer 1
10
25.522500
20
198.874000
11
25.264443
21
198.251912
0
LINE
8
Layer 1
10
25.264443
20
198.251912
11
24.642532
21
197.994314
0
LINE
8
Layer 1
10
24.642532
20
197.994314
11
24.019880
21
198.251912
0
LINE
8
Layer 1
10
24.019880
20
198.251912
11
23.761717
21
198.874000
0
LINE
8
Layer 1
10
23.761717
20
198.874000
11
24.019880
21
199.496335
0
LINE
8
Layer 1
10
24.019880
20
199.496335
11
24.642532
21
199.753968
0
LINE
8
Layer 1
10
24.642532
20
199.753968
11
25.264443
21
199.496334
0
LINE
8
Layer 1
10
25.264443
20
199.496334
11
25.522500
21
198.874000
0
LINE
8
Layer 1
10
25.522500
20
198.874000
11
25.522500
21
198.874000
0
LINE
8
Layer 1
10
80.410100
20
198.874000
11
80.152502
21
198.251912
0
LINE
8
Layer 1
10
80.152502
20
198.251912
11
79.530414
21
197.994314
0
LINE
8
Layer 1
10
79.530414
20
197.994314
11
78.907656
21
198.251912
0
LINE
8
Layer 1
10
78.907656
20
198.251912
11
78.649599
21
198.874000
0
LINE
8
Layer 1
10
78.649599
20
198.874000
11
78.907656
21
199.496335
0
LINE
8
Layer 1
10
78.907656
20
199.496335
11
79.530414
21
199.753968
0
LINE
8
Layer 1
10
79.530414
20
199.753968
11
80.152502
21
199.496334
0
LINE
8
Layer 1
10
80.152502
20
199.496334
11
80.410100
21
198.874000
0
LINE
8
Layer 1
10
80.410100
20
198.874000
11
80.410100
21
198.874000
0
LINE
8
Layer 1
10
74.714900
20
209.480000
11
63.515500
21
209.480000
0
LINE
8
Layer 1
10
63.283800
20
255.200000
11
52.083200
21
255.200000
0
LINE
8
Layer 1
10
49.634700
20
256.810000
11
82.322700
21
256.810000
0
LINE
8
Layer 1
10
17.563800
20
220.912000
11
6.363260
21
220.912000
0
LINE
8
Layer 1
10
67.323200
20
224.728000
11
67.323200
21
213.528000
0
LINE
8
Layer 1
10
78.523800
20
224.728000
11
67.323200
21
224.728000
0
LINE
8
Layer 1
10
21.603200
20
224.737000
11
21.603200
21
213.536000
0
LINE
8
Layer 1
10
67.323200
20
213.528000
11
78.523800
21
213.528000
0
LINE
8
Layer 1
10
55.659500
20
198.280000
11
55.659500
21
209.480000
0
LINE
8
Layer 1
10
63.283800
20
213.528000
11
63.283800
21
224.728000
0
LINE
8
Layer 1
10
63.283800
20
224.728000
11
52.083200
21
224.728000
0
LINE
8
Layer 1
10
48.043800
20
228.536000
11
36.843200
21
228.536000
0
LINE
8
Layer 1
10
36.843200
20
228.536000
11
36.843200
21
217.336000
0
LINE
8
Layer 1
10
52.083200
20
224.728000
11
52.083200
21
213.528000
0
LINE
8
Layer 1
10
32.803800
20
213.536000
11
32.803800
21
224.737000
0
LINE
8
Layer 1
10
52.083200
20
213.528000
11
63.283800
21
213.528000
0
LINE
8
Layer 1
10
78.523800
20
213.528000
11
78.523800
21
224.728000
0
LINE
8
Layer 1
10
36.843200
20
243.768000
11
36.843200
21
232.567000
0
LINE
8
Layer 1
10
52.083200
20
239.960000
11
52.083200
21
228.760000
0
LINE
8
Layer 1
10
32.803800
20
228.768000
11
32.803800
21
239.968000
0
LINE
8
Layer 1
10
52.083200
20
228.760000
11
63.283800
21
228.760000
0
LINE
8
Layer 1
10
78.523800
20
228.760000
11
78.523800
21
239.960000
0
LINE
8
Layer 1
10
17.563800
20
236.144000
11
6.363260
21
236.144000
0
LINE
8
Layer 1
10
67.323200
20
239.960000
11
67.323200
21
228.760000
0
LINE
8
Layer 1
10
78.523800
20
239.960000
11
67.323200
21
239.960000
0
LINE
8
Layer 1
10
21.603200
20
239.968000
11
21.603200
21
228.768000
0
LINE
8
Layer 1
10
67.323200
20
228.760000
11
78.523800
21
228.760000
0
LINE
8
Layer 1
10
82.322700
20
256.810000
11
82.322700
21
194.720000
0
LINE
8
Layer 1
10
3.162860
20
206.416000
11
3.162860
21
256.815000
0
LINE
8
Layer 1
10
26.018300
20
194.720000
11
3.162860
21
206.416000
0
LINE
8
Layer 1
10
82.322700
20
194.720000
11
26.018300
21
194.720000
0
LINE
8
Layer 1
10
21.603200
20
255.208000
11
21.603200
21
244.008000
0
LINE
8
Layer 1
10
29.218700
20
209.480000
11
29.218700
21
198.280000
0
LINE
8
Layer 1
10
29.218700
20
198.280000
11
40.419600
21
198.280000
0
LINE
8
Layer 1
10
40.419600
20
209.480000
11
29.218700
21
209.480000
0
LINE
8
Layer 1
10
40.419600
20
198.280000
11
40.419600
21
209.480000
0
LINE
8
Layer 1
10
35.252400
20
260.610000
11
49.634700
21
260.610000
0
LINE
8
Layer 1
10
44.458700
20
209.480000
11
44.458700
21
198.280000
0
LINE
8
Layer 1
10
44.458700
20
198.280000
11
55.659500
21
198.280000
0
LINE
8
Layer 1
10
55.659500
20
209.480000
11
44.458700
21
209.480000
0
LINE
8
Layer 1
10
36.843200
20
217.336000
11
48.043800
21
217.336000
0
LINE
8
Layer 1
10
17.563800
20
251.384000
11
6.363260
21
251.384000
0
LINE
8
Layer 1
10
48.043800
20
232.567000
11
48.043800
21
243.768000
0
LINE
8
Layer 1
10
36.843200
20
232.567000
11
48.043800
21
232.567000
0
LINE
8
Layer 1
10
21.603200
20
228.768000
11
32.803800
21
228.768000
0
LINE
8
Layer 1
10
32.803800
20
239.968000
11
21.603200
21
239.968000
0
LINE
8
Layer 1
10
17.563800
20
224.944000
11
17.563800
21
236.144000
0
LINE
8
Layer 1
10
6.363260
20
236.144000
11
6.363260
21
224.944000
0
LINE
8
Layer 1
10
6.363260
20
224.944000
11
17.563800
21
224.944000
0
LINE
8
Layer 1
10
63.283800
20
228.760000
11
63.283800
21
239.960000
0
LINE
8
Layer 1
10
63.283800
20
239.960000
11
52.083200
21
239.960000
0
LINE
8
Layer 1
10
48.043800
20
217.336000
11
48.043800
21
228.536000
0
LINE
8
Layer 1
10
67.323200
20
255.200000
11
67.323200
21
244.000000
0
LINE
8
Layer 1
10
78.523800
20
255.200000
11
67.323200
21
255.200000
0
LINE
8
Layer 1
10
78.523800
20
244.000000
11
78.523800
21
255.200000
0
LINE
8
Layer 1
10
67.323200
20
244.000000
11
78.523800
21
244.000000
0
LINE
8
Layer 1
10
48.043800
20
243.768000
11
36.843200
21
243.768000
0
LINE
8
Layer 1
10
63.283800
20
244.000000
11
63.283800
21
255.200000
0
LINE
8
Layer 1
10
48.043800
20
247.807000
11
48.043800
21
259.008000
0
LINE
8
Layer 1
10
36.843200
20
247.807000
11
48.043800
21
247.807000
0
LINE
8
Layer 1
10
48.043800
20
259.008000
11
36.843200
21
259.008000
0
LINE
8
Layer 1
10
36.843200
20
259.008000
11
36.843200
21
247.807000
0
LINE
8
Layer 1
10
52.083200
20
255.200000
11
52.083200
21
244.000000
0
LINE
8
Layer 1
10
32.803800
20
244.008000
11
32.803800
21
255.208000
0
LINE
8
Layer 1
10
52.083200
20
244.000000
11
63.283800
21
244.000000
0
LINE
8
Layer 1
10
21.603200
20
244.008000
11
32.803800
21
244.008000
0
LINE
8
Layer 1
10
32.803800
20
255.208000
11
21.603200
21
255.208000
0
LINE
8
Layer 1
10
63.515500
20
209.480000
11
63.515500
21
198.280000
0
LINE
8
Layer 1
10
74.714900
20
198.280000
11
74.714900
21
209.480000
0
LINE
8
Layer 1
10
66.194300
20
239.401000
11
65.936137
21
238.778806
0
LINE
8
Layer 1
10
65.936137
20
238.778806
11
65.313485
21
238.521314
0
LINE
8
Layer 1
10
65.313485
20
238.521314
11
64.691714
21
238.778806
0
LINE
8
Layer 1
10
64.691714
20
238.778806
11
64.433799
21
239.401000
0
LINE
8
Layer 1
10
64.433799
20
239.401000
11
64.691714
21
240.023194
0
LINE
8
Layer 1
10
64.691714
20
240.023194
11
65.313485
21
240.280686
0
LINE
8
Layer 1
10
65.313485
20
240.280686
11
65.936137
21
240.023194
0
LINE
8
Layer 1
10
65.936137
20
240.023194
11
66.194300
21
239.401000
0
LINE
8
Layer 1
10
66.194300
20
239.401000
11
66.194300
21
239.401000
0
LINE
8
Layer 1
10
35.252400
20
256.815000
11
3.162860
21
256.815000
0
LINE
8
Layer 1
10
63.515500
20
198.280000
11
74.714900
21
198.280000
0
LINE
8
Layer 1
10
20.401500
20
239.585000
11
20.144008
21
238.962912
0
LINE
8
Layer 1
10
20.144008
20
238.962912
11
19.521814
21
238.705314
0
LINE
8
Layer 1
10
19.521814
20
238.705314
11
18.899620
21
238.962912
0
LINE
8
Layer 1
10
18.899620
20
238.962912
11
18.642128
21
239.585000
0
LINE
8
Layer 1
10
18.642128
20
239.585000
11
18.899620
21
240.207335
0
LINE
8
Layer 1
10
18.899620
20
240.207335
11
19.521814
21
240.464968
0
LINE
8
Layer 1
10
19.521814
20
240.464968
11
20.144008
21
240.207335
0
LINE
8
Layer 1
10
20.144008
20
240.207335
11
20.401500
21
239.585000
0
LINE
8
Layer 1
10
20.401500
20
239.585000
11
20.401500
21
239.585000
0
LINE
8
Layer 1
10
17.563800
20
240.184000
11
17.563800
21
251.384000
0
LINE
8
Layer 1
10
49.634700
20
260.610000
11
49.634700
21
256.810000
0
LINE
8
Layer 1
10
6.363260
20
251.384000
11
6.363260
21
240.184000
0
LINE
8
Layer 1
10
35.252400
20
256.815000
11
35.252400
21
260.610000
0
LINE
8
Layer 1
10
21.603200
20
213.536000
11
32.803800
21
213.536000
0
LINE
8
Layer 1
10
32.803800
20
224.737000
11
21.603200
21
224.737000
0
LINE
8
Layer 1
10
17.563800
20
209.712000
11
17.563800
21
220.912000
0
LINE
8
Layer 1
10
6.363260
20
220.912000
11
6.363260
21
209.712000
0
LINE
8
Layer 1
10
6.363260
20
209.712000
11
17.563800
21
209.712000
0
LINE
8
Layer 1
10
6.363260
20
240.184000
11
17.563800
21
240.184000
0
LINE
8
Layer 1
10
416.156000
20
258.354000
11
416.156000
21
246.009000
0
LINE
8
Layer 1
10
416.156000
20
246.009000
11
404.956000
21
246.009000
0
LINE
8
Layer 1
10
373.013000
20
258.354000
11
416.156000
21
258.354000
0
LINE
8
Layer 1
10
404.956000
20
246.009000
11
404.956000
21
242.201000
0
LINE
8
Layer 1
10
373.013000
20
242.201000
11
373.013000
21
258.354000
0
LINE
8
Layer 1
10
404.956000
20
242.201000
11
373.013000
21
242.201000
 0 
ENDSEC
 0 
EOF